<?xml version="1.0" encoding="utf-8" standalone="no"?>
<!DOCTYPE svg PUBLIC "-//W3C//DTD SVG 1.1//EN"
  "http://www.w3.org/Graphics/SVG/1.1/DTD/svg11.dtd">
<!-- Created with matplotlib (http://matplotlib.org/) -->
<svg height="532pt" version="1.1" viewBox="0 0 864 532" width="864pt" xmlns="http://www.w3.org/2000/svg" xmlns:xlink="http://www.w3.org/1999/xlink">
 <defs>
  <style type="text/css">
*{stroke-linecap:butt;stroke-linejoin:round;stroke-miterlimit:100000;}
  </style>
 </defs>
 <g id="figure_1">
  <g id="patch_1">
   <path d="M 0 532.8 
L 864 532.8 
L 864 0 
L 0 0 
z
" style="fill:#ffffff;"/>
  </g>
  <g id="axes_1">
   <g id="patch_2">
    <path d="M 60.48 415.584 
L 820.8 415.584 
L 820.8 26.64 
L 60.48 26.64 
z
" style="fill:#ffffff;"/>
   </g>
   <g id="line2d_1">
    <path clip-path="url(#padd3838f8a)" d="M 60.47998 285.936 
L 820.799988 285.936 
L 820.799988 285.936 
" style="fill:none;stroke:#000000;stroke-linecap:square;stroke-width:2.0;"/>
   </g>
   <g id="patch_3">
    <path d="M 60.47998 26.64 
L 820.799988 26.64 
" style="fill:none;stroke:#000000;stroke-linecap:square;stroke-linejoin:miter;"/>
   </g>
   <g id="patch_4">
    <path d="M 820.8 415.584 
L 820.8 26.64 
" style="fill:none;stroke:#000000;stroke-linecap:square;stroke-linejoin:miter;"/>
   </g>
   <g id="patch_5">
    <path d="M 60.47998 415.584 
L 820.799988 415.584 
" style="fill:none;stroke:#000000;stroke-linecap:square;stroke-linejoin:miter;"/>
   </g>
   <g id="patch_6">
    <path d="M 60.48 415.584 
L 60.48 26.64 
" style="fill:none;stroke:#000000;stroke-linecap:square;stroke-linejoin:miter;"/>
   </g>
   <g id="matplotlib.axis_1">
    <g id="xtick_1">
     <g id="line2d_2">
      <path clip-path="url(#padd3838f8a)" d="M 60.47998 415.584 
L 60.47998 26.64 
" style="fill:none;stroke:#000000;stroke-linecap:square;stroke-width:0.3;"/>
     </g>
     <g id="line2d_3">
      <defs>
       <path d="M 0 0 
L 0 -4 
" id="m6150f5c94e" style="stroke:#000000;stroke-width:0.5;"/>
      </defs>
      <g>
       <use style="stroke:#000000;stroke-width:0.5;" x="60.4799804688" xlink:href="#m6150f5c94e" y="415.584"/>
      </g>
     </g>
     <g id="line2d_4">
      <defs>
       <path d="M 0 0 
L 0 4 
" id="m0f66d778fb" style="stroke:#000000;stroke-width:0.5;"/>
      </defs>
      <g>
       <use style="stroke:#000000;stroke-width:0.5;" x="60.4799804688" xlink:href="#m0f66d778fb" y="26.64"/>
      </g>
     </g>
     <g id="text_1">
      <!-- 2017-04-02 14:02:08 -->
      <defs>
       <path d="M 46.703125 51.59375 
Q 46.703125 48 45.25 44.640625 
Q 43.796875 41.296875 41.390625 38.046875 
Q 39 34.796875 36 31.640625 
Q 33 28.5 30 25.5 
Q 28.296875 23.796875 26.046875 21.5 
Q 23.796875 19.203125 21.796875 16.703125 
Q 19.796875 14.203125 18.4375 11.890625 
Q 17.09375 9.59375 17.09375 7.90625 
L 49 7.90625 
L 49 0 
L 7 0 
Q 6.90625 0.59375 6.90625 1.1875 
Q 6.90625 1.796875 6.90625 2.296875 
Q 6.90625 7 8.453125 11.046875 
Q 10 15.09375 12.5 18.6875 
Q 15 22.296875 18.09375 25.5 
Q 21.203125 28.703125 24.203125 31.703125 
Q 26.703125 34.09375 28.953125 36.4375 
Q 31.203125 38.796875 32.953125 41.140625 
Q 34.703125 43.5 35.75 46 
Q 36.796875 48.5 36.796875 51.296875 
Q 36.796875 54.296875 35.84375 56.390625 
Q 34.90625 58.5 33.296875 59.890625 
Q 31.703125 61.296875 29.546875 61.9375 
Q 27.40625 62.59375 25 62.59375 
Q 22.09375 62.59375 19.6875 61.796875 
Q 17.296875 61 15.390625 59.953125 
Q 13.5 58.90625 12.203125 57.75 
Q 10.90625 56.59375 10.203125 56 
L 5.59375 62.59375 
Q 6.5 63.59375 8.296875 65.046875 
Q 10.09375 66.5 12.59375 67.796875 
Q 15.09375 69.09375 18.1875 70 
Q 21.296875 70.90625 24.90625 70.90625 
Q 35.796875 70.90625 41.25 65.84375 
Q 46.703125 60.796875 46.703125 51.59375 
" id="Ubuntu-32"/>
       <path id="Ubuntu-20"/>
       <path d="M 5 34.703125 
Q 5 52.09375 11.140625 61.5 
Q 17.296875 70.90625 28.203125 70.90625 
Q 39.09375 70.90625 45.25 61.5 
Q 51.40625 52.09375 51.40625 34.703125 
Q 51.40625 17.296875 45.25 7.890625 
Q 39.09375 -1.5 28.203125 -1.5 
Q 17.296875 -1.5 11.140625 7.890625 
Q 5 17.296875 5 34.703125 
M 41.59375 34.703125 
Q 41.59375 40.40625 40.9375 45.5 
Q 40.296875 50.59375 38.75 54.390625 
Q 37.203125 58.203125 34.59375 60.453125 
Q 32 62.703125 28.203125 62.703125 
Q 24.40625 62.703125 21.796875 60.453125 
Q 19.203125 58.203125 17.640625 54.390625 
Q 16.09375 50.59375 15.4375 45.5 
Q 14.796875 40.40625 14.796875 34.703125 
Q 14.796875 29 15.4375 23.890625 
Q 16.09375 18.796875 17.640625 15 
Q 19.203125 11.203125 21.796875 8.953125 
Q 24.40625 6.703125 28.203125 6.703125 
Q 32 6.703125 34.59375 8.953125 
Q 37.203125 11.203125 38.75 15 
Q 40.296875 18.796875 40.9375 23.890625 
Q 41.59375 29 41.59375 34.703125 
" id="Ubuntu-30"/>
       <path d="M 9.296875 55 
Q 15 57.203125 20.390625 60.640625 
Q 25.796875 64.09375 30.296875 69.296875 
L 36.90625 69.296875 
L 36.90625 0 
L 27.59375 0 
L 27.59375 56.40625 
Q 26.40625 55.296875 24.65625 54.09375 
Q 22.90625 52.90625 20.84375 51.796875 
Q 18.796875 50.703125 16.546875 49.703125 
Q 14.296875 48.703125 12.203125 48 
z
" id="Ubuntu-31"/>
       <path d="M 16.296875 0 
Q 16.90625 8 19.15625 16.84375 
Q 21.40625 25.703125 24.703125 34.046875 
Q 28 42.40625 31.953125 49.546875 
Q 35.90625 56.703125 39.703125 61.203125 
L 6 61.203125 
L 6 69.296875 
L 50.09375 69.296875 
L 50.09375 61.59375 
Q 46.796875 57.796875 42.796875 51.140625 
Q 38.796875 44.5 35.25 36.25 
Q 31.703125 28 29.140625 18.640625 
Q 26.59375 9.296875 26 0 
z
" id="Ubuntu-37"/>
       <path d="M 4 24 
Q 5.90625 28.40625 9.203125 34.25 
Q 12.5 40.09375 16.640625 46.296875 
Q 20.796875 52.5 25.546875 58.5 
Q 30.296875 64.5 35.09375 69.296875 
L 44 69.296875 
L 44 25.296875 
L 52.203125 25.296875 
L 52.203125 17.703125 
L 44 17.703125 
L 44 0 
L 35 0 
L 35 17.703125 
L 4 17.703125 
z
M 35 58.296875 
Q 32 55.09375 28.953125 51.140625 
Q 25.90625 47.203125 23 42.890625 
Q 20.09375 38.59375 17.546875 34.09375 
Q 15 29.59375 13 25.296875 
L 35 25.296875 
z
" id="Ubuntu-34"/>
       <path d="M 50.90625 18 
Q 50.90625 13.796875 49.453125 10.25 
Q 48 6.703125 45.140625 4.046875 
Q 42.296875 1.40625 38 -0.046875 
Q 33.703125 -1.5 28.09375 -1.5 
Q 21.59375 -1.5 17.25 0.34375 
Q 12.90625 2.203125 10.296875 5 
Q 7.703125 7.796875 6.59375 11.140625 
Q 5.5 14.5 5.5 17.5 
Q 5.5 20.40625 6.453125 23.046875 
Q 7.40625 25.703125 8.953125 28 
Q 10.5 30.296875 12.546875 32.140625 
Q 14.59375 34 16.90625 35.40625 
Q 7.09375 41 7.09375 51.90625 
Q 7.09375 55.703125 8.59375 59.140625 
Q 10.09375 62.59375 12.84375 65.1875 
Q 15.59375 67.796875 19.5 69.34375 
Q 23.40625 70.90625 28.203125 70.90625 
Q 33.796875 70.90625 37.796875 69.203125 
Q 41.796875 67.5 44.34375 64.84375 
Q 46.90625 62.203125 48.046875 59 
Q 49.203125 55.796875 49.203125 52.796875 
Q 49.203125 49.90625 48.34375 47.34375 
Q 47.5 44.796875 46.046875 42.59375 
Q 44.59375 40.40625 42.75 38.703125 
Q 40.90625 37 38.90625 35.703125 
Q 50.703125 30.09375 50.90625 18 
M 14.90625 17.40625 
Q 14.90625 15.59375 15.546875 13.640625 
Q 16.203125 11.703125 17.796875 10.046875 
Q 19.40625 8.40625 21.90625 7.296875 
Q 24.40625 6.203125 28.203125 6.203125 
Q 31.59375 6.203125 34.140625 7.203125 
Q 36.703125 8.203125 38.296875 9.75 
Q 39.90625 11.296875 40.703125 13.296875 
Q 41.5 15.296875 41.5 17.40625 
Q 41.5 20.59375 40.296875 23 
Q 39.09375 25.40625 36.84375 27.203125 
Q 34.59375 29 31.4375 30.25 
Q 28.296875 31.5 24.296875 32.40625 
Q 19.796875 29.90625 17.34375 26.203125 
Q 14.90625 22.5 14.90625 17.40625 
M 39.90625 52.90625 
Q 39.90625 54.40625 39.25 56.203125 
Q 38.59375 58 37.1875 59.546875 
Q 35.796875 61.09375 33.59375 62.140625 
Q 31.40625 63.203125 28.203125 63.203125 
Q 25 63.203125 22.75 62.203125 
Q 20.5 61.203125 19.09375 59.640625 
Q 17.703125 58.09375 17.046875 56.25 
Q 16.40625 54.40625 16.40625 52.59375 
Q 16.40625 50.40625 17.203125 48.203125 
Q 18 46 19.703125 44.09375 
Q 21.40625 42.203125 24.15625 40.703125 
Q 26.90625 39.203125 30.703125 38.296875 
Q 34.90625 40.796875 37.40625 44.140625 
Q 39.90625 47.5 39.90625 52.90625 
" id="Ubuntu-38"/>
       <path d="M 19 5.40625 
Q 19 2.703125 17.203125 0.703125 
Q 15.40625 -1.296875 12.296875 -1.296875 
Q 9.203125 -1.296875 7.390625 0.703125 
Q 5.59375 2.703125 5.59375 5.40625 
Q 5.59375 8.09375 7.390625 10.09375 
Q 9.203125 12.09375 12.296875 12.09375 
Q 15.40625 12.09375 17.203125 10.09375 
Q 19 8.09375 19 5.40625 
M 19 45.40625 
Q 19 42.703125 17.203125 40.703125 
Q 15.40625 38.703125 12.296875 38.703125 
Q 9.203125 38.703125 7.390625 40.703125 
Q 5.59375 42.703125 5.59375 45.40625 
Q 5.59375 48.09375 7.390625 50.09375 
Q 9.203125 52.09375 12.296875 52.09375 
Q 15.40625 52.09375 17.203125 50.09375 
Q 19 48.09375 19 45.40625 
" id="Ubuntu-3a"/>
       <path d="M 2.59375 34.296875 
L 27.296875 34.296875 
L 27.296875 25.59375 
L 2.59375 25.59375 
z
" id="Ubuntu-2d"/>
      </defs>
      <g transform="translate(33.8485746096 528.40477105)rotate(-60.0)scale(0.13 -0.13)">
       <use xlink:href="#Ubuntu-32"/>
       <use x="56.3999938965" xlink:href="#Ubuntu-30"/>
       <use x="112.799987793" xlink:href="#Ubuntu-31"/>
       <use x="169.199981689" xlink:href="#Ubuntu-37"/>
       <use x="225.599975586" xlink:href="#Ubuntu-2d"/>
       <use x="255.499969482" xlink:href="#Ubuntu-30"/>
       <use x="311.899963379" xlink:href="#Ubuntu-34"/>
       <use x="368.299957275" xlink:href="#Ubuntu-2d"/>
       <use x="398.199951172" xlink:href="#Ubuntu-30"/>
       <use x="454.599945068" xlink:href="#Ubuntu-32"/>
       <use x="510.999938965" xlink:href="#Ubuntu-20"/>
       <use x="534.09992981" xlink:href="#Ubuntu-31"/>
       <use x="590.499923706" xlink:href="#Ubuntu-34"/>
       <use x="646.899917603" xlink:href="#Ubuntu-3a"/>
       <use x="671.499908447" xlink:href="#Ubuntu-30"/>
       <use x="727.899902344" xlink:href="#Ubuntu-32"/>
       <use x="784.29989624" xlink:href="#Ubuntu-3a"/>
       <use x="808.899887085" xlink:href="#Ubuntu-30"/>
       <use x="865.299880981" xlink:href="#Ubuntu-38"/>
      </g>
     </g>
    </g>
    <g id="xtick_2">
     <g id="line2d_5">
      <path clip-path="url(#padd3838f8a)" d="M 234.267456 415.584 
L 234.267456 26.64 
" style="fill:none;stroke:#000000;stroke-linecap:square;stroke-width:0.3;"/>
     </g>
     <g id="line2d_6">
      <g>
       <use style="stroke:#000000;stroke-width:0.5;" x="234.267456055" xlink:href="#m6150f5c94e" y="415.584"/>
      </g>
     </g>
     <g id="line2d_7">
      <g>
       <use style="stroke:#000000;stroke-width:0.5;" x="234.267456055" xlink:href="#m0f66d778fb" y="26.64"/>
      </g>
     </g>
     <g id="text_2">
      <!-- 2017-04-02 14:02:40 -->
      <g transform="translate(207.636050196 528.40477105)rotate(-60.0)scale(0.13 -0.13)">
       <use xlink:href="#Ubuntu-32"/>
       <use x="56.3999938965" xlink:href="#Ubuntu-30"/>
       <use x="112.799987793" xlink:href="#Ubuntu-31"/>
       <use x="169.199981689" xlink:href="#Ubuntu-37"/>
       <use x="225.599975586" xlink:href="#Ubuntu-2d"/>
       <use x="255.499969482" xlink:href="#Ubuntu-30"/>
       <use x="311.899963379" xlink:href="#Ubuntu-34"/>
       <use x="368.299957275" xlink:href="#Ubuntu-2d"/>
       <use x="398.199951172" xlink:href="#Ubuntu-30"/>
       <use x="454.599945068" xlink:href="#Ubuntu-32"/>
       <use x="510.999938965" xlink:href="#Ubuntu-20"/>
       <use x="534.09992981" xlink:href="#Ubuntu-31"/>
       <use x="590.499923706" xlink:href="#Ubuntu-34"/>
       <use x="646.899917603" xlink:href="#Ubuntu-3a"/>
       <use x="671.499908447" xlink:href="#Ubuntu-30"/>
       <use x="727.899902344" xlink:href="#Ubuntu-32"/>
       <use x="784.29989624" xlink:href="#Ubuntu-3a"/>
       <use x="808.899887085" xlink:href="#Ubuntu-34"/>
       <use x="865.299880981" xlink:href="#Ubuntu-30"/>
      </g>
     </g>
    </g>
    <g id="xtick_3">
     <g id="line2d_8">
      <path clip-path="url(#padd3838f8a)" d="M 397.193115 415.584 
L 397.193115 26.64 
" style="fill:none;stroke:#000000;stroke-linecap:square;stroke-width:0.3;"/>
     </g>
     <g id="line2d_9">
      <g>
       <use style="stroke:#000000;stroke-width:0.5;" x="397.193115234" xlink:href="#m6150f5c94e" y="415.584"/>
      </g>
     </g>
     <g id="line2d_10">
      <g>
       <use style="stroke:#000000;stroke-width:0.5;" x="397.193115234" xlink:href="#m0f66d778fb" y="26.64"/>
      </g>
     </g>
     <g id="text_3">
      <!-- 2017-04-02 14:03:10 -->
      <defs>
       <path d="M 22.59375 6.796875 
Q 31.5 6.796875 35.34375 10.296875 
Q 39.203125 13.796875 39.203125 19.703125 
Q 39.203125 23.5 37.59375 26.09375 
Q 36 28.703125 33.390625 30.25 
Q 30.796875 31.796875 27.34375 32.4375 
Q 23.90625 33.09375 20.296875 33.09375 
L 17.90625 33.09375 
L 17.90625 40.703125 
L 21.203125 40.703125 
Q 23.703125 40.703125 26.34375 41.203125 
Q 29 41.703125 31.203125 43 
Q 33.40625 44.296875 34.796875 46.546875 
Q 36.203125 48.796875 36.203125 52.203125 
Q 36.203125 55 35.203125 57 
Q 34.203125 59 32.546875 60.296875 
Q 30.90625 61.59375 28.75 62.140625 
Q 26.59375 62.703125 24.203125 62.703125 
Q 19.40625 62.703125 16.046875 61.296875 
Q 12.703125 59.90625 10.40625 58.40625 
L 6.796875 65.5 
Q 8 66.296875 9.84375 67.25 
Q 11.703125 68.203125 14 69 
Q 16.296875 69.796875 18.9375 70.34375 
Q 21.59375 70.90625 24.5 70.90625 
Q 30 70.90625 34 69.546875 
Q 38 68.203125 40.59375 65.75 
Q 43.203125 63.296875 44.5 59.9375 
Q 45.796875 56.59375 45.796875 52.703125 
Q 45.796875 47.296875 42.6875 43.4375 
Q 39.59375 39.59375 35.203125 37.59375 
Q 37.90625 36.796875 40.40625 35.296875 
Q 42.90625 33.796875 44.75 31.5 
Q 46.59375 29.203125 47.75 26.203125 
Q 48.90625 23.203125 48.90625 19.5 
Q 48.90625 15 47.34375 11.140625 
Q 45.796875 7.296875 42.546875 4.5 
Q 39.296875 1.703125 34.390625 0.09375 
Q 29.5 -1.5 22.796875 -1.5 
Q 20.203125 -1.5 17.453125 -1.09375 
Q 14.703125 -0.703125 12.296875 -0.09375 
Q 9.90625 0.5 8.09375 1.09375 
Q 6.296875 1.703125 5.5 2.09375 
L 7.296875 10.203125 
Q 9 9.40625 12.953125 8.09375 
Q 16.90625 6.796875 22.59375 6.796875 
" id="Ubuntu-33"/>
      </defs>
      <g transform="translate(370.561709375 528.40477105)rotate(-60.0)scale(0.13 -0.13)">
       <use xlink:href="#Ubuntu-32"/>
       <use x="56.3999938965" xlink:href="#Ubuntu-30"/>
       <use x="112.799987793" xlink:href="#Ubuntu-31"/>
       <use x="169.199981689" xlink:href="#Ubuntu-37"/>
       <use x="225.599975586" xlink:href="#Ubuntu-2d"/>
       <use x="255.499969482" xlink:href="#Ubuntu-30"/>
       <use x="311.899963379" xlink:href="#Ubuntu-34"/>
       <use x="368.299957275" xlink:href="#Ubuntu-2d"/>
       <use x="398.199951172" xlink:href="#Ubuntu-30"/>
       <use x="454.599945068" xlink:href="#Ubuntu-32"/>
       <use x="510.999938965" xlink:href="#Ubuntu-20"/>
       <use x="534.09992981" xlink:href="#Ubuntu-31"/>
       <use x="590.499923706" xlink:href="#Ubuntu-34"/>
       <use x="646.899917603" xlink:href="#Ubuntu-3a"/>
       <use x="671.499908447" xlink:href="#Ubuntu-30"/>
       <use x="727.899902344" xlink:href="#Ubuntu-33"/>
       <use x="784.29989624" xlink:href="#Ubuntu-3a"/>
       <use x="808.899887085" xlink:href="#Ubuntu-31"/>
       <use x="865.299880981" xlink:href="#Ubuntu-30"/>
      </g>
     </g>
    </g>
    <g id="xtick_4">
     <g id="line2d_11">
      <path clip-path="url(#padd3838f8a)" d="M 560.118835 415.584 
L 560.118835 26.64 
" style="fill:none;stroke:#000000;stroke-linecap:square;stroke-width:0.3;"/>
     </g>
     <g id="line2d_12">
      <g>
       <use style="stroke:#000000;stroke-width:0.5;" x="560.118835449" xlink:href="#m6150f5c94e" y="415.584"/>
      </g>
     </g>
     <g id="line2d_13">
      <g>
       <use style="stroke:#000000;stroke-width:0.5;" x="560.118835449" xlink:href="#m0f66d778fb" y="26.64"/>
      </g>
     </g>
     <g id="text_4">
      <!-- 2017-04-02 14:03:40 -->
      <g transform="translate(533.48742959 528.40477105)rotate(-60.0)scale(0.13 -0.13)">
       <use xlink:href="#Ubuntu-32"/>
       <use x="56.3999938965" xlink:href="#Ubuntu-30"/>
       <use x="112.799987793" xlink:href="#Ubuntu-31"/>
       <use x="169.199981689" xlink:href="#Ubuntu-37"/>
       <use x="225.599975586" xlink:href="#Ubuntu-2d"/>
       <use x="255.499969482" xlink:href="#Ubuntu-30"/>
       <use x="311.899963379" xlink:href="#Ubuntu-34"/>
       <use x="368.299957275" xlink:href="#Ubuntu-2d"/>
       <use x="398.199951172" xlink:href="#Ubuntu-30"/>
       <use x="454.599945068" xlink:href="#Ubuntu-32"/>
       <use x="510.999938965" xlink:href="#Ubuntu-20"/>
       <use x="534.09992981" xlink:href="#Ubuntu-31"/>
       <use x="590.499923706" xlink:href="#Ubuntu-34"/>
       <use x="646.899917603" xlink:href="#Ubuntu-3a"/>
       <use x="671.499908447" xlink:href="#Ubuntu-30"/>
       <use x="727.899902344" xlink:href="#Ubuntu-33"/>
       <use x="784.29989624" xlink:href="#Ubuntu-3a"/>
       <use x="808.899887085" xlink:href="#Ubuntu-34"/>
       <use x="865.299880981" xlink:href="#Ubuntu-30"/>
      </g>
     </g>
    </g>
    <g id="xtick_5">
     <g id="line2d_14">
      <path clip-path="url(#padd3838f8a)" d="M 733.90625 415.584 
L 733.90625 26.64 
" style="fill:none;stroke:#000000;stroke-linecap:square;stroke-width:0.3;"/>
     </g>
     <g id="line2d_15">
      <g>
       <use style="stroke:#000000;stroke-width:0.5;" x="733.90625" xlink:href="#m6150f5c94e" y="415.584"/>
      </g>
     </g>
     <g id="line2d_16">
      <g>
       <use style="stroke:#000000;stroke-width:0.5;" x="733.90625" xlink:href="#m0f66d778fb" y="26.64"/>
      </g>
     </g>
     <g id="text_5">
      <!-- 2017-04-02 14:04:12 -->
      <g transform="translate(707.274844141 528.40477105)rotate(-60.0)scale(0.13 -0.13)">
       <use xlink:href="#Ubuntu-32"/>
       <use x="56.3999938965" xlink:href="#Ubuntu-30"/>
       <use x="112.799987793" xlink:href="#Ubuntu-31"/>
       <use x="169.199981689" xlink:href="#Ubuntu-37"/>
       <use x="225.599975586" xlink:href="#Ubuntu-2d"/>
       <use x="255.499969482" xlink:href="#Ubuntu-30"/>
       <use x="311.899963379" xlink:href="#Ubuntu-34"/>
       <use x="368.299957275" xlink:href="#Ubuntu-2d"/>
       <use x="398.199951172" xlink:href="#Ubuntu-30"/>
       <use x="454.599945068" xlink:href="#Ubuntu-32"/>
       <use x="510.999938965" xlink:href="#Ubuntu-20"/>
       <use x="534.09992981" xlink:href="#Ubuntu-31"/>
       <use x="590.499923706" xlink:href="#Ubuntu-34"/>
       <use x="646.899917603" xlink:href="#Ubuntu-3a"/>
       <use x="671.499908447" xlink:href="#Ubuntu-30"/>
       <use x="727.899902344" xlink:href="#Ubuntu-34"/>
       <use x="784.29989624" xlink:href="#Ubuntu-3a"/>
       <use x="808.899887085" xlink:href="#Ubuntu-31"/>
       <use x="865.299880981" xlink:href="#Ubuntu-32"/>
      </g>
     </g>
    </g>
   </g>
   <g id="matplotlib.axis_2">
    <g id="ytick_1">
     <g id="line2d_17">
      <path clip-path="url(#padd3838f8a)" d="M 60.48 409.410286 
L 820.8 409.410286 
" style="fill:none;stroke:#000000;stroke-linecap:square;stroke-width:0.3;"/>
     </g>
     <g id="line2d_18">
      <defs>
       <path d="M 0 0 
L 4 0 
" id="m710cc243a4" style="stroke:#000000;stroke-width:0.5;"/>
      </defs>
      <g>
       <use style="stroke:#000000;stroke-width:0.5;" x="60.48" xlink:href="#m710cc243a4" y="409.410285714"/>
      </g>
     </g>
     <g id="line2d_19">
      <defs>
       <path d="M 0 0 
L -4 0 
" id="mb9f7ed0844" style="stroke:#000000;stroke-width:0.5;"/>
      </defs>
      <g>
       <use style="stroke:#000000;stroke-width:0.5;" x="820.8" xlink:href="#mb9f7ed0844" y="409.410285714"/>
      </g>
     </g>
     <g id="text_6">
      <!-- −0.4 -->
      <defs>
       <path d="M 19 5.40625 
Q 19 2.703125 17.203125 0.703125 
Q 15.40625 -1.296875 12.296875 -1.296875 
Q 9.203125 -1.296875 7.390625 0.703125 
Q 5.59375 2.703125 5.59375 5.40625 
Q 5.59375 8.09375 7.390625 10.09375 
Q 9.203125 12.09375 12.296875 12.09375 
Q 15.40625 12.09375 17.203125 10.09375 
Q 19 8.09375 19 5.40625 
" id="Ubuntu-2e"/>
       <path d="M 5.296875 33.40625 
L 51.09375 33.40625 
L 51.09375 25.5 
L 5.296875 25.5 
z
" id="Ubuntu-2212"/>
      </defs>
      <g transform="translate(29.34625 413.546848214)scale(0.14 -0.14)">
       <use xlink:href="#Ubuntu-2212"/>
       <use x="56.3999938965" xlink:href="#Ubuntu-30"/>
       <use x="112.799987793" xlink:href="#Ubuntu-2e"/>
       <use x="137.399978638" xlink:href="#Ubuntu-34"/>
      </g>
     </g>
    </g>
    <g id="ytick_2">
     <g id="line2d_20">
      <path clip-path="url(#padd3838f8a)" d="M 60.48 378.541714 
L 820.8 378.541714 
" style="fill:none;stroke:#000000;stroke-linecap:square;stroke-width:0.3;"/>
     </g>
     <g id="line2d_21">
      <g>
       <use style="stroke:#000000;stroke-width:0.5;" x="60.48" xlink:href="#m710cc243a4" y="378.541714286"/>
      </g>
     </g>
     <g id="line2d_22">
      <g>
       <use style="stroke:#000000;stroke-width:0.5;" x="820.8" xlink:href="#mb9f7ed0844" y="378.541714286"/>
      </g>
     </g>
     <g id="text_7">
      <!-- −0.3 -->
      <g transform="translate(29.34625 382.678276786)scale(0.14 -0.14)">
       <use xlink:href="#Ubuntu-2212"/>
       <use x="56.3999938965" xlink:href="#Ubuntu-30"/>
       <use x="112.799987793" xlink:href="#Ubuntu-2e"/>
       <use x="137.399978638" xlink:href="#Ubuntu-33"/>
      </g>
     </g>
    </g>
    <g id="ytick_3">
     <g id="line2d_23">
      <path clip-path="url(#padd3838f8a)" d="M 60.48 347.673143 
L 820.8 347.673143 
" style="fill:none;stroke:#000000;stroke-linecap:square;stroke-width:0.3;"/>
     </g>
     <g id="line2d_24">
      <g>
       <use style="stroke:#000000;stroke-width:0.5;" x="60.48" xlink:href="#m710cc243a4" y="347.673142857"/>
      </g>
     </g>
     <g id="line2d_25">
      <g>
       <use style="stroke:#000000;stroke-width:0.5;" x="820.8" xlink:href="#mb9f7ed0844" y="347.673142857"/>
      </g>
     </g>
     <g id="text_8">
      <!-- −0.2 -->
      <g transform="translate(29.34625 351.809705357)scale(0.14 -0.14)">
       <use xlink:href="#Ubuntu-2212"/>
       <use x="56.3999938965" xlink:href="#Ubuntu-30"/>
       <use x="112.799987793" xlink:href="#Ubuntu-2e"/>
       <use x="137.399978638" xlink:href="#Ubuntu-32"/>
      </g>
     </g>
    </g>
    <g id="ytick_4">
     <g id="line2d_26">
      <path clip-path="url(#padd3838f8a)" d="M 60.48 316.804571 
L 820.8 316.804571 
" style="fill:none;stroke:#000000;stroke-linecap:square;stroke-width:0.3;"/>
     </g>
     <g id="line2d_27">
      <g>
       <use style="stroke:#000000;stroke-width:0.5;" x="60.48" xlink:href="#m710cc243a4" y="316.804571429"/>
      </g>
     </g>
     <g id="line2d_28">
      <g>
       <use style="stroke:#000000;stroke-width:0.5;" x="820.8" xlink:href="#mb9f7ed0844" y="316.804571429"/>
      </g>
     </g>
     <g id="text_9">
      <!-- −0.1 -->
      <g transform="translate(29.34625 320.941133929)scale(0.14 -0.14)">
       <use xlink:href="#Ubuntu-2212"/>
       <use x="56.3999938965" xlink:href="#Ubuntu-30"/>
       <use x="112.799987793" xlink:href="#Ubuntu-2e"/>
       <use x="137.399978638" xlink:href="#Ubuntu-31"/>
      </g>
     </g>
    </g>
    <g id="ytick_5">
     <g id="line2d_29">
      <path clip-path="url(#padd3838f8a)" d="M 60.48 285.936 
L 820.8 285.936 
" style="fill:none;stroke:#000000;stroke-linecap:square;stroke-width:0.3;"/>
     </g>
     <g id="line2d_30">
      <g>
       <use style="stroke:#000000;stroke-width:0.5;" x="60.48" xlink:href="#m710cc243a4" y="285.936"/>
      </g>
     </g>
     <g id="line2d_31">
      <g>
       <use style="stroke:#000000;stroke-width:0.5;" x="820.8" xlink:href="#mb9f7ed0844" y="285.936"/>
      </g>
     </g>
     <g id="text_10">
      <!-- 0.0 -->
      <g transform="translate(37.243125 290.0725625)scale(0.14 -0.14)">
       <use xlink:href="#Ubuntu-30"/>
       <use x="56.3999938965" xlink:href="#Ubuntu-2e"/>
       <use x="80.9999847412" xlink:href="#Ubuntu-30"/>
      </g>
     </g>
    </g>
    <g id="ytick_6">
     <g id="line2d_32">
      <path clip-path="url(#padd3838f8a)" d="M 60.48 255.067429 
L 820.8 255.067429 
" style="fill:none;stroke:#000000;stroke-linecap:square;stroke-width:0.3;"/>
     </g>
     <g id="line2d_33">
      <g>
       <use style="stroke:#000000;stroke-width:0.5;" x="60.48" xlink:href="#m710cc243a4" y="255.067428571"/>
      </g>
     </g>
     <g id="line2d_34">
      <g>
       <use style="stroke:#000000;stroke-width:0.5;" x="820.8" xlink:href="#mb9f7ed0844" y="255.067428571"/>
      </g>
     </g>
     <g id="text_11">
      <!-- 0.1 -->
      <g transform="translate(37.243125 259.203991071)scale(0.14 -0.14)">
       <use xlink:href="#Ubuntu-30"/>
       <use x="56.3999938965" xlink:href="#Ubuntu-2e"/>
       <use x="80.9999847412" xlink:href="#Ubuntu-31"/>
      </g>
     </g>
    </g>
    <g id="ytick_7">
     <g id="line2d_35">
      <path clip-path="url(#padd3838f8a)" d="M 60.48 224.198857 
L 820.8 224.198857 
" style="fill:none;stroke:#000000;stroke-linecap:square;stroke-width:0.3;"/>
     </g>
     <g id="line2d_36">
      <g>
       <use style="stroke:#000000;stroke-width:0.5;" x="60.48" xlink:href="#m710cc243a4" y="224.198857143"/>
      </g>
     </g>
     <g id="line2d_37">
      <g>
       <use style="stroke:#000000;stroke-width:0.5;" x="820.8" xlink:href="#mb9f7ed0844" y="224.198857143"/>
      </g>
     </g>
     <g id="text_12">
      <!-- 0.2 -->
      <g transform="translate(37.243125 228.335419643)scale(0.14 -0.14)">
       <use xlink:href="#Ubuntu-30"/>
       <use x="56.3999938965" xlink:href="#Ubuntu-2e"/>
       <use x="80.9999847412" xlink:href="#Ubuntu-32"/>
      </g>
     </g>
    </g>
    <g id="ytick_8">
     <g id="line2d_38">
      <path clip-path="url(#padd3838f8a)" d="M 60.48 193.330286 
L 820.8 193.330286 
" style="fill:none;stroke:#000000;stroke-linecap:square;stroke-width:0.3;"/>
     </g>
     <g id="line2d_39">
      <g>
       <use style="stroke:#000000;stroke-width:0.5;" x="60.48" xlink:href="#m710cc243a4" y="193.330285714"/>
      </g>
     </g>
     <g id="line2d_40">
      <g>
       <use style="stroke:#000000;stroke-width:0.5;" x="820.8" xlink:href="#mb9f7ed0844" y="193.330285714"/>
      </g>
     </g>
     <g id="text_13">
      <!-- 0.3 -->
      <g transform="translate(37.243125 197.466848214)scale(0.14 -0.14)">
       <use xlink:href="#Ubuntu-30"/>
       <use x="56.3999938965" xlink:href="#Ubuntu-2e"/>
       <use x="80.9999847412" xlink:href="#Ubuntu-33"/>
      </g>
     </g>
    </g>
    <g id="ytick_9">
     <g id="line2d_41">
      <path clip-path="url(#padd3838f8a)" d="M 60.48 162.461714 
L 820.8 162.461714 
" style="fill:none;stroke:#000000;stroke-linecap:square;stroke-width:0.3;"/>
     </g>
     <g id="line2d_42">
      <g>
       <use style="stroke:#000000;stroke-width:0.5;" x="60.48" xlink:href="#m710cc243a4" y="162.461714286"/>
      </g>
     </g>
     <g id="line2d_43">
      <g>
       <use style="stroke:#000000;stroke-width:0.5;" x="820.8" xlink:href="#mb9f7ed0844" y="162.461714286"/>
      </g>
     </g>
     <g id="text_14">
      <!-- 0.4 -->
      <g transform="translate(37.243125 166.598276786)scale(0.14 -0.14)">
       <use xlink:href="#Ubuntu-30"/>
       <use x="56.3999938965" xlink:href="#Ubuntu-2e"/>
       <use x="80.9999847412" xlink:href="#Ubuntu-34"/>
      </g>
     </g>
    </g>
    <g id="ytick_10">
     <g id="line2d_44">
      <path clip-path="url(#padd3838f8a)" d="M 60.48 131.593143 
L 820.8 131.593143 
" style="fill:none;stroke:#000000;stroke-linecap:square;stroke-width:0.3;"/>
     </g>
     <g id="line2d_45">
      <g>
       <use style="stroke:#000000;stroke-width:0.5;" x="60.48" xlink:href="#m710cc243a4" y="131.593142857"/>
      </g>
     </g>
     <g id="line2d_46">
      <g>
       <use style="stroke:#000000;stroke-width:0.5;" x="820.8" xlink:href="#mb9f7ed0844" y="131.593142857"/>
      </g>
     </g>
     <g id="text_15">
      <!-- 0.5 -->
      <defs>
       <path d="M 19.90625 42.59375 
Q 35 42 42.046875 36 
Q 49.09375 30 49.09375 19.703125 
Q 49.09375 15.09375 47.546875 11.1875 
Q 46 7.296875 42.84375 4.5 
Q 39.703125 1.703125 34.890625 0.09375 
Q 30.09375 -1.5 23.5 -1.5 
Q 20.90625 -1.5 18.203125 -1.09375 
Q 15.5 -0.703125 13.203125 -0.09375 
Q 10.90625 0.5 9.09375 1.09375 
Q 7.296875 1.703125 6.5 2.09375 
L 8.296875 10.203125 
Q 10 9.40625 13.84375 8.09375 
Q 17.703125 6.796875 23.296875 6.796875 
Q 27.796875 6.796875 30.84375 7.796875 
Q 33.90625 8.796875 35.796875 10.5 
Q 37.703125 12.203125 38.546875 14.453125 
Q 39.40625 16.703125 39.40625 19.203125 
Q 39.40625 23 38.09375 25.953125 
Q 36.796875 28.90625 33.5 30.90625 
Q 30.203125 32.90625 24.703125 33.953125 
Q 19.203125 35 10.796875 35 
Q 11.40625 39.90625 11.75 44.203125 
Q 12.09375 48.5 12.390625 52.59375 
Q 12.703125 56.703125 12.890625 60.75 
Q 13.09375 64.796875 13.296875 69.296875 
L 46.703125 69.296875 
L 46.703125 61.40625 
L 21.40625 61.40625 
Q 21.296875 59.90625 21.09375 57.34375 
Q 20.90625 54.796875 20.703125 52.046875 
Q 20.5 49.296875 20.296875 46.6875 
Q 20.09375 44.09375 19.90625 42.59375 
" id="Ubuntu-35"/>
      </defs>
      <g transform="translate(37.243125 135.729705357)scale(0.14 -0.14)">
       <use xlink:href="#Ubuntu-30"/>
       <use x="56.3999938965" xlink:href="#Ubuntu-2e"/>
       <use x="80.9999847412" xlink:href="#Ubuntu-35"/>
      </g>
     </g>
    </g>
    <g id="ytick_11">
     <g id="line2d_47">
      <path clip-path="url(#padd3838f8a)" d="M 60.48 100.724571 
L 820.8 100.724571 
" style="fill:none;stroke:#000000;stroke-linecap:square;stroke-width:0.3;"/>
     </g>
     <g id="line2d_48">
      <g>
       <use style="stroke:#000000;stroke-width:0.5;" x="60.48" xlink:href="#m710cc243a4" y="100.724571429"/>
      </g>
     </g>
     <g id="line2d_49">
      <g>
       <use style="stroke:#000000;stroke-width:0.5;" x="820.8" xlink:href="#mb9f7ed0844" y="100.724571429"/>
      </g>
     </g>
     <g id="text_16">
      <!-- 0.6 -->
      <defs>
       <path d="M 6.296875 27.796875 
Q 6.296875 37.90625 9.09375 45.65625 
Q 11.90625 53.40625 17.046875 58.703125 
Q 22.203125 64 29.546875 66.75 
Q 36.90625 69.5 46.09375 69.59375 
L 46.796875 61.796875 
Q 40.90625 61.703125 36.046875 60.5 
Q 31.203125 59.296875 27.390625 56.6875 
Q 23.59375 54.09375 21 49.9375 
Q 18.40625 45.796875 17.09375 39.703125 
Q 19.703125 40.90625 22.953125 41.703125 
Q 26.203125 42.5 29.703125 42.5 
Q 35.59375 42.5 39.6875 40.703125 
Q 43.796875 38.90625 46.390625 35.953125 
Q 49 33 50.140625 29.140625 
Q 51.296875 25.296875 51.296875 21.09375 
Q 51.296875 17.296875 50 13.296875 
Q 48.703125 9.296875 46.046875 6 
Q 43.40625 2.703125 39.296875 0.59375 
Q 35.203125 -1.5 29.59375 -1.5 
Q 18.203125 -1.5 12.25 6.296875 
Q 6.296875 14.09375 6.296875 27.796875 
M 28.703125 34.90625 
Q 25.203125 34.90625 22.203125 34.25 
Q 19.203125 33.59375 16.203125 32.296875 
Q 16.09375 31.203125 16.046875 30.046875 
Q 16 28.90625 16 27.796875 
Q 16 23.40625 16.59375 19.5 
Q 17.203125 15.59375 18.75 12.640625 
Q 20.296875 9.703125 22.890625 7.953125 
Q 25.5 6.203125 29.5 6.203125 
Q 32.796875 6.203125 35.09375 7.59375 
Q 37.40625 9 38.90625 11.203125 
Q 40.40625 13.40625 41.046875 15.953125 
Q 41.703125 18.5 41.703125 20.90625 
Q 41.703125 27.703125 38.453125 31.296875 
Q 35.203125 34.90625 28.703125 34.90625 
" id="Ubuntu-36"/>
      </defs>
      <g transform="translate(37.243125 104.861133929)scale(0.14 -0.14)">
       <use xlink:href="#Ubuntu-30"/>
       <use x="56.3999938965" xlink:href="#Ubuntu-2e"/>
       <use x="80.9999847412" xlink:href="#Ubuntu-36"/>
      </g>
     </g>
    </g>
    <g id="ytick_12">
     <g id="line2d_50">
      <path clip-path="url(#padd3838f8a)" d="M 60.48 69.856 
L 820.8 69.856 
" style="fill:none;stroke:#000000;stroke-linecap:square;stroke-width:0.3;"/>
     </g>
     <g id="line2d_51">
      <g>
       <use style="stroke:#000000;stroke-width:0.5;" x="60.48" xlink:href="#m710cc243a4" y="69.856"/>
      </g>
     </g>
     <g id="line2d_52">
      <g>
       <use style="stroke:#000000;stroke-width:0.5;" x="820.8" xlink:href="#mb9f7ed0844" y="69.856"/>
      </g>
     </g>
     <g id="text_17">
      <!-- 0.7 -->
      <g transform="translate(37.243125 73.9925625)scale(0.14 -0.14)">
       <use xlink:href="#Ubuntu-30"/>
       <use x="56.3999938965" xlink:href="#Ubuntu-2e"/>
       <use x="80.9999847412" xlink:href="#Ubuntu-37"/>
      </g>
     </g>
    </g>
    <g id="ytick_13">
     <g id="line2d_53">
      <path clip-path="url(#padd3838f8a)" d="M 60.48 38.987429 
L 820.8 38.987429 
" style="fill:none;stroke:#000000;stroke-linecap:square;stroke-width:0.3;"/>
     </g>
     <g id="line2d_54">
      <g>
       <use style="stroke:#000000;stroke-width:0.5;" x="60.48" xlink:href="#m710cc243a4" y="38.9874285714"/>
      </g>
     </g>
     <g id="line2d_55">
      <g>
       <use style="stroke:#000000;stroke-width:0.5;" x="820.8" xlink:href="#mb9f7ed0844" y="38.9874285714"/>
      </g>
     </g>
     <g id="text_18">
      <!-- 0.8 -->
      <g transform="translate(37.243125 43.1239910714)scale(0.14 -0.14)">
       <use xlink:href="#Ubuntu-30"/>
       <use x="56.3999938965" xlink:href="#Ubuntu-2e"/>
       <use x="80.9999847412" xlink:href="#Ubuntu-38"/>
      </g>
     </g>
    </g>
    <g id="text_19">
     <!-- SSH [m] -->
     <defs>
      <path d="M 23.296875 -18.5 
L 0.796875 -18.5 
L 0.796875 -11.203125 
L 14.59375 -11.203125 
L 14.59375 71 
L 0.796875 71 
L 0.796875 78.296875 
L 23.296875 78.296875 
z
" id="Ubuntu-5d"/>
      <path d="M 8 50.5 
Q 11.203125 51.296875 16.453125 52.1875 
Q 21.703125 53.09375 28.59375 53.09375 
Q 33.59375 53.09375 37 51.75 
Q 40.40625 50.40625 42.703125 47.796875 
Q 43.40625 48.296875 44.90625 49.1875 
Q 46.40625 50.09375 48.59375 50.9375 
Q 50.796875 51.796875 53.5 52.4375 
Q 56.203125 53.09375 59.296875 53.09375 
Q 65.296875 53.09375 69.09375 51.34375 
Q 72.90625 49.59375 75.046875 46.390625 
Q 77.203125 43.203125 77.953125 38.796875 
Q 78.703125 34.40625 78.703125 29.203125 
L 78.703125 0 
L 69.40625 0 
L 69.40625 27.203125 
Q 69.40625 31.796875 68.953125 35.09375 
Q 68.5 38.40625 67.25 40.59375 
Q 66 42.796875 63.84375 43.84375 
Q 61.703125 44.90625 58.296875 44.90625 
Q 53.59375 44.90625 50.546875 43.65625 
Q 47.5 42.40625 46.40625 41.40625 
Q 47.203125 38.796875 47.59375 35.6875 
Q 48 32.59375 48 29.203125 
L 48 0 
L 38.703125 0 
L 38.703125 27.203125 
Q 38.703125 31.796875 38.203125 35.09375 
Q 37.703125 38.40625 36.453125 40.59375 
Q 35.203125 42.796875 33.046875 43.84375 
Q 30.90625 44.90625 27.59375 44.90625 
Q 26.203125 44.90625 24.59375 44.796875 
Q 23 44.703125 21.546875 44.546875 
Q 20.09375 44.40625 18.890625 44.203125 
Q 17.703125 44 17.296875 43.90625 
L 17.296875 0 
L 8 0 
z
" id="Ubuntu-6d"/>
      <path d="M 52.203125 69.296875 
L 61.90625 69.296875 
L 61.90625 0 
L 52.203125 0 
L 52.203125 32 
L 18.296875 32 
L 18.296875 0 
L 8.59375 0 
L 8.59375 69.296875 
L 18.296875 69.296875 
L 18.296875 40.40625 
L 52.203125 40.40625 
z
" id="Ubuntu-48"/>
      <path d="M 9.59375 78.296875 
L 32.09375 78.296875 
L 32.09375 71 
L 18.296875 71 
L 18.296875 -11.203125 
L 32.09375 -11.203125 
L 32.09375 -18.5 
L 9.59375 -18.5 
z
" id="Ubuntu-5b"/>
      <path d="M 24.703125 6.90625 
Q 39.90625 6.90625 39.90625 17.296875 
Q 39.90625 20.5 38.546875 22.75 
Q 37.203125 25 34.890625 26.640625 
Q 32.59375 28.296875 29.640625 29.5 
Q 26.703125 30.703125 23.40625 31.90625 
Q 19.59375 33.203125 16.1875 34.84375 
Q 12.796875 36.5 10.296875 38.75 
Q 7.796875 41 6.34375 44.09375 
Q 4.90625 47.203125 4.90625 51.59375 
Q 4.90625 60.703125 11.09375 65.796875 
Q 17.296875 70.90625 28.203125 70.90625 
Q 34.5 70.90625 39.640625 69.546875 
Q 44.796875 68.203125 47.203125 66.59375 
L 44.09375 58.703125 
Q 42 60 37.84375 61.25 
Q 33.703125 62.5 28.203125 62.5 
Q 25.40625 62.5 23 61.890625 
Q 20.59375 61.296875 18.796875 60.09375 
Q 17 58.90625 15.953125 57.046875 
Q 14.90625 55.203125 14.90625 52.703125 
Q 14.90625 49.90625 16 48 
Q 17.09375 46.09375 19.09375 44.640625 
Q 21.09375 43.203125 23.75 42 
Q 26.40625 40.796875 29.59375 39.59375 
Q 34.09375 37.796875 37.84375 36 
Q 41.59375 34.203125 44.34375 31.703125 
Q 47.09375 29.203125 48.59375 25.75 
Q 50.09375 22.296875 50.09375 17.40625 
Q 50.09375 8.296875 43.4375 3.390625 
Q 36.796875 -1.5 24.703125 -1.5 
Q 20.59375 -1.5 17.140625 -0.953125 
Q 13.703125 -0.40625 11 0.34375 
Q 8.296875 1.09375 6.34375 1.9375 
Q 4.40625 2.796875 3.296875 3.40625 
L 6.203125 11.40625 
Q 8.5 10.09375 13.203125 8.5 
Q 17.90625 6.90625 24.703125 6.90625 
" id="Ubuntu-53"/>
     </defs>
     <g transform="translate(21.75625 245.7454375)rotate(-90.0)scale(0.14 -0.14)">
      <use xlink:href="#Ubuntu-53"/>
      <use x="53.1999969482" xlink:href="#Ubuntu-53"/>
      <use x="106.399993896" xlink:href="#Ubuntu-48"/>
      <use x="176.899978638" xlink:href="#Ubuntu-20"/>
      <use x="199.999969482" xlink:href="#Ubuntu-5b"/>
      <use x="232.899963379" xlink:href="#Ubuntu-6d"/>
      <use x="318.999954224" xlink:href="#Ubuntu-5d"/>
     </g>
    </g>
   </g>
   <g id="text_20">
    <!-- -51.25$^{\circ}$E, 47.0$^{\circ}$N  $\longrightarrow$ -54.16$^{\circ}$E, 38.84$^{\circ}$N -->
    <defs>
     <path d="M 6 24.59375 
L 31 24.59375 
L 31 30.40625 
L 6 30.40625 
z
" id="HelveticaNeue-Light-2d"/>
     <path d="M 9.703125 0 
L 18.09375 0 
L 18.09375 10.59375 
L 9.703125 10.59375 
z
" id="HelveticaNeue-Light-2e"/>
     <path d="M 7.203125 71.40625 
L 7.203125 0 
L 57 0 
L 57 5.796875 
L 14 5.796875 
L 14 34 
L 53.796875 34 
L 53.796875 39.796875 
L 14 39.796875 
L 14 65.59375 
L 56.5 65.59375 
L 56.5 71.40625 
z
" id="HelveticaNeue-Light-45"/>
     <path d="M 25 5.609375 
Q 19.828125 5.609375 15.359375 8.21875 
Q 10.890625 10.84375 8.25 15.375 
Q 5.609375 19.921875 5.609375 25 
Q 5.609375 30.078125 8.25 34.609375 
Q 10.890625 39.15625 15.359375 41.765625 
Q 19.828125 44.390625 25 44.390625 
Q 30.171875 44.390625 34.609375 41.75 
Q 39.0625 39.109375 41.671875 34.59375 
Q 44.28125 30.078125 44.28125 25 
Q 44.28125 19.921875 41.671875 15.40625 
Q 39.0625 10.890625 34.609375 8.25 
Q 30.171875 5.609375 25 5.609375 
M 25 9.625 
Q 31.25 9.625 35.765625 14.1875 
Q 40.28125 18.75 40.28125 25 
Q 40.28125 29 38.203125 32.59375 
Q 36.140625 36.1875 32.625 38.28125 
Q 29.109375 40.375 25 40.375 
Q 21.921875 40.375 19.140625 39.171875 
Q 16.359375 37.984375 14.15625 35.78125 
Q 11.96875 33.59375 10.796875 30.828125 
Q 9.625 28.078125 9.625 25 
Q 9.625 18.75 14.140625 14.1875 
Q 18.65625 9.625 25 9.625 
" id="Cmsy10-b1"/>
     <path d="M 18.09375 10.59375 
L 9.703125 10.59375 
L 9.703125 0 
L 13.90625 0 
Q 14 -1.09375 13.75 -2.546875 
Q 13.5 -4 12.890625 -5.34375 
Q 12.296875 -6.703125 11.390625 -7.796875 
Q 10.5 -8.90625 9.296875 -9.296875 
L 9.296875 -13.59375 
Q 11.5 -13 13.140625 -11.59375 
Q 14.796875 -10.203125 15.890625 -8.34375 
Q 17 -6.5 17.546875 -4.34375 
Q 18.09375 -2.203125 18.09375 0 
z
" id="HelveticaNeue-Light-2c"/>
     <path d="M 151.90625 25.796875 
L 151.90625 24.796875 
Q 140.40625 19.90625 128.09375 5.703125 
L 126.09375 7.59375 
Q 128.90625 11.59375 134.296875 17.203125 
Q 135.703125 18.59375 135.703125 20 
Q 135.703125 22 133.09375 22 
L 5.5 22 
L 5.5 28.59375 
L 133.203125 28.59375 
Q 134 28.59375 134.890625 29.34375 
Q 135.796875 30.09375 135.796875 30.796875 
Q 135.796875 31.90625 134.40625 33.296875 
Q 129.5 38 126.203125 43 
L 128.203125 44.90625 
Q 140.703125 30.5 151.90625 25.796875 
" id="STIXGeneral-Regular-27f6"/>
     <path d="M 9.59375 22.296875 
L 3.296875 22.296875 
Q 2.90625 16.59375 4.546875 12.1875 
Q 6.203125 7.796875 9.453125 4.796875 
Q 12.703125 1.796875 17.25 0.1875 
Q 21.796875 -1.40625 27.203125 -1.40625 
Q 32 -1.40625 36.390625 -0.046875 
Q 40.796875 1.296875 44.09375 4 
Q 47.40625 6.703125 49.34375 10.640625 
Q 51.296875 14.59375 51.296875 19.796875 
Q 51.296875 26.703125 47.546875 31.34375 
Q 43.796875 36 36.90625 37.09375 
L 36.90625 37.296875 
Q 42.59375 38.703125 45.640625 42.890625 
Q 48.703125 47.09375 48.703125 52.796875 
Q 48.703125 57.5 46.84375 60.84375 
Q 45 64.203125 41.953125 66.34375 
Q 38.90625 68.5 35 69.546875 
Q 31.09375 70.59375 27 70.59375 
Q 21.90625 70.59375 17.796875 68.84375 
Q 13.703125 67.09375 10.84375 64.046875 
Q 8 61 6.453125 56.796875 
Q 4.90625 52.59375 4.90625 47.59375 
L 11.203125 47.59375 
Q 11.09375 51.5 12.09375 54.75 
Q 13.09375 58 15.140625 60.34375 
Q 17.203125 62.703125 20.203125 64 
Q 23.203125 65.296875 27.09375 65.296875 
Q 30.296875 65.296875 33.046875 64.546875 
Q 35.796875 63.796875 37.890625 62.140625 
Q 40 60.5 41.203125 58.046875 
Q 42.40625 55.59375 42.40625 52.09375 
Q 42.40625 48.796875 41.09375 46.390625 
Q 39.796875 44 37.75 42.453125 
Q 35.703125 40.90625 33.140625 40.15625 
Q 30.59375 39.40625 28.203125 39.40625 
L 22.90625 39.40625 
L 22.90625 34.09375 
L 28.203125 34.09375 
Q 31.703125 34.09375 34.75 33.1875 
Q 37.796875 32.296875 40.09375 30.4375 
Q 42.40625 28.59375 43.703125 25.84375 
Q 45 23.09375 45 19.296875 
Q 45 15.59375 43.5 12.6875 
Q 42 9.796875 39.5 7.796875 
Q 37 5.796875 33.796875 4.796875 
Q 30.59375 3.796875 27.09375 3.796875 
Q 22.90625 3.796875 19.546875 5.140625 
Q 16.203125 6.5 13.953125 8.890625 
Q 11.703125 11.296875 10.546875 14.6875 
Q 9.40625 18.09375 9.59375 22.296875 
" id="HelveticaNeue-Light-33"/>
     <path d="M 49.703125 0 
L 49.703125 5.796875 
L 10.796875 5.796875 
Q 11.40625 9.296875 13.796875 12.25 
Q 16.203125 15.203125 19.34375 17.703125 
Q 22.5 20.203125 25.890625 22.25 
Q 29.296875 24.296875 31.796875 26 
Q 35.296875 28.203125 38.4375 30.75 
Q 41.59375 33.296875 44.046875 36.296875 
Q 46.5 39.296875 47.953125 42.890625 
Q 49.40625 46.5 49.40625 50.90625 
Q 49.40625 55.796875 47.75 59.5 
Q 46.09375 63.203125 43.140625 65.640625 
Q 40.203125 68.09375 36.25 69.34375 
Q 32.296875 70.59375 27.703125 70.59375 
Q 22 70.59375 17.75 68.75 
Q 13.5 66.90625 10.703125 63.59375 
Q 7.90625 60.296875 6.546875 55.75 
Q 5.203125 51.203125 5.296875 45.796875 
L 11.59375 45.796875 
Q 11.5 49.703125 12.34375 53.203125 
Q 13.203125 56.703125 15.09375 59.390625 
Q 17 62.09375 20.046875 63.6875 
Q 23.09375 65.296875 27.40625 65.296875 
Q 30.59375 65.296875 33.4375 64.34375 
Q 36.296875 63.40625 38.4375 61.546875 
Q 40.59375 59.703125 41.84375 57.046875 
Q 43.09375 54.40625 43.09375 51 
Q 43.09375 46.796875 41.640625 43.75 
Q 40.203125 40.703125 37.296875 37.796875 
Q 34.40625 34.90625 30.75 32.34375 
Q 27.09375 29.796875 23.390625 27.34375 
Q 19.703125 24.90625 16.203125 22.25 
Q 12.703125 19.59375 9.890625 16.390625 
Q 7.09375 13.203125 5.390625 9.203125 
Q 3.703125 5.203125 3.59375 0 
z
" id="HelveticaNeue-Light-32"/>
     <path d="M 9.703125 56.5 
L 9.703125 52 
L 28.203125 52 
L 28.203125 0 
L 34.5 0 
L 34.5 70 
L 29.40625 70 
Q 28.703125 65.203125 27.046875 62.546875 
Q 25.40625 59.90625 22.953125 58.59375 
Q 20.5 57.296875 17.140625 56.9375 
Q 13.796875 56.59375 9.703125 56.5 
" id="HelveticaNeue-Light-31"/>
     <path d="M 27.796875 70.59375 
Q 20.203125 70.59375 15.390625 67.25 
Q 10.59375 63.90625 7.9375 58.703125 
Q 5.296875 53.5 4.34375 47.09375 
Q 3.40625 40.703125 3.40625 34.5 
Q 3.40625 28.40625 4.34375 22 
Q 5.296875 15.59375 7.9375 10.390625 
Q 10.59375 5.203125 15.390625 1.890625 
Q 20.203125 -1.40625 27.796875 -1.40625 
Q 35.5 -1.40625 40.25 1.890625 
Q 45 5.203125 47.640625 10.390625 
Q 50.296875 15.59375 51.25 22 
Q 52.203125 28.40625 52.203125 34.59375 
Q 52.203125 40.703125 51.25 47.09375 
Q 50.296875 53.5 47.640625 58.703125 
Q 45 63.90625 40.25 67.25 
Q 35.5 70.59375 27.796875 70.59375 
M 27.796875 65.296875 
Q 33.796875 65.296875 37.390625 62.1875 
Q 41 59.09375 42.84375 54.5 
Q 44.703125 49.90625 45.296875 44.5 
Q 45.90625 39.09375 45.90625 34.59375 
Q 45.90625 30 45.296875 24.640625 
Q 44.703125 19.296875 42.84375 14.640625 
Q 41 10 37.390625 6.890625 
Q 33.796875 3.796875 27.796875 3.796875 
Q 21.796875 3.796875 18.1875 6.890625 
Q 14.59375 10 12.75 14.640625 
Q 10.90625 19.296875 10.296875 24.640625 
Q 9.703125 30 9.703125 34.59375 
Q 9.703125 39.09375 10.296875 44.5 
Q 10.90625 49.90625 12.75 54.5 
Q 14.59375 59.09375 18.1875 62.1875 
Q 21.796875 65.296875 27.796875 65.296875 
" id="HelveticaNeue-Light-30"/>
     <path id="HelveticaNeue-Light-20"/>
     <path d="M 44.203125 52.296875 
L 50.5 52.296875 
Q 49.40625 61.59375 43.90625 66.09375 
Q 38.40625 70.59375 29 70.59375 
Q 23.296875 70.59375 19.1875 68.59375 
Q 15.09375 66.59375 12.34375 63.390625 
Q 9.59375 60.203125 7.9375 56.25 
Q 6.296875 52.296875 5.390625 48.4375 
Q 4.5 44.59375 4.25 41.1875 
Q 4 37.796875 4 35.703125 
Q 4 25.40625 5.453125 18.34375 
Q 6.90625 11.296875 9.90625 6.890625 
Q 12.90625 2.5 17.5 0.546875 
Q 22.09375 -1.40625 28.5 -1.40625 
Q 33.703125 -1.40625 38.046875 0.34375 
Q 42.40625 2.09375 45.546875 5.25 
Q 48.703125 8.40625 50.453125 12.75 
Q 52.203125 17.09375 52.203125 22.203125 
Q 52.203125 27.296875 50.546875 31.59375 
Q 48.90625 35.90625 45.90625 39 
Q 42.90625 42.09375 38.65625 43.84375 
Q 34.40625 45.59375 29.09375 45.59375 
Q 23.09375 45.59375 18.046875 42.390625 
Q 13 39.203125 10.5 34 
L 10.296875 34 
Q 10.296875 38.796875 11 44.25 
Q 11.703125 49.703125 13.796875 54.390625 
Q 15.90625 59.09375 19.703125 62.1875 
Q 23.5 65.296875 29.59375 65.296875 
Q 35.703125 65.296875 39.546875 61.6875 
Q 43.40625 58.09375 44.203125 52.296875 
M 29 40.296875 
Q 33 40.296875 36.140625 38.84375 
Q 39.296875 37.40625 41.4375 34.90625 
Q 43.59375 32.40625 44.75 29 
Q 45.90625 25.59375 45.90625 21.796875 
Q 45.90625 18.203125 44.703125 14.890625 
Q 43.5 11.59375 41.25 9.140625 
Q 39 6.703125 35.953125 5.25 
Q 32.90625 3.796875 29.09375 3.796875 
Q 24.5 3.796875 21.203125 5.1875 
Q 17.90625 6.59375 15.75 9.046875 
Q 13.59375 11.5 12.59375 14.796875 
Q 11.59375 18.09375 11.59375 21.796875 
Q 11.59375 25.703125 12.75 29.046875 
Q 13.90625 32.40625 16.15625 34.90625 
Q 18.40625 37.40625 21.65625 38.84375 
Q 24.90625 40.296875 29 40.296875 
" id="HelveticaNeue-Light-36"/>
     <path d="M 9.90625 20 
L 3.59375 20 
Q 3.703125 15 5.5 11 
Q 7.296875 7 10.34375 4.25 
Q 13.40625 1.5 17.546875 0.046875 
Q 21.703125 -1.40625 26.59375 -1.40625 
Q 31.59375 -1.40625 36.046875 0.34375 
Q 40.5 2.09375 43.796875 5.25 
Q 47.09375 8.40625 49 12.75 
Q 50.90625 17.09375 50.90625 22.203125 
Q 50.90625 27.5 49.25 31.953125 
Q 47.59375 36.40625 44.546875 39.59375 
Q 41.5 42.796875 37.140625 44.59375 
Q 32.796875 46.40625 27.40625 46.40625 
Q 23.203125 46.40625 19.203125 44.703125 
Q 15.203125 43 12.59375 39.90625 
L 12.40625 40.09375 
L 16.90625 63.296875 
L 47.5 63.296875 
L 47.5 69.09375 
L 12.5 69.09375 
L 5.703125 32.796875 
L 11.09375 32.796875 
Q 13.703125 36.796875 17.796875 38.9375 
Q 21.90625 41.09375 26.703125 41.09375 
Q 30.59375 41.09375 33.890625 39.6875 
Q 37.203125 38.296875 39.546875 35.84375 
Q 41.90625 33.40625 43.25 30.09375 
Q 44.59375 26.796875 44.59375 22.90625 
Q 44.59375 19.09375 43.390625 15.640625 
Q 42.203125 12.203125 39.890625 9.546875 
Q 37.59375 6.90625 34.390625 5.34375 
Q 31.203125 3.796875 27.09375 3.796875 
Q 23.5 3.796875 20.390625 4.9375 
Q 17.296875 6.09375 15 8.25 
Q 12.703125 10.40625 11.34375 13.40625 
Q 10 16.40625 9.90625 20 
" id="HelveticaNeue-Light-35"/>
     <path d="M 35.296875 22.703125 
L 8.703125 22.703125 
L 35.09375 60.796875 
L 35.296875 60.796875 
z
M 3 23.5 
L 3 17.40625 
L 35.296875 17.40625 
L 35.296875 0 
L 41.09375 0 
L 41.09375 17.40625 
L 51.59375 17.40625 
L 51.59375 22.703125 
L 41.09375 22.703125 
L 41.09375 70 
L 35.40625 70 
z
" id="HelveticaNeue-Light-34"/>
     <path d="M 5.09375 69.09375 
L 5.09375 63.296875 
L 43.796875 63.296875 
Q 36.5 55 31.34375 47.390625 
Q 26.203125 39.796875 22.75 32.25 
Q 19.296875 24.703125 17.4375 16.796875 
Q 15.59375 8.90625 15 0 
L 21.796875 0 
Q 22.40625 12.203125 25.65625 22.34375 
Q 28.90625 32.5 33.25 40.453125 
Q 37.59375 48.40625 42.1875 54.15625 
Q 46.796875 59.90625 50.09375 63.296875 
L 50.09375 69.09375 
z
" id="HelveticaNeue-Light-37"/>
     <path d="M 27.796875 40.09375 
Q 25 40 22.296875 40.703125 
Q 19.59375 41.40625 17.5 43 
Q 15.40625 44.59375 14.09375 47.09375 
Q 12.796875 49.59375 12.796875 53.09375 
Q 12.796875 56.09375 14.046875 58.390625 
Q 15.296875 60.703125 17.390625 62.203125 
Q 19.5 63.703125 22.203125 64.5 
Q 24.90625 65.296875 27.796875 65.296875 
Q 31 65.296875 33.703125 64.5 
Q 36.40625 63.703125 38.40625 62.203125 
Q 40.40625 60.703125 41.546875 58.390625 
Q 42.703125 56.09375 42.703125 53.09375 
Q 42.703125 49.703125 41.453125 47.203125 
Q 40.203125 44.703125 38.140625 43.09375 
Q 36.09375 41.5 33.390625 40.75 
Q 30.703125 40 27.796875 40.09375 
M 49 53.09375 
Q 49 57.59375 47.140625 60.890625 
Q 45.296875 64.203125 42.25 66.34375 
Q 39.203125 68.5 35.390625 69.546875 
Q 31.59375 70.59375 27.703125 70.59375 
Q 23.796875 70.59375 20 69.546875 
Q 16.203125 68.5 13.203125 66.34375 
Q 10.203125 64.203125 8.34375 60.890625 
Q 6.5 57.59375 6.5 53.09375 
Q 6.5 47.296875 9.453125 43.34375 
Q 12.40625 39.40625 17.90625 37.703125 
L 17.90625 37.5 
Q 11.296875 36.296875 7.59375 31.390625 
Q 3.90625 26.5 3.703125 19.59375 
Q 3.703125 14.296875 5.59375 10.34375 
Q 7.5 6.40625 10.796875 3.796875 
Q 14.09375 1.203125 18.5 -0.09375 
Q 22.90625 -1.40625 27.796875 -1.40625 
Q 32.796875 -1.40625 37.140625 -0.09375 
Q 41.5 1.203125 44.796875 3.796875 
Q 48.09375 6.40625 50 10.34375 
Q 51.90625 14.296875 51.90625 19.59375 
Q 51.90625 26.796875 48.203125 31.4375 
Q 44.5 36.09375 37.59375 37.5 
L 37.59375 37.703125 
Q 43 39.296875 46 43.34375 
Q 49 47.40625 49 53.09375 
M 27.796875 3.796875 
Q 24.09375 3.796875 20.84375 4.796875 
Q 17.59375 5.796875 15.1875 7.75 
Q 12.796875 9.703125 11.390625 12.703125 
Q 10 15.703125 10 19.59375 
Q 10 23.40625 11.453125 26.296875 
Q 12.90625 29.203125 15.296875 31.140625 
Q 17.703125 33.09375 20.953125 34 
Q 24.203125 34.90625 27.796875 34.796875 
Q 31.296875 34.90625 34.546875 33.953125 
Q 37.796875 33 40.25 31.046875 
Q 42.703125 29.09375 44.140625 26.25 
Q 45.59375 23.40625 45.59375 19.59375 
Q 45.59375 15.59375 44.1875 12.59375 
Q 42.796875 9.59375 40.390625 7.640625 
Q 38 5.703125 34.75 4.75 
Q 31.5 3.796875 27.796875 3.796875 
" id="HelveticaNeue-Light-38"/>
     <path d="M 7.09375 71.40625 
L 7.09375 0 
L 13.90625 0 
L 13.90625 60.40625 
L 14.09375 60.40625 
L 55.703125 0 
L 63.296875 0 
L 63.296875 71.40625 
L 56.5 71.40625 
L 56.5 11 
L 56.296875 11 
L 14.703125 71.40625 
z
" id="HelveticaNeue-Light-4e"/>
    </defs>
    <g transform="translate(274.14 21.64)scale(0.18 -0.18)">
     <use transform="translate(0.0 0.59375)" xlink:href="#HelveticaNeue-Light-2d"/>
     <use transform="translate(36.9999847412 0.59375)" xlink:href="#HelveticaNeue-Light-35"/>
     <use transform="translate(92.5999755859 0.59375)" xlink:href="#HelveticaNeue-Light-31"/>
     <use transform="translate(148.199966431 0.59375)" xlink:href="#HelveticaNeue-Light-2e"/>
     <use transform="translate(175.999954224 0.59375)" xlink:href="#HelveticaNeue-Light-32"/>
     <use transform="translate(231.599945068 0.59375)" xlink:href="#HelveticaNeue-Light-35"/>
     <use transform="translate(291.664076538 38.8578125)scale(0.7)" xlink:href="#Cmsy10-b1"/>
     <use transform="translate(333.041420288 0.59375)" xlink:href="#HelveticaNeue-Light-45"/>
     <use transform="translate(392.341408081 0.59375)" xlink:href="#HelveticaNeue-Light-2c"/>
     <use transform="translate(420.141395874 0.59375)" xlink:href="#HelveticaNeue-Light-20"/>
     <use transform="translate(447.941383667 0.59375)" xlink:href="#HelveticaNeue-Light-34"/>
     <use transform="translate(503.541374512 0.59375)" xlink:href="#HelveticaNeue-Light-37"/>
     <use transform="translate(559.141365356 0.59375)" xlink:href="#HelveticaNeue-Light-2e"/>
     <use transform="translate(586.941353149 0.59375)" xlink:href="#HelveticaNeue-Light-30"/>
     <use transform="translate(647.005484619 38.8578125)scale(0.7)" xlink:href="#Cmsy10-b1"/>
     <use transform="translate(688.382828369 0.59375)" xlink:href="#HelveticaNeue-Light-4e"/>
     <use transform="translate(758.782822266 0.59375)" xlink:href="#HelveticaNeue-Light-20"/>
     <use transform="translate(786.582810059 0.59375)" xlink:href="#HelveticaNeue-Light-20"/>
     <use transform="translate(831.941391602 0.59375)" xlink:href="#STIXGeneral-Regular-27f6"/>
     <use transform="translate(1006.89996399 0.59375)" xlink:href="#HelveticaNeue-Light-20"/>
     <use transform="translate(1034.69995178 0.59375)" xlink:href="#HelveticaNeue-Light-2d"/>
     <use transform="translate(1071.69993652 0.59375)" xlink:href="#HelveticaNeue-Light-35"/>
     <use transform="translate(1127.29992737 0.59375)" xlink:href="#HelveticaNeue-Light-34"/>
     <use transform="translate(1182.89991821 0.59375)" xlink:href="#HelveticaNeue-Light-2e"/>
     <use transform="translate(1210.69990601 0.59375)" xlink:href="#HelveticaNeue-Light-31"/>
     <use transform="translate(1266.29989685 0.59375)" xlink:href="#HelveticaNeue-Light-36"/>
     <use transform="translate(1326.36402832 38.8578125)scale(0.7)" xlink:href="#Cmsy10-b1"/>
     <use transform="translate(1367.74137207 0.59375)" xlink:href="#HelveticaNeue-Light-45"/>
     <use transform="translate(1427.04135986 0.59375)" xlink:href="#HelveticaNeue-Light-2c"/>
     <use transform="translate(1454.84134766 0.59375)" xlink:href="#HelveticaNeue-Light-20"/>
     <use transform="translate(1482.64133545 0.59375)" xlink:href="#HelveticaNeue-Light-33"/>
     <use transform="translate(1538.24132629 0.59375)" xlink:href="#HelveticaNeue-Light-38"/>
     <use transform="translate(1593.84131714 0.59375)" xlink:href="#HelveticaNeue-Light-2e"/>
     <use transform="translate(1621.64130493 0.59375)" xlink:href="#HelveticaNeue-Light-38"/>
     <use transform="translate(1677.24129578 0.59375)" xlink:href="#HelveticaNeue-Light-34"/>
     <use transform="translate(1737.30542725 38.8578125)scale(0.7)" xlink:href="#Cmsy10-b1"/>
     <use transform="translate(1778.682771 0.59375)" xlink:href="#HelveticaNeue-Light-4e"/>
    </g>
   </g>
   <g id="legend_1">
    <g id="patch_7">
     <path d="M 72.28 80.984688 
L 301.718125 80.984688 
Q 304.518125 80.984688 304.518125 78.184688 
L 304.518125 38.44 
Q 304.518125 35.64 301.718125 35.64 
L 72.28 35.64 
Q 69.48 35.64 69.48 38.44 
L 69.48 78.184688 
Q 69.48 80.984688 72.28 80.984688 
z
" style="fill:#4c4c4c;opacity:0.5;stroke:#4c4c4c;stroke-linejoin:miter;"/>
    </g>
    <g id="patch_8">
     <path d="M 70.28 78.984688 
L 299.718125 78.984688 
Q 302.518125 78.984688 302.518125 76.184688 
L 302.518125 36.44 
Q 302.518125 33.64 299.718125 33.64 
L 70.28 33.64 
Q 67.48 33.64 67.48 36.44 
L 67.48 76.184688 
Q 67.48 78.984688 70.28 78.984688 
z
" style="fill:#ffffff;stroke:#000000;stroke-linejoin:miter;"/>
    </g>
    <g id="line2d_56">
     <path d="M 77.28 45.301563 
L 96.88 45.301563 
" style="fill:none;stroke:#091459;stroke-linecap:square;stroke-width:2.0;"/>
    </g>
    <g id="line2d_57"/>
    <g id="text_21">
     <!-- Sentinel-3 ("adt_unfiltered") -->
     <defs>
      <path d="M -0.40625 -10.59375 
L 49.59375 -10.59375 
L 49.59375 -18.5 
L -0.40625 -18.5 
z
" id="Ubuntu-5f"/>
      <path d="M 16.90625 76 
L 16.90625 71 
Q 16.90625 66.09375 16.296875 60.75 
Q 15.703125 55.40625 14.796875 50.09375 
L 9.296875 50.09375 
Q 8.40625 55.40625 7.796875 60.75 
Q 7.203125 66.09375 7.203125 71.09375 
L 7.203125 76 
z
M 34.65625 76 
L 34.65625 71 
Q 34.65625 66.09375 34.046875 60.75 
Q 33.453125 55.40625 32.546875 50.09375 
L 27.046875 50.09375 
Q 26.15625 55.40625 25.546875 60.75 
Q 24.953125 66.09375 24.953125 71.09375 
L 24.953125 76 
z
" id="Ubuntu-22"/>
      <path d="M 27.203125 53.09375 
Q 28.40625 53.09375 29.953125 52.9375 
Q 31.5 52.796875 33 52.546875 
Q 34.5 52.296875 35.75 52.046875 
Q 37 51.796875 37.59375 51.59375 
L 36 43.5 
Q 34.90625 43.90625 32.34375 44.453125 
Q 29.796875 45 25.796875 45 
Q 23.203125 45 20.640625 44.453125 
Q 18.09375 43.90625 17.296875 43.703125 
L 17.296875 0 
L 8 0 
L 8 49.796875 
Q 11.296875 51 16.1875 52.046875 
Q 21.09375 53.09375 27.203125 53.09375 
" id="Ubuntu-72"/>
      <path d="M 8 50.5 
Q 11.203125 51.296875 16.5 52.1875 
Q 21.796875 53.09375 28.703125 53.09375 
Q 34.90625 53.09375 39 51.34375 
Q 43.09375 49.59375 45.546875 46.4375 
Q 48 43.296875 49 38.890625 
Q 50 34.5 50 29.203125 
L 50 0 
L 40.703125 0 
L 40.703125 27.203125 
Q 40.703125 32 40.046875 35.390625 
Q 39.40625 38.796875 37.90625 40.890625 
Q 36.40625 43 33.90625 43.953125 
Q 31.40625 44.90625 27.703125 44.90625 
Q 26.203125 44.90625 24.59375 44.796875 
Q 23 44.703125 21.546875 44.546875 
Q 20.09375 44.40625 18.9375 44.203125 
Q 17.796875 44 17.296875 43.90625 
L 17.296875 0 
L 8 0 
z
" id="Ubuntu-6e"/>
      <path d="M 17.09375 29.90625 
Q 17.09375 17.09375 20.796875 6.1875 
Q 24.5 -4.703125 31.703125 -14 
L 25.09375 -18.5 
Q 17.296875 -9 12.546875 3.34375 
Q 7.796875 15.703125 7.796875 29.90625 
Q 7.796875 44.09375 12.546875 56.4375 
Q 17.296875 68.796875 25.09375 78.296875 
L 31.703125 73.796875 
Q 24.5 64.5 20.796875 53.59375 
Q 17.09375 42.703125 17.09375 29.90625 
" id="Ubuntu-28"/>
      <path d="M 23.59375 -1 
Q 15 -0.796875 11.390625 2.703125 
Q 7.796875 6.203125 7.796875 13.59375 
L 7.796875 76 
L 17.09375 77.59375 
L 17.09375 15.09375 
Q 17.09375 12.796875 17.5 11.296875 
Q 17.90625 9.796875 18.796875 8.890625 
Q 19.703125 8 21.203125 7.546875 
Q 22.703125 7.09375 24.90625 6.796875 
z
" id="Ubuntu-6c"/>
      <path d="M 15.296875 29.90625 
Q 15.296875 42.703125 11.59375 53.59375 
Q 7.90625 64.5 0.703125 73.796875 
L 7.296875 78.296875 
Q 15.09375 68.796875 19.84375 56.4375 
Q 24.59375 44.09375 24.59375 29.90625 
Q 24.59375 15.703125 19.84375 3.34375 
Q 15.09375 -9 7.296875 -18.5 
L 0.703125 -14 
Q 7.90625 -4.703125 11.59375 6.1875 
Q 15.296875 17.09375 15.296875 29.90625 
" id="Ubuntu-29"/>
      <path d="M 17.296875 0 
L 8 0 
L 8 52 
L 17.296875 52 
z
M 12.59375 61.40625 
Q 10.09375 61.40625 8.34375 63.046875 
Q 6.59375 64.703125 6.59375 67.5 
Q 6.59375 70.296875 8.34375 71.9375 
Q 10.09375 73.59375 12.59375 73.59375 
Q 15.09375 73.59375 16.84375 71.9375 
Q 18.59375 70.296875 18.59375 67.5 
Q 18.59375 64.703125 16.84375 63.046875 
Q 15.09375 61.40625 12.59375 61.40625 
" id="Ubuntu-69"/>
      <path d="M 28.296875 77.59375 
Q 32.40625 77.59375 35.34375 77 
Q 38.296875 76.40625 39.5 75.90625 
L 37.796875 67.90625 
Q 36.59375 68.5 34.390625 69.046875 
Q 32.203125 69.59375 29 69.59375 
Q 22.5 69.59375 19.890625 66.046875 
Q 17.296875 62.5 17.296875 56.5 
L 17.296875 52 
L 37.296875 52 
L 37.296875 44.203125 
L 17.296875 44.203125 
L 17.296875 0 
L 8 0 
L 8 56.703125 
Q 8 66.703125 12.890625 72.140625 
Q 17.796875 77.59375 28.296875 77.59375 
" id="Ubuntu-66"/>
      <path d="M 5.09375 25.90625 
Q 5.09375 32.796875 7.09375 37.9375 
Q 9.09375 43.09375 12.390625 46.5 
Q 15.703125 49.90625 20 51.59375 
Q 24.296875 53.296875 28.796875 53.296875 
Q 39.296875 53.296875 44.890625 46.75 
Q 50.5 40.203125 50.5 26.796875 
Q 50.5 26.203125 50.5 25.25 
Q 50.5 24.296875 50.40625 23.5 
L 14.796875 23.5 
Q 15.40625 15.40625 19.5 11.203125 
Q 23.59375 7 32.296875 7 
Q 37.203125 7 40.546875 7.84375 
Q 43.90625 8.703125 45.59375 9.5 
L 46.90625 1.703125 
Q 45.203125 0.796875 40.953125 -0.203125 
Q 36.703125 -1.203125 31.296875 -1.203125 
Q 24.5 -1.203125 19.546875 0.84375 
Q 14.59375 2.90625 11.390625 6.5 
Q 8.203125 10.09375 6.640625 15.046875 
Q 5.09375 20 5.09375 25.90625 
M 40.796875 31 
Q 40.90625 37.296875 37.65625 41.34375 
Q 34.40625 45.40625 28.703125 45.40625 
Q 25.5 45.40625 23.046875 44.15625 
Q 20.59375 42.90625 18.890625 40.90625 
Q 17.203125 38.90625 16.25 36.296875 
Q 15.296875 33.703125 15 31 
z
" id="Ubuntu-65"/>
      <path d="M 41.59375 41 
Q 39.90625 42.40625 36.703125 43.703125 
Q 33.5 45 29.703125 45 
Q 25.703125 45 22.84375 43.546875 
Q 20 42.09375 18.203125 39.546875 
Q 16.40625 37 15.59375 33.5 
Q 14.796875 30 14.796875 26 
Q 14.796875 16.90625 19.296875 11.953125 
Q 23.796875 7 31.296875 7 
Q 35.09375 7 37.640625 7.34375 
Q 40.203125 7.703125 41.59375 8.09375 
z
M 41.59375 76 
L 50.90625 77.59375 
L 50.90625 1.5 
Q 47.703125 0.59375 42.703125 -0.296875 
Q 37.703125 -1.203125 31.203125 -1.203125 
Q 25.203125 -1.203125 20.390625 0.6875 
Q 15.59375 2.59375 12.1875 6.09375 
Q 8.796875 9.59375 6.9375 14.640625 
Q 5.09375 19.703125 5.09375 26 
Q 5.09375 32 6.640625 37 
Q 8.203125 42 11.203125 45.59375 
Q 14.203125 49.203125 18.546875 51.203125 
Q 22.90625 53.203125 28.5 53.203125 
Q 33 53.203125 36.453125 52 
Q 39.90625 50.796875 41.59375 49.703125 
z
" id="Ubuntu-64"/>
      <path d="M 16.703125 52 
L 36.40625 52 
L 36.40625 44.203125 
L 16.703125 44.203125 
L 16.703125 20.203125 
Q 16.703125 16.296875 17.296875 13.75 
Q 17.90625 11.203125 19.09375 9.75 
Q 20.296875 8.296875 22.09375 7.6875 
Q 23.90625 7.09375 26.296875 7.09375 
Q 30.5 7.09375 33.046875 8.046875 
Q 35.59375 9 36.59375 9.40625 
L 38.40625 1.703125 
Q 37 1 33.5 -0.046875 
Q 30 -1.09375 25.5 -1.09375 
Q 20.203125 -1.09375 16.75 0.25 
Q 13.296875 1.59375 11.1875 4.296875 
Q 9.09375 7 8.25 10.953125 
Q 7.40625 14.90625 7.40625 20.09375 
L 7.40625 66.5 
L 16.703125 68.09375 
z
" id="Ubuntu-74"/>
      <path d="M 49.40625 1.5 
Q 46.203125 0.703125 40.953125 -0.1875 
Q 35.703125 -1.09375 28.796875 -1.09375 
Q 22.796875 -1.09375 18.6875 0.65625 
Q 14.59375 2.40625 12.09375 5.59375 
Q 9.59375 8.796875 8.5 13.140625 
Q 7.40625 17.5 7.40625 22.796875 
L 7.40625 52 
L 16.703125 52 
L 16.703125 24.796875 
Q 16.703125 15.296875 19.703125 11.1875 
Q 22.703125 7.09375 29.796875 7.09375 
Q 31.296875 7.09375 32.890625 7.1875 
Q 34.5 7.296875 35.890625 7.4375 
Q 37.296875 7.59375 38.4375 7.75 
Q 39.59375 7.90625 40.09375 8.09375 
L 40.09375 52 
L 49.40625 52 
z
" id="Ubuntu-75"/>
      <path d="M 25.59375 6.703125 
Q 28.90625 6.703125 31.453125 6.84375 
Q 34 7 35.703125 7.40625 
L 35.703125 22.90625 
Q 34.703125 23.40625 32.453125 23.75 
Q 30.203125 24.09375 27 24.09375 
Q 24.90625 24.09375 22.546875 23.796875 
Q 20.203125 23.5 18.25 22.546875 
Q 16.296875 21.59375 15 19.9375 
Q 13.703125 18.296875 13.703125 15.59375 
Q 13.703125 10.59375 16.890625 8.640625 
Q 20.09375 6.703125 25.59375 6.703125 
M 24.796875 53.296875 
Q 30.40625 53.296875 34.25 51.84375 
Q 38.09375 50.40625 40.4375 47.75 
Q 42.796875 45.09375 43.796875 41.4375 
Q 44.796875 37.796875 44.796875 33.40625 
L 44.796875 0.90625 
Q 43.59375 0.703125 41.4375 0.34375 
Q 39.296875 0 36.59375 -0.296875 
Q 33.90625 -0.59375 30.75 -0.84375 
Q 27.59375 -1.09375 24.5 -1.09375 
Q 20.09375 -1.09375 16.390625 -0.1875 
Q 12.703125 0.703125 10 2.640625 
Q 7.296875 4.59375 5.796875 7.796875 
Q 4.296875 11 4.296875 15.5 
Q 4.296875 19.796875 6.046875 22.890625 
Q 7.796875 26 10.796875 27.890625 
Q 13.796875 29.796875 17.796875 30.6875 
Q 21.796875 31.59375 26.203125 31.59375 
Q 27.59375 31.59375 29.09375 31.4375 
Q 30.59375 31.296875 31.9375 31.046875 
Q 33.296875 30.796875 34.296875 30.59375 
Q 35.296875 30.40625 35.703125 30.296875 
L 35.703125 32.90625 
Q 35.703125 35.203125 35.203125 37.453125 
Q 34.703125 39.703125 33.390625 41.453125 
Q 32.09375 43.203125 29.84375 44.25 
Q 27.59375 45.296875 24 45.296875 
Q 19.40625 45.296875 15.953125 44.640625 
Q 12.5 44 10.796875 43.296875 
L 9.703125 51 
Q 11.5 51.796875 15.703125 52.546875 
Q 19.90625 53.296875 24.796875 53.296875 
" id="Ubuntu-61"/>
     </defs>
     <g transform="translate(112.28 50.2015625)scale(0.14 -0.14)">
      <use xlink:href="#Ubuntu-53"/>
      <use x="53.1999969482" xlink:href="#Ubuntu-65"/>
      <use x="109.099990845" xlink:href="#Ubuntu-6e"/>
      <use x="166.499984741" xlink:href="#Ubuntu-74"/>
      <use x="206.699981689" xlink:href="#Ubuntu-69"/>
      <use x="231.999969482" xlink:href="#Ubuntu-6e"/>
      <use x="289.399963379" xlink:href="#Ubuntu-65"/>
      <use x="345.299957275" xlink:href="#Ubuntu-6c"/>
      <use x="372.599945068" xlink:href="#Ubuntu-2d"/>
      <use x="402.499938965" xlink:href="#Ubuntu-33"/>
      <use x="458.899932861" xlink:href="#Ubuntu-20"/>
      <use x="481.999923706" xlink:href="#Ubuntu-28"/>
      <use x="514.399917603" xlink:href="#Ubuntu-22"/>
      <use x="556.199905396" xlink:href="#Ubuntu-61"/>
      <use x="608.399902344" xlink:href="#Ubuntu-64"/>
      <use x="667.29989624" xlink:href="#Ubuntu-74"/>
      <use x="707.499893188" xlink:href="#Ubuntu-5f"/>
      <use x="756.699890137" xlink:href="#Ubuntu-75"/>
      <use x="814.099884033" xlink:href="#Ubuntu-6e"/>
      <use x="871.49987793" xlink:href="#Ubuntu-66"/>
      <use x="910.099868774" xlink:href="#Ubuntu-69"/>
      <use x="935.399856567" xlink:href="#Ubuntu-6c"/>
      <use x="962.69984436" xlink:href="#Ubuntu-74"/>
      <use x="1002.88421631" xlink:href="#Ubuntu-65"/>
      <use x="1058.78421021" xlink:href="#Ubuntu-72"/>
      <use x="1097.38420105" xlink:href="#Ubuntu-65"/>
      <use x="1153.28419495" xlink:href="#Ubuntu-64"/>
      <use x="1212.18418884" xlink:href="#Ubuntu-22"/>
      <use x="1253.98417664" xlink:href="#Ubuntu-29"/>
     </g>
    </g>
    <g id="line2d_58">
     <path d="M 77.28 65.853125 
L 96.88 65.853125 
" style="fill:none;stroke:#ed7c4c;stroke-linecap:square;stroke-width:2.0;"/>
    </g>
    <g id="line2d_59"/>
    <g id="text_22">
     <!-- NATL60-CJM165 ("sossheig") -->
     <defs>
      <path d="M 50.296875 8.40625 
L 50.296875 0 
L 8.59375 0 
L 8.59375 69.296875 
L 18.296875 69.296875 
L 18.296875 8.40625 
z
" id="Ubuntu-4c"/>
      <path d="M 38.40625 -1.5 
Q 31.09375 -1.5 25.09375 0.890625 
Q 19.09375 3.296875 14.796875 7.890625 
Q 10.5 12.5 8.140625 19.25 
Q 5.796875 26 5.796875 34.703125 
Q 5.796875 43.40625 8.4375 50.15625 
Q 11.09375 56.90625 15.59375 61.5 
Q 20.09375 66.09375 26.09375 68.5 
Q 32.09375 70.90625 38.90625 70.90625 
Q 43.203125 70.90625 46.640625 70.296875 
Q 50.09375 69.703125 52.640625 68.890625 
Q 55.203125 68.09375 56.796875 67.296875 
Q 58.40625 66.5 59 66.09375 
L 56.203125 58.09375 
Q 55.296875 58.703125 53.59375 59.390625 
Q 51.90625 60.09375 49.75 60.796875 
Q 47.59375 61.5 45.046875 61.953125 
Q 42.5 62.40625 39.90625 62.40625 
Q 34.40625 62.40625 30 60.5 
Q 25.59375 58.59375 22.5 55 
Q 19.40625 51.40625 17.75 46.25 
Q 16.09375 41.09375 16.09375 34.703125 
Q 16.09375 28.5 17.546875 23.390625 
Q 19 18.296875 21.890625 14.640625 
Q 24.796875 11 29.140625 9 
Q 33.5 7 39.296875 7 
Q 46 7 50.390625 8.390625 
Q 54.796875 9.796875 57 10.90625 
L 59.5 2.90625 
Q 58.796875 2.40625 57 1.65625 
Q 55.203125 0.90625 52.5 0.203125 
Q 49.796875 -0.5 46.1875 -1 
Q 42.59375 -1.5 38.40625 -1.5 
" id="Ubuntu-43"/>
      <path d="M 41.90625 22.296875 
Q 41.90625 17.296875 40.84375 13 
Q 39.796875 8.703125 37.140625 5.453125 
Q 34.5 2.203125 30.046875 0.34375 
Q 25.59375 -1.5 18.90625 -1.5 
Q 15.5 -1.5 12.640625 -0.953125 
Q 9.796875 -0.40625 7.5 0.4375 
Q 5.203125 1.296875 3.5 2.25 
Q 1.796875 3.203125 0.796875 4.09375 
L 4.59375 11.796875 
Q 6.703125 10.296875 10.046875 8.640625 
Q 13.40625 7 18.40625 7 
Q 25.59375 7 28.890625 10.640625 
Q 32.203125 14.296875 32.203125 23.203125 
L 32.203125 69.296875 
L 41.90625 69.296875 
z
" id="Ubuntu-4a"/>
      <path d="M 56.09375 0 
Q 53.90625 3.703125 51.046875 8.296875 
Q 48.203125 12.90625 44.890625 17.84375 
Q 41.59375 22.796875 38.046875 27.890625 
Q 34.5 33 31 37.75 
Q 27.5 42.5 24.203125 46.703125 
Q 20.90625 50.90625 18.09375 54.09375 
L 18.09375 0 
L 8.59375 0 
L 8.59375 69.296875 
L 16.296875 69.296875 
Q 21 64.296875 26.34375 57.640625 
Q 31.703125 51 36.953125 43.953125 
Q 42.203125 36.90625 46.84375 30.09375 
Q 51.5 23.296875 54.703125 18 
L 54.703125 69.296875 
L 64.203125 69.296875 
L 64.203125 0 
z
" id="Ubuntu-4e"/>
      <path d="M 39.703125 9.59375 
Q 38.703125 12 37.046875 15.703125 
Q 35.40625 19.40625 33.5 23.703125 
Q 31.59375 28 29.4375 32.546875 
Q 27.296875 37.09375 25.390625 41.140625 
Q 23.5 45.203125 21.84375 48.390625 
Q 20.203125 51.59375 19.203125 53.296875 
Q 18.09375 41.5 17.390625 27.75 
Q 16.703125 14 16.203125 0 
L 6.703125 0 
Q 7.09375 9 7.59375 18.140625 
Q 8.09375 27.296875 8.75 36.140625 
Q 9.40625 45 10.15625 53.390625 
Q 10.90625 61.796875 11.796875 69.296875 
L 20.296875 69.296875 
Q 23 64.90625 26.09375 58.90625 
Q 29.203125 52.90625 32.296875 46.34375 
Q 35.40625 39.796875 38.296875 33.25 
Q 41.203125 26.703125 43.59375 21.296875 
Q 46 26.703125 48.890625 33.25 
Q 51.796875 39.796875 54.890625 46.34375 
Q 58 52.90625 61.09375 58.90625 
Q 64.203125 64.90625 66.90625 69.296875 
L 75.40625 69.296875 
Q 78.796875 35.796875 80.5 0 
L 71 0 
Q 70.5 14 69.796875 27.75 
Q 69.09375 41.5 68 53.296875 
Q 67 51.59375 65.34375 48.390625 
Q 63.703125 45.203125 61.796875 41.140625 
Q 59.90625 37.09375 57.75 32.546875 
Q 55.59375 28 53.6875 23.703125 
Q 51.796875 19.40625 50.140625 15.703125 
Q 48.5 12 47.5 9.59375 
z
" id="Ubuntu-4d"/>
      <path d="M 53.90625 26 
Q 53.90625 19.796875 52.09375 14.796875 
Q 50.296875 9.796875 47.046875 6.1875 
Q 43.796875 2.59375 39.296875 0.640625 
Q 34.796875 -1.296875 29.5 -1.296875 
Q 24.203125 -1.296875 19.703125 0.640625 
Q 15.203125 2.59375 11.953125 6.1875 
Q 8.703125 9.796875 6.890625 14.796875 
Q 5.09375 19.796875 5.09375 26 
Q 5.09375 32.09375 6.890625 37.140625 
Q 8.703125 42.203125 11.953125 45.796875 
Q 15.203125 49.40625 19.703125 51.34375 
Q 24.203125 53.296875 29.5 53.296875 
Q 34.796875 53.296875 39.296875 51.34375 
Q 43.796875 49.40625 47.046875 45.796875 
Q 50.296875 42.203125 52.09375 37.140625 
Q 53.90625 32.09375 53.90625 26 
M 44.203125 26 
Q 44.203125 34.796875 40.25 39.9375 
Q 36.296875 45.09375 29.5 45.09375 
Q 22.703125 45.09375 18.75 39.9375 
Q 14.796875 34.796875 14.796875 26 
Q 14.796875 17.203125 18.75 12.046875 
Q 22.703125 6.90625 29.5 6.90625 
Q 36.296875 6.90625 40.25 12.046875 
Q 44.203125 17.203125 44.203125 26 
" id="Ubuntu-6f"/>
      <path d="M 54.90625 69.296875 
L 54.90625 60.90625 
L 33.09375 60.90625 
L 33.09375 0 
L 23.40625 0 
L 23.40625 60.90625 
L 1.59375 60.90625 
L 1.59375 69.296875 
z
" id="Ubuntu-54"/>
      <path d="M 54.90625 0 
Q 53.203125 4.5 51.703125 8.84375 
Q 50.203125 13.203125 48.59375 17.703125 
L 17.203125 17.703125 
L 10.90625 0 
L 0.796875 0 
Q 4.796875 11 8.296875 20.34375 
Q 11.796875 29.703125 15.140625 38.09375 
Q 18.5 46.5 21.796875 54.140625 
Q 25.09375 61.796875 28.703125 69.296875 
L 37.59375 69.296875 
Q 41.203125 61.796875 44.5 54.140625 
Q 47.796875 46.5 51.140625 38.09375 
Q 54.5 29.703125 58 20.34375 
Q 61.5 11 65.5 0 
z
M 45.796875 25.703125 
Q 42.59375 34.40625 39.4375 42.546875 
Q 36.296875 50.703125 32.90625 58.203125 
Q 29.40625 50.703125 26.25 42.546875 
Q 23.09375 34.40625 20 25.703125 
z
" id="Ubuntu-41"/>
      <path d="M 8 0 
L 8 76 
L 17.296875 77.59375 
L 17.296875 51 
Q 19.90625 52 22.84375 52.546875 
Q 25.796875 53.09375 28.703125 53.09375 
Q 34.90625 53.09375 39 51.34375 
Q 43.09375 49.59375 45.546875 46.4375 
Q 48 43.296875 49 38.890625 
Q 50 34.5 50 29.203125 
L 50 0 
L 40.703125 0 
L 40.703125 27.203125 
Q 40.703125 32 40.046875 35.390625 
Q 39.40625 38.796875 37.90625 40.890625 
Q 36.40625 43 33.90625 43.953125 
Q 31.40625 44.90625 27.703125 44.90625 
Q 26.203125 44.90625 24.59375 44.703125 
Q 23 44.5 21.546875 44.25 
Q 20.09375 44 18.9375 43.703125 
Q 17.796875 43.40625 17.296875 43.203125 
L 17.296875 0 
z
" id="Ubuntu-68"/>
      <path d="M 40.59375 5.203125 
Q 39.40625 4.40625 35.953125 3.15625 
Q 32.5 1.90625 27.90625 1.90625 
Q 23.203125 1.90625 19.046875 3.40625 
Q 14.90625 4.90625 11.796875 8.046875 
Q 8.703125 11.203125 6.890625 15.890625 
Q 5.09375 20.59375 5.09375 27.09375 
Q 5.09375 32.796875 6.796875 37.546875 
Q 8.5 42.296875 11.75 45.75 
Q 15 49.203125 19.703125 51.140625 
Q 24.40625 53.09375 30.296875 53.09375 
Q 36.796875 53.09375 41.640625 52.140625 
Q 46.5 51.203125 49.796875 50.40625 
L 49.796875 4 
Q 49.796875 -8 43.59375 -13.390625 
Q 37.40625 -18.796875 24.796875 -18.796875 
Q 19.90625 -18.796875 15.546875 -18 
Q 11.203125 -17.203125 8 -16.09375 
L 9.703125 -8 
Q 12.5 -9.09375 16.546875 -9.9375 
Q 20.59375 -10.796875 25 -10.796875 
Q 33.296875 -10.796875 36.9375 -7.5 
Q 40.59375 -4.203125 40.59375 3 
z
M 40.5 43.796875 
Q 39.09375 44.203125 36.75 44.546875 
Q 34.40625 44.90625 30.40625 44.90625 
Q 22.90625 44.90625 18.84375 40 
Q 14.796875 35.09375 14.796875 27 
Q 14.796875 22.5 15.9375 19.296875 
Q 17.09375 16.09375 19.046875 14 
Q 21 11.90625 23.546875 10.90625 
Q 26.09375 9.90625 28.796875 9.90625 
Q 32.5 9.90625 35.59375 10.953125 
Q 38.703125 12 40.5 13.40625 
z
" id="Ubuntu-67"/>
      <path d="M 20.09375 6.703125 
Q 25.796875 6.703125 28.546875 8.203125 
Q 31.296875 9.703125 31.296875 13 
Q 31.296875 16.40625 28.59375 18.40625 
Q 25.90625 20.40625 19.703125 22.90625 
Q 16.703125 24.09375 13.953125 25.34375 
Q 11.203125 26.59375 9.203125 28.296875 
Q 7.203125 30 6 32.390625 
Q 4.796875 34.796875 4.796875 38.296875 
Q 4.796875 45.203125 9.890625 49.25 
Q 15 53.296875 23.796875 53.296875 
Q 26 53.296875 28.203125 53.046875 
Q 30.40625 52.796875 32.296875 52.4375 
Q 34.203125 52.09375 35.640625 51.6875 
Q 37.09375 51.296875 37.90625 51 
L 36.203125 43 
Q 34.703125 43.796875 31.5 44.640625 
Q 28.296875 45.5 23.796875 45.5 
Q 19.90625 45.5 17 43.953125 
Q 14.09375 42.40625 14.09375 39.09375 
Q 14.09375 37.40625 14.75 36.09375 
Q 15.40625 34.796875 16.75 33.75 
Q 18.09375 32.703125 20.09375 31.796875 
Q 22.09375 30.90625 24.90625 29.90625 
Q 28.59375 28.5 31.5 27.140625 
Q 34.40625 25.796875 36.453125 24 
Q 38.5 22.203125 39.59375 19.640625 
Q 40.703125 17.09375 40.703125 13.40625 
Q 40.703125 6.203125 35.34375 2.5 
Q 30 -1.203125 20.09375 -1.203125 
Q 13.203125 -1.203125 9.296875 -0.046875 
Q 5.40625 1.09375 4 1.703125 
L 5.703125 9.703125 
Q 7.296875 9.09375 10.796875 7.890625 
Q 14.296875 6.703125 20.09375 6.703125 
" id="Ubuntu-73"/>
     </defs>
     <g transform="translate(112.28 70.753125)scale(0.14 -0.14)">
      <use xlink:href="#Ubuntu-4e"/>
      <use x="72.799987793" xlink:href="#Ubuntu-41"/>
      <use x="139.006225586" xlink:href="#Ubuntu-54"/>
      <use x="195.506210327" xlink:href="#Ubuntu-4c"/>
      <use x="247.406204224" xlink:href="#Ubuntu-36"/>
      <use x="303.80619812" xlink:href="#Ubuntu-30"/>
      <use x="360.206192017" xlink:href="#Ubuntu-2d"/>
      <use x="390.106185913" xlink:href="#Ubuntu-43"/>
      <use x="452.137420654" xlink:href="#Ubuntu-4a"/>
      <use x="502.137405396" xlink:href="#Ubuntu-4d"/>
      <use x="589.23739624" xlink:href="#Ubuntu-31"/>
      <use x="645.637390137" xlink:href="#Ubuntu-36"/>
      <use x="702.037384033" xlink:href="#Ubuntu-35"/>
      <use x="758.43737793" xlink:href="#Ubuntu-20"/>
      <use x="781.537368774" xlink:href="#Ubuntu-28"/>
      <use x="813.937362671" xlink:href="#Ubuntu-22"/>
      <use x="855.737350464" xlink:href="#Ubuntu-73"/>
      <use x="900.337341309" xlink:href="#Ubuntu-6f"/>
      <use x="959.33732605" xlink:href="#Ubuntu-73"/>
      <use x="1003.93731689" xlink:href="#Ubuntu-73"/>
      <use x="1048.53730774" xlink:href="#Ubuntu-68"/>
      <use x="1105.63729858" xlink:href="#Ubuntu-65"/>
      <use x="1161.53729248" xlink:href="#Ubuntu-69"/>
      <use x="1186.83728027" xlink:href="#Ubuntu-67"/>
      <use x="1244.63726807" xlink:href="#Ubuntu-22"/>
      <use x="1286.43725586" xlink:href="#Ubuntu-29"/>
     </g>
    </g>
   </g>
   <g id="line2d_60">
    <path clip-path="url(#padd3838f8a)" d="M 60.47998 276.984115 
L 76.772583 306.000571 
L 82.20343 291.492343 
L 87.634338 288.0968 
L 93.065125 311.8656 
L 98.495972 314.026399 
L 103.92688 306.309257 
L 109.357727 309.087429 
L 114.788574 309.7048 
L 120.219421 303.531086 
L 125.65033 305.3832 
L 131.081177 315.569829 
L 136.512024 320.817485 
L 141.942871 319.274058 
L 147.373718 316.187199 
L 152.804565 318.965372 
L 158.235413 331.004114 
L 163.666321 333.4736 
L 169.097168 324.213028 
L 174.528015 314.643772 
L 179.958862 321.743542 
L 185.389771 325.447773 
L 190.820557 326.9912 
L 196.251404 318.656685 
L 201.682312 329.460687 
L 207.113159 326.682514 
L 212.544006 322.052228 
L 217.974854 324.521714 
L 223.405762 328.225941 
L 228.836548 327.608573 
L 234.267456 321.434858 
L 239.698303 322.052228 
L 245.12915 323.595658 
L 250.559998 332.547541 
L 255.990845 341.808113 
L 261.421753 338.412572 
L 266.852539 337.486513 
L 272.283447 342.116799 
L 277.714294 333.782286 
L 283.145142 334.090972 
L 288.575989 336.251772 
L 294.006836 315.569829 
L 299.437744 314.335086 
L 304.86853 310.939543 
L 310.299438 308.16137 
L 315.730286 304.765829 
L 321.161133 303.531086 
L 326.59198 314.026399 
L 332.022888 314.643772 
L 337.453735 313.100343 
L 342.884521 319.582742 
L 348.31543 327.608573 
L 353.746277 332.856227 
L 364.607971 337.177827 
L 380.900574 351.068684 
L 386.331421 346.747085 
L 391.762268 333.782286 
L 397.193115 338.103886 
L 402.623962 338.103886 
L 408.054871 353.53817 
L 413.485718 356.625029 
L 418.916565 346.129712 
L 424.347412 356.316343 
L 429.77832 352.30343 
L 435.209106 351.994743 
L 440.639954 348.290516 
L 446.070862 341.499431 
L 451.501709 339.338626 
L 456.932556 342.734172 
L 462.363403 341.499431 
L 467.794312 335.6344 
L 473.225098 334.090972 
L 478.656006 326.373828 
L 484.086853 316.495886 
L 489.5177 321.434858 
L 494.948547 314.952456 
L 500.379395 311.248229 
L 505.810303 330.386741 
L 511.241089 332.238859 
L 516.671997 325.756455 
L 522.102844 314.643772 
L 527.533752 324.521714 
L 532.964539 328.225941 
L 538.395386 318.965372 
L 543.826294 302.913714 
L 549.257141 296.74 
L 554.687988 292.4184 
L 560.118835 293.961829 
L 565.549744 282.849143 
L 570.98053 270.8104 
L 576.411438 247.967656 
L 581.842285 232.842055 
L 587.273132 226.359656 
L 592.703979 220.803316 
L 598.134827 220.494629 
L 603.565735 211.234058 
L 608.996521 221.112002 
L 614.427429 219.56857 
L 619.858276 226.668342 
L 625.289124 239.633141 
L 630.719971 245.806859 
L 636.150818 271.427772 
L 641.581726 295.505257 
L 647.012512 317.421942 
L 652.44342 336.560459 
L 657.874268 341.499431 
L 663.305115 334.399659 
L 668.735962 333.164913 
L 674.16687 326.373828 
L 679.597717 335.017027 
L 685.028503 357.551084 
L 690.459412 347.055771 
L 695.890259 293.344457 
L 701.321106 264.636686 
L 706.751953 245.806859 
L 712.182861 243.954741 
L 728.475403 215.246971 
L 733.90625 207.838517 
L 739.337097 203.825599 
L 744.767944 213.086171 
L 750.198853 202.282172 
L 755.6297 193.638973 
L 782.783936 178.204684 
L 788.214844 199.195318 
L 799.076538 192.404228 
L 820.799988 180.674174 
L 820.799988 180.674174 
" style="fill:none;stroke:#091459;stroke-linecap:square;stroke-width:2.0;"/>
   </g>
   <g id="line2d_61">
    <path clip-path="url(#padd3838f8a)" d="M 60.47998 329.716972 
L 76.772583 325.291643 
L 82.20343 322.309395 
L 87.634338 321.808093 
L 93.065125 321.673782 
L 103.92688 320.084819 
L 109.357727 319.598823 
L 114.788574 317.878638 
L 120.219421 317.95019 
L 125.65033 317.772781 
L 131.081177 317.464534 
L 136.512024 317.654222 
L 141.942871 318.080628 
L 147.373718 318.665535 
L 152.804565 319.115557 
L 158.235413 318.954118 
L 169.097168 321.161942 
L 174.528015 320.277471 
L 179.958862 320.118287 
L 190.820557 322.10326 
L 196.251404 322.2059 
L 201.682312 321.479664 
L 207.113159 320.985296 
L 212.544006 320.312273 
L 217.974854 319.444036 
L 223.405762 317.879935 
L 228.836548 316.619272 
L 234.267456 315.812495 
L 239.698303 316.508367 
L 245.12915 316.971643 
L 250.559998 316.823341 
L 255.990845 317.29055 
L 261.421753 317.290777 
L 266.852539 317.762303 
L 272.283447 317.907179 
L 283.145142 318.841488 
L 288.575989 318.754253 
L 294.006836 315.236895 
L 299.437744 313.263074 
L 304.86853 312.492616 
L 310.299438 312.632247 
L 315.730286 311.622554 
L 321.161133 310.873702 
L 326.59198 311.703757 
L 332.022888 312.681202 
L 337.453735 311.123214 
L 342.884521 311.835499 
L 348.31543 314.429784 
L 353.746277 316.571982 
L 359.177124 319.599626 
L 364.607971 321.779974 
L 370.038879 323.613128 
L 375.469727 324.654119 
L 380.900574 325.863368 
L 386.331421 327.667524 
L 391.762268 328.591817 
L 397.193115 328.322288 
L 402.623962 327.716709 
L 408.054871 326.980543 
L 413.485718 326.96195 
L 418.916565 325.390037 
L 424.347412 324.864112 
L 429.77832 324.795672 
L 435.209106 324.071792 
L 440.639954 323.7569 
L 446.070862 324.204914 
L 451.501709 324.062406 
L 456.932556 323.080018 
L 462.363403 321.013626 
L 467.794312 317.011737 
L 473.225098 307.089547 
L 478.656006 295.413261 
L 489.5177 280.916311 
L 494.948547 275.414181 
L 500.379395 266.541058 
L 505.810303 257.313269 
L 511.241089 253.122719 
L 516.671997 254.337129 
L 527.533752 267.689805 
L 532.964539 276.410923 
L 538.395386 287.575575 
L 543.826294 300.293658 
L 549.257141 312.151959 
L 554.687988 322.005071 
L 560.118835 331.260832 
L 565.549744 339.154258 
L 570.98053 345.981544 
L 576.411438 352.181816 
L 587.273132 363.846263 
L 592.703979 369.247402 
L 598.134827 373.652083 
L 603.565735 377.173956 
L 608.996521 378.667273 
L 619.858276 379.973288 
L 625.289124 379.737788 
L 630.719971 378.04911 
L 636.150818 374.05506 
L 641.581726 367.259296 
L 647.012512 358.557846 
L 652.44342 351.311746 
L 657.874268 346.458196 
L 663.305115 342.335104 
L 668.735962 337.529006 
L 674.16687 331.856434 
L 685.028503 314.117677 
L 690.459412 307.372504 
L 695.890259 295.038062 
L 701.321106 275.524848 
L 712.182861 219.693224 
L 728.475403 154.740704 
L 733.90625 138.614194 
L 744.767944 111.623199 
L 750.198853 99.684886 
L 755.6297 88.6041 
L 782.783936 68.614837 
L 788.214844 68.897429 
L 799.076538 65.638561 
L 820.799988 68.86834 
L 820.799988 68.86834 
" style="fill:none;stroke:#ed7c4c;stroke-linecap:square;stroke-width:2.0;"/>
   </g>
  </g>
 </g>
 <defs>
  <clipPath id="padd3838f8a">
   <rect height="388.944" width="760.32" x="60.48" y="26.64"/>
  </clipPath>
 </defs>
</svg>
