<?xml version="1.0" encoding="utf-8" standalone="no"?>
<!DOCTYPE svg PUBLIC "-//W3C//DTD SVG 1.1//EN"
  "http://www.w3.org/Graphics/SVG/1.1/DTD/svg11.dtd">
<!-- Created with matplotlib (http://matplotlib.org/) -->
<svg height="532pt" version="1.1" viewBox="0 0 864 532" width="864pt" xmlns="http://www.w3.org/2000/svg" xmlns:xlink="http://www.w3.org/1999/xlink">
 <defs>
  <style type="text/css">
*{stroke-linecap:butt;stroke-linejoin:round;stroke-miterlimit:100000;}
  </style>
 </defs>
 <g id="figure_1">
  <g id="patch_1">
   <path d="M 0 532.8 
L 864 532.8 
L 864 0 
L 0 0 
z
" style="fill:#ffffff;"/>
  </g>
  <g id="axes_1">
   <g id="patch_2">
    <path d="M 60.48 415.584 
L 820.8 415.584 
L 820.8 26.64 
L 60.48 26.64 
z
" style="fill:#ffffff;"/>
   </g>
   <g id="line2d_1">
    <path clip-path="url(#p1479e4a638)" d="M 60.480011 104.4288 
L 820.800018 104.4288 
L 820.800018 104.4288 
" style="fill:none;stroke:#000000;stroke-linecap:square;stroke-width:2.0;"/>
   </g>
   <g id="patch_3">
    <path d="M 60.480011 26.64 
L 820.800018 26.64 
" style="fill:none;stroke:#000000;stroke-linecap:square;stroke-linejoin:miter;"/>
   </g>
   <g id="patch_4">
    <path d="M 820.8 415.584 
L 820.8 26.64 
" style="fill:none;stroke:#000000;stroke-linecap:square;stroke-linejoin:miter;"/>
   </g>
   <g id="patch_5">
    <path d="M 60.480011 415.584 
L 820.800018 415.584 
" style="fill:none;stroke:#000000;stroke-linecap:square;stroke-linejoin:miter;"/>
   </g>
   <g id="patch_6">
    <path d="M 60.48 415.584 
L 60.48 26.64 
" style="fill:none;stroke:#000000;stroke-linecap:square;stroke-linejoin:miter;"/>
   </g>
   <g id="matplotlib.axis_1">
    <g id="xtick_1">
     <g id="line2d_2">
      <path clip-path="url(#p1479e4a638)" d="M 60.480011 415.584 
L 60.480011 26.64 
" style="fill:none;stroke:#000000;stroke-linecap:square;stroke-width:0.3;"/>
     </g>
     <g id="line2d_3">
      <defs>
       <path d="M 0 0 
L 0 -4 
" id="mbd2a6da3c8" style="stroke:#000000;stroke-width:0.5;"/>
      </defs>
      <g>
       <use style="stroke:#000000;stroke-width:0.5;" x="60.4800109863" xlink:href="#mbd2a6da3c8" y="415.584"/>
      </g>
     </g>
     <g id="line2d_4">
      <defs>
       <path d="M 0 0 
L 0 4 
" id="m9660c76e46" style="stroke:#000000;stroke-width:0.5;"/>
      </defs>
      <g>
       <use style="stroke:#000000;stroke-width:0.5;" x="60.4800109863" xlink:href="#m9660c76e46" y="26.64"/>
      </g>
     </g>
     <g id="text_1">
      <!-- 2017-04-02 22:02:15 -->
      <defs>
       <path d="M 46.703125 51.59375 
Q 46.703125 48 45.25 44.640625 
Q 43.796875 41.296875 41.390625 38.046875 
Q 39 34.796875 36 31.640625 
Q 33 28.5 30 25.5 
Q 28.296875 23.796875 26.046875 21.5 
Q 23.796875 19.203125 21.796875 16.703125 
Q 19.796875 14.203125 18.4375 11.890625 
Q 17.09375 9.59375 17.09375 7.90625 
L 49 7.90625 
L 49 0 
L 7 0 
Q 6.90625 0.59375 6.90625 1.1875 
Q 6.90625 1.796875 6.90625 2.296875 
Q 6.90625 7 8.453125 11.046875 
Q 10 15.09375 12.5 18.6875 
Q 15 22.296875 18.09375 25.5 
Q 21.203125 28.703125 24.203125 31.703125 
Q 26.703125 34.09375 28.953125 36.4375 
Q 31.203125 38.796875 32.953125 41.140625 
Q 34.703125 43.5 35.75 46 
Q 36.796875 48.5 36.796875 51.296875 
Q 36.796875 54.296875 35.84375 56.390625 
Q 34.90625 58.5 33.296875 59.890625 
Q 31.703125 61.296875 29.546875 61.9375 
Q 27.40625 62.59375 25 62.59375 
Q 22.09375 62.59375 19.6875 61.796875 
Q 17.296875 61 15.390625 59.953125 
Q 13.5 58.90625 12.203125 57.75 
Q 10.90625 56.59375 10.203125 56 
L 5.59375 62.59375 
Q 6.5 63.59375 8.296875 65.046875 
Q 10.09375 66.5 12.59375 67.796875 
Q 15.09375 69.09375 18.1875 70 
Q 21.296875 70.90625 24.90625 70.90625 
Q 35.796875 70.90625 41.25 65.84375 
Q 46.703125 60.796875 46.703125 51.59375 
" id="Ubuntu-32"/>
       <path id="Ubuntu-20"/>
       <path d="M 5 34.703125 
Q 5 52.09375 11.140625 61.5 
Q 17.296875 70.90625 28.203125 70.90625 
Q 39.09375 70.90625 45.25 61.5 
Q 51.40625 52.09375 51.40625 34.703125 
Q 51.40625 17.296875 45.25 7.890625 
Q 39.09375 -1.5 28.203125 -1.5 
Q 17.296875 -1.5 11.140625 7.890625 
Q 5 17.296875 5 34.703125 
M 41.59375 34.703125 
Q 41.59375 40.40625 40.9375 45.5 
Q 40.296875 50.59375 38.75 54.390625 
Q 37.203125 58.203125 34.59375 60.453125 
Q 32 62.703125 28.203125 62.703125 
Q 24.40625 62.703125 21.796875 60.453125 
Q 19.203125 58.203125 17.640625 54.390625 
Q 16.09375 50.59375 15.4375 45.5 
Q 14.796875 40.40625 14.796875 34.703125 
Q 14.796875 29 15.4375 23.890625 
Q 16.09375 18.796875 17.640625 15 
Q 19.203125 11.203125 21.796875 8.953125 
Q 24.40625 6.703125 28.203125 6.703125 
Q 32 6.703125 34.59375 8.953125 
Q 37.203125 11.203125 38.75 15 
Q 40.296875 18.796875 40.9375 23.890625 
Q 41.59375 29 41.59375 34.703125 
" id="Ubuntu-30"/>
       <path d="M 9.296875 55 
Q 15 57.203125 20.390625 60.640625 
Q 25.796875 64.09375 30.296875 69.296875 
L 36.90625 69.296875 
L 36.90625 0 
L 27.59375 0 
L 27.59375 56.40625 
Q 26.40625 55.296875 24.65625 54.09375 
Q 22.90625 52.90625 20.84375 51.796875 
Q 18.796875 50.703125 16.546875 49.703125 
Q 14.296875 48.703125 12.203125 48 
z
" id="Ubuntu-31"/>
       <path d="M 16.296875 0 
Q 16.90625 8 19.15625 16.84375 
Q 21.40625 25.703125 24.703125 34.046875 
Q 28 42.40625 31.953125 49.546875 
Q 35.90625 56.703125 39.703125 61.203125 
L 6 61.203125 
L 6 69.296875 
L 50.09375 69.296875 
L 50.09375 61.59375 
Q 46.796875 57.796875 42.796875 51.140625 
Q 38.796875 44.5 35.25 36.25 
Q 31.703125 28 29.140625 18.640625 
Q 26.59375 9.296875 26 0 
z
" id="Ubuntu-37"/>
       <path d="M 4 24 
Q 5.90625 28.40625 9.203125 34.25 
Q 12.5 40.09375 16.640625 46.296875 
Q 20.796875 52.5 25.546875 58.5 
Q 30.296875 64.5 35.09375 69.296875 
L 44 69.296875 
L 44 25.296875 
L 52.203125 25.296875 
L 52.203125 17.703125 
L 44 17.703125 
L 44 0 
L 35 0 
L 35 17.703125 
L 4 17.703125 
z
M 35 58.296875 
Q 32 55.09375 28.953125 51.140625 
Q 25.90625 47.203125 23 42.890625 
Q 20.09375 38.59375 17.546875 34.09375 
Q 15 29.59375 13 25.296875 
L 35 25.296875 
z
" id="Ubuntu-34"/>
       <path d="M 19.90625 42.59375 
Q 35 42 42.046875 36 
Q 49.09375 30 49.09375 19.703125 
Q 49.09375 15.09375 47.546875 11.1875 
Q 46 7.296875 42.84375 4.5 
Q 39.703125 1.703125 34.890625 0.09375 
Q 30.09375 -1.5 23.5 -1.5 
Q 20.90625 -1.5 18.203125 -1.09375 
Q 15.5 -0.703125 13.203125 -0.09375 
Q 10.90625 0.5 9.09375 1.09375 
Q 7.296875 1.703125 6.5 2.09375 
L 8.296875 10.203125 
Q 10 9.40625 13.84375 8.09375 
Q 17.703125 6.796875 23.296875 6.796875 
Q 27.796875 6.796875 30.84375 7.796875 
Q 33.90625 8.796875 35.796875 10.5 
Q 37.703125 12.203125 38.546875 14.453125 
Q 39.40625 16.703125 39.40625 19.203125 
Q 39.40625 23 38.09375 25.953125 
Q 36.796875 28.90625 33.5 30.90625 
Q 30.203125 32.90625 24.703125 33.953125 
Q 19.203125 35 10.796875 35 
Q 11.40625 39.90625 11.75 44.203125 
Q 12.09375 48.5 12.390625 52.59375 
Q 12.703125 56.703125 12.890625 60.75 
Q 13.09375 64.796875 13.296875 69.296875 
L 46.703125 69.296875 
L 46.703125 61.40625 
L 21.40625 61.40625 
Q 21.296875 59.90625 21.09375 57.34375 
Q 20.90625 54.796875 20.703125 52.046875 
Q 20.5 49.296875 20.296875 46.6875 
Q 20.09375 44.09375 19.90625 42.59375 
" id="Ubuntu-35"/>
       <path d="M 19 5.40625 
Q 19 2.703125 17.203125 0.703125 
Q 15.40625 -1.296875 12.296875 -1.296875 
Q 9.203125 -1.296875 7.390625 0.703125 
Q 5.59375 2.703125 5.59375 5.40625 
Q 5.59375 8.09375 7.390625 10.09375 
Q 9.203125 12.09375 12.296875 12.09375 
Q 15.40625 12.09375 17.203125 10.09375 
Q 19 8.09375 19 5.40625 
M 19 45.40625 
Q 19 42.703125 17.203125 40.703125 
Q 15.40625 38.703125 12.296875 38.703125 
Q 9.203125 38.703125 7.390625 40.703125 
Q 5.59375 42.703125 5.59375 45.40625 
Q 5.59375 48.09375 7.390625 50.09375 
Q 9.203125 52.09375 12.296875 52.09375 
Q 15.40625 52.09375 17.203125 50.09375 
Q 19 48.09375 19 45.40625 
" id="Ubuntu-3a"/>
       <path d="M 2.59375 34.296875 
L 27.296875 34.296875 
L 27.296875 25.59375 
L 2.59375 25.59375 
z
" id="Ubuntu-2d"/>
      </defs>
      <g transform="translate(33.8486051271 528.40477105)rotate(-60.0)scale(0.13 -0.13)">
       <use xlink:href="#Ubuntu-32"/>
       <use x="56.3999938965" xlink:href="#Ubuntu-30"/>
       <use x="112.799987793" xlink:href="#Ubuntu-31"/>
       <use x="169.199981689" xlink:href="#Ubuntu-37"/>
       <use x="225.599975586" xlink:href="#Ubuntu-2d"/>
       <use x="255.499969482" xlink:href="#Ubuntu-30"/>
       <use x="311.899963379" xlink:href="#Ubuntu-34"/>
       <use x="368.299957275" xlink:href="#Ubuntu-2d"/>
       <use x="398.199951172" xlink:href="#Ubuntu-30"/>
       <use x="454.599945068" xlink:href="#Ubuntu-32"/>
       <use x="510.999938965" xlink:href="#Ubuntu-20"/>
       <use x="534.09992981" xlink:href="#Ubuntu-32"/>
       <use x="590.499923706" xlink:href="#Ubuntu-32"/>
       <use x="646.899917603" xlink:href="#Ubuntu-3a"/>
       <use x="671.499908447" xlink:href="#Ubuntu-30"/>
       <use x="727.899902344" xlink:href="#Ubuntu-32"/>
       <use x="784.29989624" xlink:href="#Ubuntu-3a"/>
       <use x="808.899887085" xlink:href="#Ubuntu-31"/>
       <use x="865.299880981" xlink:href="#Ubuntu-35"/>
      </g>
     </g>
    </g>
    <g id="xtick_2">
     <g id="line2d_5">
      <path clip-path="url(#p1479e4a638)" d="M 125.837036 415.584 
L 125.837036 26.64 
" style="fill:none;stroke:#000000;stroke-linecap:square;stroke-width:0.3;"/>
     </g>
     <g id="line2d_6">
      <g>
       <use style="stroke:#000000;stroke-width:0.5;" x="125.837036133" xlink:href="#mbd2a6da3c8" y="415.584"/>
      </g>
     </g>
     <g id="line2d_7">
      <g>
       <use style="stroke:#000000;stroke-width:0.5;" x="125.837036133" xlink:href="#m9660c76e46" y="26.64"/>
      </g>
     </g>
     <g id="text_2">
      <!-- 2017-04-02 22:02:45 -->
      <g transform="translate(99.2056302736 528.40477105)rotate(-60.0)scale(0.13 -0.13)">
       <use xlink:href="#Ubuntu-32"/>
       <use x="56.3999938965" xlink:href="#Ubuntu-30"/>
       <use x="112.799987793" xlink:href="#Ubuntu-31"/>
       <use x="169.199981689" xlink:href="#Ubuntu-37"/>
       <use x="225.599975586" xlink:href="#Ubuntu-2d"/>
       <use x="255.499969482" xlink:href="#Ubuntu-30"/>
       <use x="311.899963379" xlink:href="#Ubuntu-34"/>
       <use x="368.299957275" xlink:href="#Ubuntu-2d"/>
       <use x="398.199951172" xlink:href="#Ubuntu-30"/>
       <use x="454.599945068" xlink:href="#Ubuntu-32"/>
       <use x="510.999938965" xlink:href="#Ubuntu-20"/>
       <use x="534.09992981" xlink:href="#Ubuntu-32"/>
       <use x="590.499923706" xlink:href="#Ubuntu-32"/>
       <use x="646.899917603" xlink:href="#Ubuntu-3a"/>
       <use x="671.499908447" xlink:href="#Ubuntu-30"/>
       <use x="727.899902344" xlink:href="#Ubuntu-32"/>
       <use x="784.29989624" xlink:href="#Ubuntu-3a"/>
       <use x="808.899887085" xlink:href="#Ubuntu-34"/>
       <use x="865.299880981" xlink:href="#Ubuntu-35"/>
      </g>
     </g>
    </g>
    <g id="xtick_3">
     <g id="line2d_8">
      <path clip-path="url(#p1479e4a638)" d="M 191.194031 415.584 
L 191.194031 26.64 
" style="fill:none;stroke:#000000;stroke-linecap:square;stroke-width:0.3;"/>
     </g>
     <g id="line2d_9">
      <g>
       <use style="stroke:#000000;stroke-width:0.5;" x="191.194030762" xlink:href="#mbd2a6da3c8" y="415.584"/>
      </g>
     </g>
     <g id="line2d_10">
      <g>
       <use style="stroke:#000000;stroke-width:0.5;" x="191.194030762" xlink:href="#m9660c76e46" y="26.64"/>
      </g>
     </g>
     <g id="text_3">
      <!-- 2017-04-02 22:03:15 -->
      <defs>
       <path d="M 22.59375 6.796875 
Q 31.5 6.796875 35.34375 10.296875 
Q 39.203125 13.796875 39.203125 19.703125 
Q 39.203125 23.5 37.59375 26.09375 
Q 36 28.703125 33.390625 30.25 
Q 30.796875 31.796875 27.34375 32.4375 
Q 23.90625 33.09375 20.296875 33.09375 
L 17.90625 33.09375 
L 17.90625 40.703125 
L 21.203125 40.703125 
Q 23.703125 40.703125 26.34375 41.203125 
Q 29 41.703125 31.203125 43 
Q 33.40625 44.296875 34.796875 46.546875 
Q 36.203125 48.796875 36.203125 52.203125 
Q 36.203125 55 35.203125 57 
Q 34.203125 59 32.546875 60.296875 
Q 30.90625 61.59375 28.75 62.140625 
Q 26.59375 62.703125 24.203125 62.703125 
Q 19.40625 62.703125 16.046875 61.296875 
Q 12.703125 59.90625 10.40625 58.40625 
L 6.796875 65.5 
Q 8 66.296875 9.84375 67.25 
Q 11.703125 68.203125 14 69 
Q 16.296875 69.796875 18.9375 70.34375 
Q 21.59375 70.90625 24.5 70.90625 
Q 30 70.90625 34 69.546875 
Q 38 68.203125 40.59375 65.75 
Q 43.203125 63.296875 44.5 59.9375 
Q 45.796875 56.59375 45.796875 52.703125 
Q 45.796875 47.296875 42.6875 43.4375 
Q 39.59375 39.59375 35.203125 37.59375 
Q 37.90625 36.796875 40.40625 35.296875 
Q 42.90625 33.796875 44.75 31.5 
Q 46.59375 29.203125 47.75 26.203125 
Q 48.90625 23.203125 48.90625 19.5 
Q 48.90625 15 47.34375 11.140625 
Q 45.796875 7.296875 42.546875 4.5 
Q 39.296875 1.703125 34.390625 0.09375 
Q 29.5 -1.5 22.796875 -1.5 
Q 20.203125 -1.5 17.453125 -1.09375 
Q 14.703125 -0.703125 12.296875 -0.09375 
Q 9.90625 0.5 8.09375 1.09375 
Q 6.296875 1.703125 5.5 2.09375 
L 7.296875 10.203125 
Q 9 9.40625 12.953125 8.09375 
Q 16.90625 6.796875 22.59375 6.796875 
" id="Ubuntu-33"/>
      </defs>
      <g transform="translate(164.562624903 528.40477105)rotate(-60.0)scale(0.13 -0.13)">
       <use xlink:href="#Ubuntu-32"/>
       <use x="56.3999938965" xlink:href="#Ubuntu-30"/>
       <use x="112.799987793" xlink:href="#Ubuntu-31"/>
       <use x="169.199981689" xlink:href="#Ubuntu-37"/>
       <use x="225.599975586" xlink:href="#Ubuntu-2d"/>
       <use x="255.499969482" xlink:href="#Ubuntu-30"/>
       <use x="311.899963379" xlink:href="#Ubuntu-34"/>
       <use x="368.299957275" xlink:href="#Ubuntu-2d"/>
       <use x="398.199951172" xlink:href="#Ubuntu-30"/>
       <use x="454.599945068" xlink:href="#Ubuntu-32"/>
       <use x="510.999938965" xlink:href="#Ubuntu-20"/>
       <use x="534.09992981" xlink:href="#Ubuntu-32"/>
       <use x="590.499923706" xlink:href="#Ubuntu-32"/>
       <use x="646.899917603" xlink:href="#Ubuntu-3a"/>
       <use x="671.499908447" xlink:href="#Ubuntu-30"/>
       <use x="727.899902344" xlink:href="#Ubuntu-33"/>
       <use x="784.29989624" xlink:href="#Ubuntu-3a"/>
       <use x="808.899887085" xlink:href="#Ubuntu-31"/>
       <use x="865.299880981" xlink:href="#Ubuntu-35"/>
      </g>
     </g>
    </g>
    <g id="xtick_4">
     <g id="line2d_11">
      <path clip-path="url(#p1479e4a638)" d="M 256.551086 415.584 
L 256.551086 26.64 
" style="fill:none;stroke:#000000;stroke-linecap:square;stroke-width:0.3;"/>
     </g>
     <g id="line2d_12">
      <g>
       <use style="stroke:#000000;stroke-width:0.5;" x="256.551086426" xlink:href="#mbd2a6da3c8" y="415.584"/>
      </g>
     </g>
     <g id="line2d_13">
      <g>
       <use style="stroke:#000000;stroke-width:0.5;" x="256.551086426" xlink:href="#m9660c76e46" y="26.64"/>
      </g>
     </g>
     <g id="text_4">
      <!-- 2017-04-02 22:03:45 -->
      <g transform="translate(229.919680567 528.40477105)rotate(-60.0)scale(0.13 -0.13)">
       <use xlink:href="#Ubuntu-32"/>
       <use x="56.3999938965" xlink:href="#Ubuntu-30"/>
       <use x="112.799987793" xlink:href="#Ubuntu-31"/>
       <use x="169.199981689" xlink:href="#Ubuntu-37"/>
       <use x="225.599975586" xlink:href="#Ubuntu-2d"/>
       <use x="255.499969482" xlink:href="#Ubuntu-30"/>
       <use x="311.899963379" xlink:href="#Ubuntu-34"/>
       <use x="368.299957275" xlink:href="#Ubuntu-2d"/>
       <use x="398.199951172" xlink:href="#Ubuntu-30"/>
       <use x="454.599945068" xlink:href="#Ubuntu-32"/>
       <use x="510.999938965" xlink:href="#Ubuntu-20"/>
       <use x="534.09992981" xlink:href="#Ubuntu-32"/>
       <use x="590.499923706" xlink:href="#Ubuntu-32"/>
       <use x="646.899917603" xlink:href="#Ubuntu-3a"/>
       <use x="671.499908447" xlink:href="#Ubuntu-30"/>
       <use x="727.899902344" xlink:href="#Ubuntu-33"/>
       <use x="784.29989624" xlink:href="#Ubuntu-3a"/>
       <use x="808.899887085" xlink:href="#Ubuntu-34"/>
       <use x="865.299880981" xlink:href="#Ubuntu-35"/>
      </g>
     </g>
    </g>
    <g id="xtick_5">
     <g id="line2d_14">
      <path clip-path="url(#p1479e4a638)" d="M 321.908081 415.584 
L 321.908081 26.64 
" style="fill:none;stroke:#000000;stroke-linecap:square;stroke-width:0.3;"/>
     </g>
     <g id="line2d_15">
      <g>
       <use style="stroke:#000000;stroke-width:0.5;" x="321.908081055" xlink:href="#mbd2a6da3c8" y="415.584"/>
      </g>
     </g>
     <g id="line2d_16">
      <g>
       <use style="stroke:#000000;stroke-width:0.5;" x="321.908081055" xlink:href="#m9660c76e46" y="26.64"/>
      </g>
     </g>
     <g id="text_5">
      <!-- 2017-04-02 22:04:15 -->
      <g transform="translate(295.276675196 528.40477105)rotate(-60.0)scale(0.13 -0.13)">
       <use xlink:href="#Ubuntu-32"/>
       <use x="56.3999938965" xlink:href="#Ubuntu-30"/>
       <use x="112.799987793" xlink:href="#Ubuntu-31"/>
       <use x="169.199981689" xlink:href="#Ubuntu-37"/>
       <use x="225.599975586" xlink:href="#Ubuntu-2d"/>
       <use x="255.499969482" xlink:href="#Ubuntu-30"/>
       <use x="311.899963379" xlink:href="#Ubuntu-34"/>
       <use x="368.299957275" xlink:href="#Ubuntu-2d"/>
       <use x="398.199951172" xlink:href="#Ubuntu-30"/>
       <use x="454.599945068" xlink:href="#Ubuntu-32"/>
       <use x="510.999938965" xlink:href="#Ubuntu-20"/>
       <use x="534.09992981" xlink:href="#Ubuntu-32"/>
       <use x="590.499923706" xlink:href="#Ubuntu-32"/>
       <use x="646.899917603" xlink:href="#Ubuntu-3a"/>
       <use x="671.499908447" xlink:href="#Ubuntu-30"/>
       <use x="727.899902344" xlink:href="#Ubuntu-34"/>
       <use x="784.29989624" xlink:href="#Ubuntu-3a"/>
       <use x="808.899887085" xlink:href="#Ubuntu-31"/>
       <use x="865.299880981" xlink:href="#Ubuntu-35"/>
      </g>
     </g>
    </g>
    <g id="xtick_6">
     <g id="line2d_17">
      <path clip-path="url(#p1479e4a638)" d="M 387.265106 415.584 
L 387.265106 26.64 
" style="fill:none;stroke:#000000;stroke-linecap:square;stroke-width:0.3;"/>
     </g>
     <g id="line2d_18">
      <g>
       <use style="stroke:#000000;stroke-width:0.5;" x="387.265106201" xlink:href="#mbd2a6da3c8" y="415.584"/>
      </g>
     </g>
     <g id="line2d_19">
      <g>
       <use style="stroke:#000000;stroke-width:0.5;" x="387.265106201" xlink:href="#m9660c76e46" y="26.64"/>
      </g>
     </g>
     <g id="text_6">
      <!-- 2017-04-02 22:04:45 -->
      <g transform="translate(360.633700342 528.40477105)rotate(-60.0)scale(0.13 -0.13)">
       <use xlink:href="#Ubuntu-32"/>
       <use x="56.3999938965" xlink:href="#Ubuntu-30"/>
       <use x="112.799987793" xlink:href="#Ubuntu-31"/>
       <use x="169.199981689" xlink:href="#Ubuntu-37"/>
       <use x="225.599975586" xlink:href="#Ubuntu-2d"/>
       <use x="255.499969482" xlink:href="#Ubuntu-30"/>
       <use x="311.899963379" xlink:href="#Ubuntu-34"/>
       <use x="368.299957275" xlink:href="#Ubuntu-2d"/>
       <use x="398.199951172" xlink:href="#Ubuntu-30"/>
       <use x="454.599945068" xlink:href="#Ubuntu-32"/>
       <use x="510.999938965" xlink:href="#Ubuntu-20"/>
       <use x="534.09992981" xlink:href="#Ubuntu-32"/>
       <use x="590.499923706" xlink:href="#Ubuntu-32"/>
       <use x="646.899917603" xlink:href="#Ubuntu-3a"/>
       <use x="671.499908447" xlink:href="#Ubuntu-30"/>
       <use x="727.899902344" xlink:href="#Ubuntu-34"/>
       <use x="784.29989624" xlink:href="#Ubuntu-3a"/>
       <use x="808.899887085" xlink:href="#Ubuntu-34"/>
       <use x="865.299880981" xlink:href="#Ubuntu-35"/>
      </g>
     </g>
    </g>
    <g id="xtick_7">
     <g id="line2d_20">
      <path clip-path="url(#p1479e4a638)" d="M 452.622131 415.584 
L 452.622131 26.64 
" style="fill:none;stroke:#000000;stroke-linecap:square;stroke-width:0.3;"/>
     </g>
     <g id="line2d_21">
      <g>
       <use style="stroke:#000000;stroke-width:0.5;" x="452.622131348" xlink:href="#mbd2a6da3c8" y="415.584"/>
      </g>
     </g>
     <g id="line2d_22">
      <g>
       <use style="stroke:#000000;stroke-width:0.5;" x="452.622131348" xlink:href="#m9660c76e46" y="26.64"/>
      </g>
     </g>
     <g id="text_7">
      <!-- 2017-04-02 22:05:15 -->
      <g transform="translate(425.990725488 528.40477105)rotate(-60.0)scale(0.13 -0.13)">
       <use xlink:href="#Ubuntu-32"/>
       <use x="56.3999938965" xlink:href="#Ubuntu-30"/>
       <use x="112.799987793" xlink:href="#Ubuntu-31"/>
       <use x="169.199981689" xlink:href="#Ubuntu-37"/>
       <use x="225.599975586" xlink:href="#Ubuntu-2d"/>
       <use x="255.499969482" xlink:href="#Ubuntu-30"/>
       <use x="311.899963379" xlink:href="#Ubuntu-34"/>
       <use x="368.299957275" xlink:href="#Ubuntu-2d"/>
       <use x="398.199951172" xlink:href="#Ubuntu-30"/>
       <use x="454.599945068" xlink:href="#Ubuntu-32"/>
       <use x="510.999938965" xlink:href="#Ubuntu-20"/>
       <use x="534.09992981" xlink:href="#Ubuntu-32"/>
       <use x="590.499923706" xlink:href="#Ubuntu-32"/>
       <use x="646.899917603" xlink:href="#Ubuntu-3a"/>
       <use x="671.499908447" xlink:href="#Ubuntu-30"/>
       <use x="727.899902344" xlink:href="#Ubuntu-35"/>
       <use x="784.29989624" xlink:href="#Ubuntu-3a"/>
       <use x="808.899887085" xlink:href="#Ubuntu-31"/>
       <use x="865.299880981" xlink:href="#Ubuntu-35"/>
      </g>
     </g>
    </g>
    <g id="xtick_8">
     <g id="line2d_23">
      <path clip-path="url(#p1479e4a638)" d="M 517.979156 415.584 
L 517.979156 26.64 
" style="fill:none;stroke:#000000;stroke-linecap:square;stroke-width:0.3;"/>
     </g>
     <g id="line2d_24">
      <g>
       <use style="stroke:#000000;stroke-width:0.5;" x="517.979156494" xlink:href="#mbd2a6da3c8" y="415.584"/>
      </g>
     </g>
     <g id="line2d_25">
      <g>
       <use style="stroke:#000000;stroke-width:0.5;" x="517.979156494" xlink:href="#m9660c76e46" y="26.64"/>
      </g>
     </g>
     <g id="text_8">
      <!-- 2017-04-02 22:05:45 -->
      <g transform="translate(491.347750635 528.40477105)rotate(-60.0)scale(0.13 -0.13)">
       <use xlink:href="#Ubuntu-32"/>
       <use x="56.3999938965" xlink:href="#Ubuntu-30"/>
       <use x="112.799987793" xlink:href="#Ubuntu-31"/>
       <use x="169.199981689" xlink:href="#Ubuntu-37"/>
       <use x="225.599975586" xlink:href="#Ubuntu-2d"/>
       <use x="255.499969482" xlink:href="#Ubuntu-30"/>
       <use x="311.899963379" xlink:href="#Ubuntu-34"/>
       <use x="368.299957275" xlink:href="#Ubuntu-2d"/>
       <use x="398.199951172" xlink:href="#Ubuntu-30"/>
       <use x="454.599945068" xlink:href="#Ubuntu-32"/>
       <use x="510.999938965" xlink:href="#Ubuntu-20"/>
       <use x="534.09992981" xlink:href="#Ubuntu-32"/>
       <use x="590.499923706" xlink:href="#Ubuntu-32"/>
       <use x="646.899917603" xlink:href="#Ubuntu-3a"/>
       <use x="671.499908447" xlink:href="#Ubuntu-30"/>
       <use x="727.899902344" xlink:href="#Ubuntu-35"/>
       <use x="784.29989624" xlink:href="#Ubuntu-3a"/>
       <use x="808.899887085" xlink:href="#Ubuntu-34"/>
       <use x="865.299880981" xlink:href="#Ubuntu-35"/>
      </g>
     </g>
    </g>
    <g id="xtick_9">
     <g id="line2d_26">
      <path clip-path="url(#p1479e4a638)" d="M 583.336151 415.584 
L 583.336151 26.64 
" style="fill:none;stroke:#000000;stroke-linecap:square;stroke-width:0.3;"/>
     </g>
     <g id="line2d_27">
      <g>
       <use style="stroke:#000000;stroke-width:0.5;" x="583.336151123" xlink:href="#mbd2a6da3c8" y="415.584"/>
      </g>
     </g>
     <g id="line2d_28">
      <g>
       <use style="stroke:#000000;stroke-width:0.5;" x="583.336151123" xlink:href="#m9660c76e46" y="26.64"/>
      </g>
     </g>
     <g id="text_9">
      <!-- 2017-04-02 22:06:15 -->
      <defs>
       <path d="M 6.296875 27.796875 
Q 6.296875 37.90625 9.09375 45.65625 
Q 11.90625 53.40625 17.046875 58.703125 
Q 22.203125 64 29.546875 66.75 
Q 36.90625 69.5 46.09375 69.59375 
L 46.796875 61.796875 
Q 40.90625 61.703125 36.046875 60.5 
Q 31.203125 59.296875 27.390625 56.6875 
Q 23.59375 54.09375 21 49.9375 
Q 18.40625 45.796875 17.09375 39.703125 
Q 19.703125 40.90625 22.953125 41.703125 
Q 26.203125 42.5 29.703125 42.5 
Q 35.59375 42.5 39.6875 40.703125 
Q 43.796875 38.90625 46.390625 35.953125 
Q 49 33 50.140625 29.140625 
Q 51.296875 25.296875 51.296875 21.09375 
Q 51.296875 17.296875 50 13.296875 
Q 48.703125 9.296875 46.046875 6 
Q 43.40625 2.703125 39.296875 0.59375 
Q 35.203125 -1.5 29.59375 -1.5 
Q 18.203125 -1.5 12.25 6.296875 
Q 6.296875 14.09375 6.296875 27.796875 
M 28.703125 34.90625 
Q 25.203125 34.90625 22.203125 34.25 
Q 19.203125 33.59375 16.203125 32.296875 
Q 16.09375 31.203125 16.046875 30.046875 
Q 16 28.90625 16 27.796875 
Q 16 23.40625 16.59375 19.5 
Q 17.203125 15.59375 18.75 12.640625 
Q 20.296875 9.703125 22.890625 7.953125 
Q 25.5 6.203125 29.5 6.203125 
Q 32.796875 6.203125 35.09375 7.59375 
Q 37.40625 9 38.90625 11.203125 
Q 40.40625 13.40625 41.046875 15.953125 
Q 41.703125 18.5 41.703125 20.90625 
Q 41.703125 27.703125 38.453125 31.296875 
Q 35.203125 34.90625 28.703125 34.90625 
" id="Ubuntu-36"/>
      </defs>
      <g transform="translate(556.704745264 528.40477105)rotate(-60.0)scale(0.13 -0.13)">
       <use xlink:href="#Ubuntu-32"/>
       <use x="56.3999938965" xlink:href="#Ubuntu-30"/>
       <use x="112.799987793" xlink:href="#Ubuntu-31"/>
       <use x="169.199981689" xlink:href="#Ubuntu-37"/>
       <use x="225.599975586" xlink:href="#Ubuntu-2d"/>
       <use x="255.499969482" xlink:href="#Ubuntu-30"/>
       <use x="311.899963379" xlink:href="#Ubuntu-34"/>
       <use x="368.299957275" xlink:href="#Ubuntu-2d"/>
       <use x="398.199951172" xlink:href="#Ubuntu-30"/>
       <use x="454.599945068" xlink:href="#Ubuntu-32"/>
       <use x="510.999938965" xlink:href="#Ubuntu-20"/>
       <use x="534.09992981" xlink:href="#Ubuntu-32"/>
       <use x="590.499923706" xlink:href="#Ubuntu-32"/>
       <use x="646.899917603" xlink:href="#Ubuntu-3a"/>
       <use x="671.499908447" xlink:href="#Ubuntu-30"/>
       <use x="727.899902344" xlink:href="#Ubuntu-36"/>
       <use x="784.29989624" xlink:href="#Ubuntu-3a"/>
       <use x="808.899887085" xlink:href="#Ubuntu-31"/>
       <use x="865.299880981" xlink:href="#Ubuntu-35"/>
      </g>
     </g>
    </g>
    <g id="xtick_10">
     <g id="line2d_29">
      <path clip-path="url(#p1479e4a638)" d="M 648.693207 415.584 
L 648.693207 26.64 
" style="fill:none;stroke:#000000;stroke-linecap:square;stroke-width:0.3;"/>
     </g>
     <g id="line2d_30">
      <g>
       <use style="stroke:#000000;stroke-width:0.5;" x="648.693206787" xlink:href="#mbd2a6da3c8" y="415.584"/>
      </g>
     </g>
     <g id="line2d_31">
      <g>
       <use style="stroke:#000000;stroke-width:0.5;" x="648.693206787" xlink:href="#m9660c76e46" y="26.64"/>
      </g>
     </g>
     <g id="text_10">
      <!-- 2017-04-02 22:06:45 -->
      <g transform="translate(622.061800928 528.40477105)rotate(-60.0)scale(0.13 -0.13)">
       <use xlink:href="#Ubuntu-32"/>
       <use x="56.3999938965" xlink:href="#Ubuntu-30"/>
       <use x="112.799987793" xlink:href="#Ubuntu-31"/>
       <use x="169.199981689" xlink:href="#Ubuntu-37"/>
       <use x="225.599975586" xlink:href="#Ubuntu-2d"/>
       <use x="255.499969482" xlink:href="#Ubuntu-30"/>
       <use x="311.899963379" xlink:href="#Ubuntu-34"/>
       <use x="368.299957275" xlink:href="#Ubuntu-2d"/>
       <use x="398.199951172" xlink:href="#Ubuntu-30"/>
       <use x="454.599945068" xlink:href="#Ubuntu-32"/>
       <use x="510.999938965" xlink:href="#Ubuntu-20"/>
       <use x="534.09992981" xlink:href="#Ubuntu-32"/>
       <use x="590.499923706" xlink:href="#Ubuntu-32"/>
       <use x="646.899917603" xlink:href="#Ubuntu-3a"/>
       <use x="671.499908447" xlink:href="#Ubuntu-30"/>
       <use x="727.899902344" xlink:href="#Ubuntu-36"/>
       <use x="784.29989624" xlink:href="#Ubuntu-3a"/>
       <use x="808.899887085" xlink:href="#Ubuntu-34"/>
       <use x="865.299880981" xlink:href="#Ubuntu-35"/>
      </g>
     </g>
    </g>
    <g id="xtick_11">
     <g id="line2d_32">
      <path clip-path="url(#p1479e4a638)" d="M 714.050201 415.584 
L 714.050201 26.64 
" style="fill:none;stroke:#000000;stroke-linecap:square;stroke-width:0.3;"/>
     </g>
     <g id="line2d_33">
      <g>
       <use style="stroke:#000000;stroke-width:0.5;" x="714.050201416" xlink:href="#mbd2a6da3c8" y="415.584"/>
      </g>
     </g>
     <g id="line2d_34">
      <g>
       <use style="stroke:#000000;stroke-width:0.5;" x="714.050201416" xlink:href="#m9660c76e46" y="26.64"/>
      </g>
     </g>
     <g id="text_11">
      <!-- 2017-04-02 22:07:15 -->
      <g transform="translate(687.418795557 528.40477105)rotate(-60.0)scale(0.13 -0.13)">
       <use xlink:href="#Ubuntu-32"/>
       <use x="56.3999938965" xlink:href="#Ubuntu-30"/>
       <use x="112.799987793" xlink:href="#Ubuntu-31"/>
       <use x="169.199981689" xlink:href="#Ubuntu-37"/>
       <use x="225.599975586" xlink:href="#Ubuntu-2d"/>
       <use x="255.499969482" xlink:href="#Ubuntu-30"/>
       <use x="311.899963379" xlink:href="#Ubuntu-34"/>
       <use x="368.299957275" xlink:href="#Ubuntu-2d"/>
       <use x="398.199951172" xlink:href="#Ubuntu-30"/>
       <use x="454.599945068" xlink:href="#Ubuntu-32"/>
       <use x="510.999938965" xlink:href="#Ubuntu-20"/>
       <use x="534.09992981" xlink:href="#Ubuntu-32"/>
       <use x="590.499923706" xlink:href="#Ubuntu-32"/>
       <use x="646.899917603" xlink:href="#Ubuntu-3a"/>
       <use x="671.499908447" xlink:href="#Ubuntu-30"/>
       <use x="727.899902344" xlink:href="#Ubuntu-37"/>
       <use x="784.29989624" xlink:href="#Ubuntu-3a"/>
       <use x="808.899887085" xlink:href="#Ubuntu-31"/>
       <use x="865.299880981" xlink:href="#Ubuntu-35"/>
      </g>
     </g>
    </g>
    <g id="xtick_12">
     <g id="line2d_35">
      <path clip-path="url(#p1479e4a638)" d="M 779.407227 415.584 
L 779.407227 26.64 
" style="fill:none;stroke:#000000;stroke-linecap:square;stroke-width:0.3;"/>
     </g>
     <g id="line2d_36">
      <g>
       <use style="stroke:#000000;stroke-width:0.5;" x="779.407226562" xlink:href="#mbd2a6da3c8" y="415.584"/>
      </g>
     </g>
     <g id="line2d_37">
      <g>
       <use style="stroke:#000000;stroke-width:0.5;" x="779.407226562" xlink:href="#m9660c76e46" y="26.64"/>
      </g>
     </g>
     <g id="text_12">
      <!-- 2017-04-02 22:07:45 -->
      <g transform="translate(752.775820703 528.40477105)rotate(-60.0)scale(0.13 -0.13)">
       <use xlink:href="#Ubuntu-32"/>
       <use x="56.3999938965" xlink:href="#Ubuntu-30"/>
       <use x="112.799987793" xlink:href="#Ubuntu-31"/>
       <use x="169.199981689" xlink:href="#Ubuntu-37"/>
       <use x="225.599975586" xlink:href="#Ubuntu-2d"/>
       <use x="255.499969482" xlink:href="#Ubuntu-30"/>
       <use x="311.899963379" xlink:href="#Ubuntu-34"/>
       <use x="368.299957275" xlink:href="#Ubuntu-2d"/>
       <use x="398.199951172" xlink:href="#Ubuntu-30"/>
       <use x="454.599945068" xlink:href="#Ubuntu-32"/>
       <use x="510.999938965" xlink:href="#Ubuntu-20"/>
       <use x="534.09992981" xlink:href="#Ubuntu-32"/>
       <use x="590.499923706" xlink:href="#Ubuntu-32"/>
       <use x="646.899917603" xlink:href="#Ubuntu-3a"/>
       <use x="671.499908447" xlink:href="#Ubuntu-30"/>
       <use x="727.899902344" xlink:href="#Ubuntu-37"/>
       <use x="784.29989624" xlink:href="#Ubuntu-3a"/>
       <use x="808.899887085" xlink:href="#Ubuntu-34"/>
       <use x="865.299880981" xlink:href="#Ubuntu-35"/>
      </g>
     </g>
    </g>
   </g>
   <g id="matplotlib.axis_2">
    <g id="ytick_1">
     <g id="line2d_38">
      <path clip-path="url(#p1479e4a638)" d="M 60.48 400.767086 
L 820.8 400.767086 
" style="fill:none;stroke:#000000;stroke-linecap:square;stroke-width:0.3;"/>
     </g>
     <g id="line2d_39">
      <defs>
       <path d="M 0 0 
L 4 0 
" id="m781caf75d4" style="stroke:#000000;stroke-width:0.5;"/>
      </defs>
      <g>
       <use style="stroke:#000000;stroke-width:0.5;" x="60.48" xlink:href="#m781caf75d4" y="400.767085714"/>
      </g>
     </g>
     <g id="line2d_40">
      <defs>
       <path d="M 0 0 
L -4 0 
" id="m1e896bb918" style="stroke:#000000;stroke-width:0.5;"/>
      </defs>
      <g>
       <use style="stroke:#000000;stroke-width:0.5;" x="820.8" xlink:href="#m1e896bb918" y="400.767085714"/>
      </g>
     </g>
     <g id="text_13">
      <!-- −0.4 -->
      <defs>
       <path d="M 19 5.40625 
Q 19 2.703125 17.203125 0.703125 
Q 15.40625 -1.296875 12.296875 -1.296875 
Q 9.203125 -1.296875 7.390625 0.703125 
Q 5.59375 2.703125 5.59375 5.40625 
Q 5.59375 8.09375 7.390625 10.09375 
Q 9.203125 12.09375 12.296875 12.09375 
Q 15.40625 12.09375 17.203125 10.09375 
Q 19 8.09375 19 5.40625 
" id="Ubuntu-2e"/>
       <path d="M 5.296875 33.40625 
L 51.09375 33.40625 
L 51.09375 25.5 
L 5.296875 25.5 
z
" id="Ubuntu-2212"/>
      </defs>
      <g transform="translate(29.34625 404.903648214)scale(0.14 -0.14)">
       <use xlink:href="#Ubuntu-2212"/>
       <use x="56.3999938965" xlink:href="#Ubuntu-30"/>
       <use x="112.799987793" xlink:href="#Ubuntu-2e"/>
       <use x="137.399978638" xlink:href="#Ubuntu-34"/>
      </g>
     </g>
    </g>
    <g id="ytick_2">
     <g id="line2d_41">
      <path clip-path="url(#p1479e4a638)" d="M 60.48 326.682514 
L 820.8 326.682514 
" style="fill:none;stroke:#000000;stroke-linecap:square;stroke-width:0.3;"/>
     </g>
     <g id="line2d_42">
      <g>
       <use style="stroke:#000000;stroke-width:0.5;" x="60.48" xlink:href="#m781caf75d4" y="326.682514286"/>
      </g>
     </g>
     <g id="line2d_43">
      <g>
       <use style="stroke:#000000;stroke-width:0.5;" x="820.8" xlink:href="#m1e896bb918" y="326.682514286"/>
      </g>
     </g>
     <g id="text_14">
      <!-- −0.3 -->
      <g transform="translate(29.34625 330.819076786)scale(0.14 -0.14)">
       <use xlink:href="#Ubuntu-2212"/>
       <use x="56.3999938965" xlink:href="#Ubuntu-30"/>
       <use x="112.799987793" xlink:href="#Ubuntu-2e"/>
       <use x="137.399978638" xlink:href="#Ubuntu-33"/>
      </g>
     </g>
    </g>
    <g id="ytick_3">
     <g id="line2d_44">
      <path clip-path="url(#p1479e4a638)" d="M 60.48 252.597943 
L 820.8 252.597943 
" style="fill:none;stroke:#000000;stroke-linecap:square;stroke-width:0.3;"/>
     </g>
     <g id="line2d_45">
      <g>
       <use style="stroke:#000000;stroke-width:0.5;" x="60.48" xlink:href="#m781caf75d4" y="252.597942857"/>
      </g>
     </g>
     <g id="line2d_46">
      <g>
       <use style="stroke:#000000;stroke-width:0.5;" x="820.8" xlink:href="#m1e896bb918" y="252.597942857"/>
      </g>
     </g>
     <g id="text_15">
      <!-- −0.2 -->
      <g transform="translate(29.34625 256.734505357)scale(0.14 -0.14)">
       <use xlink:href="#Ubuntu-2212"/>
       <use x="56.3999938965" xlink:href="#Ubuntu-30"/>
       <use x="112.799987793" xlink:href="#Ubuntu-2e"/>
       <use x="137.399978638" xlink:href="#Ubuntu-32"/>
      </g>
     </g>
    </g>
    <g id="ytick_4">
     <g id="line2d_47">
      <path clip-path="url(#p1479e4a638)" d="M 60.48 178.513371 
L 820.8 178.513371 
" style="fill:none;stroke:#000000;stroke-linecap:square;stroke-width:0.3;"/>
     </g>
     <g id="line2d_48">
      <g>
       <use style="stroke:#000000;stroke-width:0.5;" x="60.48" xlink:href="#m781caf75d4" y="178.513371429"/>
      </g>
     </g>
     <g id="line2d_49">
      <g>
       <use style="stroke:#000000;stroke-width:0.5;" x="820.8" xlink:href="#m1e896bb918" y="178.513371429"/>
      </g>
     </g>
     <g id="text_16">
      <!-- −0.1 -->
      <g transform="translate(29.34625 182.649933929)scale(0.14 -0.14)">
       <use xlink:href="#Ubuntu-2212"/>
       <use x="56.3999938965" xlink:href="#Ubuntu-30"/>
       <use x="112.799987793" xlink:href="#Ubuntu-2e"/>
       <use x="137.399978638" xlink:href="#Ubuntu-31"/>
      </g>
     </g>
    </g>
    <g id="ytick_5">
     <g id="line2d_50">
      <path clip-path="url(#p1479e4a638)" d="M 60.48 104.4288 
L 820.8 104.4288 
" style="fill:none;stroke:#000000;stroke-linecap:square;stroke-width:0.3;"/>
     </g>
     <g id="line2d_51">
      <g>
       <use style="stroke:#000000;stroke-width:0.5;" x="60.48" xlink:href="#m781caf75d4" y="104.4288"/>
      </g>
     </g>
     <g id="line2d_52">
      <g>
       <use style="stroke:#000000;stroke-width:0.5;" x="820.8" xlink:href="#m1e896bb918" y="104.4288"/>
      </g>
     </g>
     <g id="text_17">
      <!-- 0.0 -->
      <g transform="translate(37.243125 108.5653625)scale(0.14 -0.14)">
       <use xlink:href="#Ubuntu-30"/>
       <use x="56.3999938965" xlink:href="#Ubuntu-2e"/>
       <use x="80.9999847412" xlink:href="#Ubuntu-30"/>
      </g>
     </g>
    </g>
    <g id="ytick_6">
     <g id="line2d_53">
      <path clip-path="url(#p1479e4a638)" d="M 60.48 30.344229 
L 820.8 30.344229 
" style="fill:none;stroke:#000000;stroke-linecap:square;stroke-width:0.3;"/>
     </g>
     <g id="line2d_54">
      <g>
       <use style="stroke:#000000;stroke-width:0.5;" x="60.48" xlink:href="#m781caf75d4" y="30.3442285714"/>
      </g>
     </g>
     <g id="line2d_55">
      <g>
       <use style="stroke:#000000;stroke-width:0.5;" x="820.8" xlink:href="#m1e896bb918" y="30.3442285714"/>
      </g>
     </g>
     <g id="text_18">
      <!-- 0.1 -->
      <g transform="translate(37.243125 34.4807910714)scale(0.14 -0.14)">
       <use xlink:href="#Ubuntu-30"/>
       <use x="56.3999938965" xlink:href="#Ubuntu-2e"/>
       <use x="80.9999847412" xlink:href="#Ubuntu-31"/>
      </g>
     </g>
    </g>
    <g id="text_19">
     <!-- SSH [m] -->
     <defs>
      <path d="M 23.296875 -18.5 
L 0.796875 -18.5 
L 0.796875 -11.203125 
L 14.59375 -11.203125 
L 14.59375 71 
L 0.796875 71 
L 0.796875 78.296875 
L 23.296875 78.296875 
z
" id="Ubuntu-5d"/>
      <path d="M 8 50.5 
Q 11.203125 51.296875 16.453125 52.1875 
Q 21.703125 53.09375 28.59375 53.09375 
Q 33.59375 53.09375 37 51.75 
Q 40.40625 50.40625 42.703125 47.796875 
Q 43.40625 48.296875 44.90625 49.1875 
Q 46.40625 50.09375 48.59375 50.9375 
Q 50.796875 51.796875 53.5 52.4375 
Q 56.203125 53.09375 59.296875 53.09375 
Q 65.296875 53.09375 69.09375 51.34375 
Q 72.90625 49.59375 75.046875 46.390625 
Q 77.203125 43.203125 77.953125 38.796875 
Q 78.703125 34.40625 78.703125 29.203125 
L 78.703125 0 
L 69.40625 0 
L 69.40625 27.203125 
Q 69.40625 31.796875 68.953125 35.09375 
Q 68.5 38.40625 67.25 40.59375 
Q 66 42.796875 63.84375 43.84375 
Q 61.703125 44.90625 58.296875 44.90625 
Q 53.59375 44.90625 50.546875 43.65625 
Q 47.5 42.40625 46.40625 41.40625 
Q 47.203125 38.796875 47.59375 35.6875 
Q 48 32.59375 48 29.203125 
L 48 0 
L 38.703125 0 
L 38.703125 27.203125 
Q 38.703125 31.796875 38.203125 35.09375 
Q 37.703125 38.40625 36.453125 40.59375 
Q 35.203125 42.796875 33.046875 43.84375 
Q 30.90625 44.90625 27.59375 44.90625 
Q 26.203125 44.90625 24.59375 44.796875 
Q 23 44.703125 21.546875 44.546875 
Q 20.09375 44.40625 18.890625 44.203125 
Q 17.703125 44 17.296875 43.90625 
L 17.296875 0 
L 8 0 
z
" id="Ubuntu-6d"/>
      <path d="M 52.203125 69.296875 
L 61.90625 69.296875 
L 61.90625 0 
L 52.203125 0 
L 52.203125 32 
L 18.296875 32 
L 18.296875 0 
L 8.59375 0 
L 8.59375 69.296875 
L 18.296875 69.296875 
L 18.296875 40.40625 
L 52.203125 40.40625 
z
" id="Ubuntu-48"/>
      <path d="M 9.59375 78.296875 
L 32.09375 78.296875 
L 32.09375 71 
L 18.296875 71 
L 18.296875 -11.203125 
L 32.09375 -11.203125 
L 32.09375 -18.5 
L 9.59375 -18.5 
z
" id="Ubuntu-5b"/>
      <path d="M 24.703125 6.90625 
Q 39.90625 6.90625 39.90625 17.296875 
Q 39.90625 20.5 38.546875 22.75 
Q 37.203125 25 34.890625 26.640625 
Q 32.59375 28.296875 29.640625 29.5 
Q 26.703125 30.703125 23.40625 31.90625 
Q 19.59375 33.203125 16.1875 34.84375 
Q 12.796875 36.5 10.296875 38.75 
Q 7.796875 41 6.34375 44.09375 
Q 4.90625 47.203125 4.90625 51.59375 
Q 4.90625 60.703125 11.09375 65.796875 
Q 17.296875 70.90625 28.203125 70.90625 
Q 34.5 70.90625 39.640625 69.546875 
Q 44.796875 68.203125 47.203125 66.59375 
L 44.09375 58.703125 
Q 42 60 37.84375 61.25 
Q 33.703125 62.5 28.203125 62.5 
Q 25.40625 62.5 23 61.890625 
Q 20.59375 61.296875 18.796875 60.09375 
Q 17 58.90625 15.953125 57.046875 
Q 14.90625 55.203125 14.90625 52.703125 
Q 14.90625 49.90625 16 48 
Q 17.09375 46.09375 19.09375 44.640625 
Q 21.09375 43.203125 23.75 42 
Q 26.40625 40.796875 29.59375 39.59375 
Q 34.09375 37.796875 37.84375 36 
Q 41.59375 34.203125 44.34375 31.703125 
Q 47.09375 29.203125 48.59375 25.75 
Q 50.09375 22.296875 50.09375 17.40625 
Q 50.09375 8.296875 43.4375 3.390625 
Q 36.796875 -1.5 24.703125 -1.5 
Q 20.59375 -1.5 17.140625 -0.953125 
Q 13.703125 -0.40625 11 0.34375 
Q 8.296875 1.09375 6.34375 1.9375 
Q 4.40625 2.796875 3.296875 3.40625 
L 6.203125 11.40625 
Q 8.5 10.09375 13.203125 8.5 
Q 17.90625 6.90625 24.703125 6.90625 
" id="Ubuntu-53"/>
     </defs>
     <g transform="translate(21.75625 245.7454375)rotate(-90.0)scale(0.14 -0.14)">
      <use xlink:href="#Ubuntu-53"/>
      <use x="53.1999969482" xlink:href="#Ubuntu-53"/>
      <use x="106.399993896" xlink:href="#Ubuntu-48"/>
      <use x="176.899978638" xlink:href="#Ubuntu-20"/>
      <use x="199.999969482" xlink:href="#Ubuntu-5b"/>
      <use x="232.899963379" xlink:href="#Ubuntu-6d"/>
      <use x="318.999954224" xlink:href="#Ubuntu-5d"/>
     </g>
    </g>
   </g>
   <g id="text_20">
    <!-- -8.77$^{\circ}$E, 43.37$^{\circ}$N  $\longrightarrow$ -19.56$^{\circ}$E, 63.4$^{\circ}$N -->
    <defs>
     <path d="M 6 24.59375 
L 31 24.59375 
L 31 30.40625 
L 6 30.40625 
z
" id="HelveticaNeue-Light-2d"/>
     <path d="M 9.703125 0 
L 18.09375 0 
L 18.09375 10.59375 
L 9.703125 10.59375 
z
" id="HelveticaNeue-Light-2e"/>
     <path d="M 7.203125 71.40625 
L 7.203125 0 
L 57 0 
L 57 5.796875 
L 14 5.796875 
L 14 34 
L 53.796875 34 
L 53.796875 39.796875 
L 14 39.796875 
L 14 65.59375 
L 56.5 65.59375 
L 56.5 71.40625 
z
" id="HelveticaNeue-Light-45"/>
     <path d="M 25 5.609375 
Q 19.828125 5.609375 15.359375 8.21875 
Q 10.890625 10.84375 8.25 15.375 
Q 5.609375 19.921875 5.609375 25 
Q 5.609375 30.078125 8.25 34.609375 
Q 10.890625 39.15625 15.359375 41.765625 
Q 19.828125 44.390625 25 44.390625 
Q 30.171875 44.390625 34.609375 41.75 
Q 39.0625 39.109375 41.671875 34.59375 
Q 44.28125 30.078125 44.28125 25 
Q 44.28125 19.921875 41.671875 15.40625 
Q 39.0625 10.890625 34.609375 8.25 
Q 30.171875 5.609375 25 5.609375 
M 25 9.625 
Q 31.25 9.625 35.765625 14.1875 
Q 40.28125 18.75 40.28125 25 
Q 40.28125 29 38.203125 32.59375 
Q 36.140625 36.1875 32.625 38.28125 
Q 29.109375 40.375 25 40.375 
Q 21.921875 40.375 19.140625 39.171875 
Q 16.359375 37.984375 14.15625 35.78125 
Q 11.96875 33.59375 10.796875 30.828125 
Q 9.625 28.078125 9.625 25 
Q 9.625 18.75 14.140625 14.1875 
Q 18.65625 9.625 25 9.625 
" id="Cmsy10-b1"/>
     <path d="M 18.09375 10.59375 
L 9.703125 10.59375 
L 9.703125 0 
L 13.90625 0 
Q 14 -1.09375 13.75 -2.546875 
Q 13.5 -4 12.890625 -5.34375 
Q 12.296875 -6.703125 11.390625 -7.796875 
Q 10.5 -8.90625 9.296875 -9.296875 
L 9.296875 -13.59375 
Q 11.5 -13 13.140625 -11.59375 
Q 14.796875 -10.203125 15.890625 -8.34375 
Q 17 -6.5 17.546875 -4.34375 
Q 18.09375 -2.203125 18.09375 0 
z
" id="HelveticaNeue-Light-2c"/>
     <path d="M 151.90625 25.796875 
L 151.90625 24.796875 
Q 140.40625 19.90625 128.09375 5.703125 
L 126.09375 7.59375 
Q 128.90625 11.59375 134.296875 17.203125 
Q 135.703125 18.59375 135.703125 20 
Q 135.703125 22 133.09375 22 
L 5.5 22 
L 5.5 28.59375 
L 133.203125 28.59375 
Q 134 28.59375 134.890625 29.34375 
Q 135.796875 30.09375 135.796875 30.796875 
Q 135.796875 31.90625 134.40625 33.296875 
Q 129.5 38 126.203125 43 
L 128.203125 44.90625 
Q 140.703125 30.5 151.90625 25.796875 
" id="STIXGeneral-Regular-27f6"/>
     <path d="M 9.59375 22.296875 
L 3.296875 22.296875 
Q 2.90625 16.59375 4.546875 12.1875 
Q 6.203125 7.796875 9.453125 4.796875 
Q 12.703125 1.796875 17.25 0.1875 
Q 21.796875 -1.40625 27.203125 -1.40625 
Q 32 -1.40625 36.390625 -0.046875 
Q 40.796875 1.296875 44.09375 4 
Q 47.40625 6.703125 49.34375 10.640625 
Q 51.296875 14.59375 51.296875 19.796875 
Q 51.296875 26.703125 47.546875 31.34375 
Q 43.796875 36 36.90625 37.09375 
L 36.90625 37.296875 
Q 42.59375 38.703125 45.640625 42.890625 
Q 48.703125 47.09375 48.703125 52.796875 
Q 48.703125 57.5 46.84375 60.84375 
Q 45 64.203125 41.953125 66.34375 
Q 38.90625 68.5 35 69.546875 
Q 31.09375 70.59375 27 70.59375 
Q 21.90625 70.59375 17.796875 68.84375 
Q 13.703125 67.09375 10.84375 64.046875 
Q 8 61 6.453125 56.796875 
Q 4.90625 52.59375 4.90625 47.59375 
L 11.203125 47.59375 
Q 11.09375 51.5 12.09375 54.75 
Q 13.09375 58 15.140625 60.34375 
Q 17.203125 62.703125 20.203125 64 
Q 23.203125 65.296875 27.09375 65.296875 
Q 30.296875 65.296875 33.046875 64.546875 
Q 35.796875 63.796875 37.890625 62.140625 
Q 40 60.5 41.203125 58.046875 
Q 42.40625 55.59375 42.40625 52.09375 
Q 42.40625 48.796875 41.09375 46.390625 
Q 39.796875 44 37.75 42.453125 
Q 35.703125 40.90625 33.140625 40.15625 
Q 30.59375 39.40625 28.203125 39.40625 
L 22.90625 39.40625 
L 22.90625 34.09375 
L 28.203125 34.09375 
Q 31.703125 34.09375 34.75 33.1875 
Q 37.796875 32.296875 40.09375 30.4375 
Q 42.40625 28.59375 43.703125 25.84375 
Q 45 23.09375 45 19.296875 
Q 45 15.59375 43.5 12.6875 
Q 42 9.796875 39.5 7.796875 
Q 37 5.796875 33.796875 4.796875 
Q 30.59375 3.796875 27.09375 3.796875 
Q 22.90625 3.796875 19.546875 5.140625 
Q 16.203125 6.5 13.953125 8.890625 
Q 11.703125 11.296875 10.546875 14.6875 
Q 9.40625 18.09375 9.59375 22.296875 
" id="HelveticaNeue-Light-33"/>
     <path d="M 9.703125 56.5 
L 9.703125 52 
L 28.203125 52 
L 28.203125 0 
L 34.5 0 
L 34.5 70 
L 29.40625 70 
Q 28.703125 65.203125 27.046875 62.546875 
Q 25.40625 59.90625 22.953125 58.59375 
Q 20.5 57.296875 17.140625 56.9375 
Q 13.796875 56.59375 9.703125 56.5 
" id="HelveticaNeue-Light-31"/>
     <path d="M 7.09375 71.40625 
L 7.09375 0 
L 13.90625 0 
L 13.90625 60.40625 
L 14.09375 60.40625 
L 55.703125 0 
L 63.296875 0 
L 63.296875 71.40625 
L 56.5 71.40625 
L 56.5 11 
L 56.296875 11 
L 14.703125 71.40625 
z
" id="HelveticaNeue-Light-4e"/>
     <path d="M 5.09375 69.09375 
L 5.09375 63.296875 
L 43.796875 63.296875 
Q 36.5 55 31.34375 47.390625 
Q 26.203125 39.796875 22.75 32.25 
Q 19.296875 24.703125 17.4375 16.796875 
Q 15.59375 8.90625 15 0 
L 21.796875 0 
Q 22.40625 12.203125 25.65625 22.34375 
Q 28.90625 32.5 33.25 40.453125 
Q 37.59375 48.40625 42.1875 54.15625 
Q 46.796875 59.90625 50.09375 63.296875 
L 50.09375 69.09375 
z
" id="HelveticaNeue-Light-37"/>
     <path d="M 44.203125 52.296875 
L 50.5 52.296875 
Q 49.40625 61.59375 43.90625 66.09375 
Q 38.40625 70.59375 29 70.59375 
Q 23.296875 70.59375 19.1875 68.59375 
Q 15.09375 66.59375 12.34375 63.390625 
Q 9.59375 60.203125 7.9375 56.25 
Q 6.296875 52.296875 5.390625 48.4375 
Q 4.5 44.59375 4.25 41.1875 
Q 4 37.796875 4 35.703125 
Q 4 25.40625 5.453125 18.34375 
Q 6.90625 11.296875 9.90625 6.890625 
Q 12.90625 2.5 17.5 0.546875 
Q 22.09375 -1.40625 28.5 -1.40625 
Q 33.703125 -1.40625 38.046875 0.34375 
Q 42.40625 2.09375 45.546875 5.25 
Q 48.703125 8.40625 50.453125 12.75 
Q 52.203125 17.09375 52.203125 22.203125 
Q 52.203125 27.296875 50.546875 31.59375 
Q 48.90625 35.90625 45.90625 39 
Q 42.90625 42.09375 38.65625 43.84375 
Q 34.40625 45.59375 29.09375 45.59375 
Q 23.09375 45.59375 18.046875 42.390625 
Q 13 39.203125 10.5 34 
L 10.296875 34 
Q 10.296875 38.796875 11 44.25 
Q 11.703125 49.703125 13.796875 54.390625 
Q 15.90625 59.09375 19.703125 62.1875 
Q 23.5 65.296875 29.59375 65.296875 
Q 35.703125 65.296875 39.546875 61.6875 
Q 43.40625 58.09375 44.203125 52.296875 
M 29 40.296875 
Q 33 40.296875 36.140625 38.84375 
Q 39.296875 37.40625 41.4375 34.90625 
Q 43.59375 32.40625 44.75 29 
Q 45.90625 25.59375 45.90625 21.796875 
Q 45.90625 18.203125 44.703125 14.890625 
Q 43.5 11.59375 41.25 9.140625 
Q 39 6.703125 35.953125 5.25 
Q 32.90625 3.796875 29.09375 3.796875 
Q 24.5 3.796875 21.203125 5.1875 
Q 17.90625 6.59375 15.75 9.046875 
Q 13.59375 11.5 12.59375 14.796875 
Q 11.59375 18.09375 11.59375 21.796875 
Q 11.59375 25.703125 12.75 29.046875 
Q 13.90625 32.40625 16.15625 34.90625 
Q 18.40625 37.40625 21.65625 38.84375 
Q 24.90625 40.296875 29 40.296875 
" id="HelveticaNeue-Light-36"/>
     <path d="M 9.90625 20 
L 3.59375 20 
Q 3.703125 15 5.5 11 
Q 7.296875 7 10.34375 4.25 
Q 13.40625 1.5 17.546875 0.046875 
Q 21.703125 -1.40625 26.59375 -1.40625 
Q 31.59375 -1.40625 36.046875 0.34375 
Q 40.5 2.09375 43.796875 5.25 
Q 47.09375 8.40625 49 12.75 
Q 50.90625 17.09375 50.90625 22.203125 
Q 50.90625 27.5 49.25 31.953125 
Q 47.59375 36.40625 44.546875 39.59375 
Q 41.5 42.796875 37.140625 44.59375 
Q 32.796875 46.40625 27.40625 46.40625 
Q 23.203125 46.40625 19.203125 44.703125 
Q 15.203125 43 12.59375 39.90625 
L 12.40625 40.09375 
L 16.90625 63.296875 
L 47.5 63.296875 
L 47.5 69.09375 
L 12.5 69.09375 
L 5.703125 32.796875 
L 11.09375 32.796875 
Q 13.703125 36.796875 17.796875 38.9375 
Q 21.90625 41.09375 26.703125 41.09375 
Q 30.59375 41.09375 33.890625 39.6875 
Q 37.203125 38.296875 39.546875 35.84375 
Q 41.90625 33.40625 43.25 30.09375 
Q 44.59375 26.796875 44.59375 22.90625 
Q 44.59375 19.09375 43.390625 15.640625 
Q 42.203125 12.203125 39.890625 9.546875 
Q 37.59375 6.90625 34.390625 5.34375 
Q 31.203125 3.796875 27.09375 3.796875 
Q 23.5 3.796875 20.390625 4.9375 
Q 17.296875 6.09375 15 8.25 
Q 12.703125 10.40625 11.34375 13.40625 
Q 10 16.40625 9.90625 20 
" id="HelveticaNeue-Light-35"/>
     <path d="M 35.296875 22.703125 
L 8.703125 22.703125 
L 35.09375 60.796875 
L 35.296875 60.796875 
z
M 3 23.5 
L 3 17.40625 
L 35.296875 17.40625 
L 35.296875 0 
L 41.09375 0 
L 41.09375 17.40625 
L 51.59375 17.40625 
L 51.59375 22.703125 
L 41.09375 22.703125 
L 41.09375 70 
L 35.40625 70 
z
" id="HelveticaNeue-Light-34"/>
     <path id="HelveticaNeue-Light-20"/>
     <path d="M 11.40625 16.796875 
L 5.09375 16.796875 
Q 6.203125 7.5 11.703125 3.046875 
Q 17.203125 -1.40625 26.59375 -1.40625 
Q 32.296875 -1.40625 36.390625 0.59375 
Q 40.5 2.59375 43.25 5.75 
Q 46 8.90625 47.640625 12.84375 
Q 49.296875 16.796875 50.1875 20.640625 
Q 51.09375 24.5 51.34375 27.890625 
Q 51.59375 31.296875 51.59375 33.40625 
Q 51.59375 43.59375 50.140625 50.6875 
Q 48.703125 57.796875 45.703125 62.25 
Q 42.703125 66.703125 38.09375 68.640625 
Q 33.5 70.59375 27.09375 70.59375 
Q 21.90625 70.59375 17.546875 68.796875 
Q 13.203125 67 10.046875 63.84375 
Q 6.90625 60.703125 5.15625 56.34375 
Q 3.40625 52 3.40625 46.90625 
Q 3.40625 41.796875 5.046875 37.5 
Q 6.703125 33.203125 9.703125 30.09375 
Q 12.703125 27 17 25.25 
Q 21.296875 23.5 26.5 23.5 
Q 32.5 23.5 37.546875 26.703125 
Q 42.59375 29.90625 45.09375 35.09375 
L 45.296875 35.09375 
Q 45.296875 30.296875 44.59375 24.84375 
Q 43.90625 19.40625 41.796875 14.703125 
Q 39.703125 10 35.953125 6.890625 
Q 32.203125 3.796875 26 3.796875 
Q 19.90625 3.796875 16.046875 7.390625 
Q 12.203125 11 11.40625 16.796875 
M 26.59375 28.796875 
Q 22.59375 28.796875 19.4375 30.25 
Q 16.296875 31.703125 14.140625 34.203125 
Q 12 36.703125 10.84375 40.09375 
Q 9.703125 43.5 9.703125 47.296875 
Q 9.703125 50.90625 10.890625 54.203125 
Q 12.09375 57.5 14.34375 59.953125 
Q 16.59375 62.40625 19.6875 63.84375 
Q 22.796875 65.296875 26.5 65.296875 
Q 31.09375 65.296875 34.390625 63.890625 
Q 37.703125 62.5 39.84375 60.046875 
Q 42 57.59375 43 54.34375 
Q 44 51.09375 44 47.296875 
Q 44 43.40625 42.84375 40.046875 
Q 41.703125 36.703125 39.453125 34.203125 
Q 37.203125 31.703125 33.953125 30.25 
Q 30.703125 28.796875 26.59375 28.796875 
" id="HelveticaNeue-Light-39"/>
     <path d="M 27.796875 40.09375 
Q 25 40 22.296875 40.703125 
Q 19.59375 41.40625 17.5 43 
Q 15.40625 44.59375 14.09375 47.09375 
Q 12.796875 49.59375 12.796875 53.09375 
Q 12.796875 56.09375 14.046875 58.390625 
Q 15.296875 60.703125 17.390625 62.203125 
Q 19.5 63.703125 22.203125 64.5 
Q 24.90625 65.296875 27.796875 65.296875 
Q 31 65.296875 33.703125 64.5 
Q 36.40625 63.703125 38.40625 62.203125 
Q 40.40625 60.703125 41.546875 58.390625 
Q 42.703125 56.09375 42.703125 53.09375 
Q 42.703125 49.703125 41.453125 47.203125 
Q 40.203125 44.703125 38.140625 43.09375 
Q 36.09375 41.5 33.390625 40.75 
Q 30.703125 40 27.796875 40.09375 
M 49 53.09375 
Q 49 57.59375 47.140625 60.890625 
Q 45.296875 64.203125 42.25 66.34375 
Q 39.203125 68.5 35.390625 69.546875 
Q 31.59375 70.59375 27.703125 70.59375 
Q 23.796875 70.59375 20 69.546875 
Q 16.203125 68.5 13.203125 66.34375 
Q 10.203125 64.203125 8.34375 60.890625 
Q 6.5 57.59375 6.5 53.09375 
Q 6.5 47.296875 9.453125 43.34375 
Q 12.40625 39.40625 17.90625 37.703125 
L 17.90625 37.5 
Q 11.296875 36.296875 7.59375 31.390625 
Q 3.90625 26.5 3.703125 19.59375 
Q 3.703125 14.296875 5.59375 10.34375 
Q 7.5 6.40625 10.796875 3.796875 
Q 14.09375 1.203125 18.5 -0.09375 
Q 22.90625 -1.40625 27.796875 -1.40625 
Q 32.796875 -1.40625 37.140625 -0.09375 
Q 41.5 1.203125 44.796875 3.796875 
Q 48.09375 6.40625 50 10.34375 
Q 51.90625 14.296875 51.90625 19.59375 
Q 51.90625 26.796875 48.203125 31.4375 
Q 44.5 36.09375 37.59375 37.5 
L 37.59375 37.703125 
Q 43 39.296875 46 43.34375 
Q 49 47.40625 49 53.09375 
M 27.796875 3.796875 
Q 24.09375 3.796875 20.84375 4.796875 
Q 17.59375 5.796875 15.1875 7.75 
Q 12.796875 9.703125 11.390625 12.703125 
Q 10 15.703125 10 19.59375 
Q 10 23.40625 11.453125 26.296875 
Q 12.90625 29.203125 15.296875 31.140625 
Q 17.703125 33.09375 20.953125 34 
Q 24.203125 34.90625 27.796875 34.796875 
Q 31.296875 34.90625 34.546875 33.953125 
Q 37.796875 33 40.25 31.046875 
Q 42.703125 29.09375 44.140625 26.25 
Q 45.59375 23.40625 45.59375 19.59375 
Q 45.59375 15.59375 44.1875 12.59375 
Q 42.796875 9.59375 40.390625 7.640625 
Q 38 5.703125 34.75 4.75 
Q 31.5 3.796875 27.796875 3.796875 
" id="HelveticaNeue-Light-38"/>
    </defs>
    <g transform="translate(279.18 21.64)scale(0.18 -0.18)">
     <use transform="translate(0.0 0.59375)" xlink:href="#HelveticaNeue-Light-2d"/>
     <use transform="translate(36.9999847412 0.59375)" xlink:href="#HelveticaNeue-Light-38"/>
     <use transform="translate(92.5999755859 0.59375)" xlink:href="#HelveticaNeue-Light-2e"/>
     <use transform="translate(120.399963379 0.59375)" xlink:href="#HelveticaNeue-Light-37"/>
     <use transform="translate(175.999954224 0.59375)" xlink:href="#HelveticaNeue-Light-37"/>
     <use transform="translate(236.064085693 38.8578125)scale(0.7)" xlink:href="#Cmsy10-b1"/>
     <use transform="translate(277.441429443 0.59375)" xlink:href="#HelveticaNeue-Light-45"/>
     <use transform="translate(336.741417236 0.59375)" xlink:href="#HelveticaNeue-Light-2c"/>
     <use transform="translate(364.541405029 0.59375)" xlink:href="#HelveticaNeue-Light-20"/>
     <use transform="translate(392.341392822 0.59375)" xlink:href="#HelveticaNeue-Light-34"/>
     <use transform="translate(447.941383667 0.59375)" xlink:href="#HelveticaNeue-Light-33"/>
     <use transform="translate(503.541374512 0.59375)" xlink:href="#HelveticaNeue-Light-2e"/>
     <use transform="translate(531.341362305 0.59375)" xlink:href="#HelveticaNeue-Light-33"/>
     <use transform="translate(586.941353149 0.59375)" xlink:href="#HelveticaNeue-Light-37"/>
     <use transform="translate(647.005484619 38.8578125)scale(0.7)" xlink:href="#Cmsy10-b1"/>
     <use transform="translate(688.382828369 0.59375)" xlink:href="#HelveticaNeue-Light-4e"/>
     <use transform="translate(758.782822266 0.59375)" xlink:href="#HelveticaNeue-Light-20"/>
     <use transform="translate(786.582810059 0.59375)" xlink:href="#HelveticaNeue-Light-20"/>
     <use transform="translate(831.941391602 0.59375)" xlink:href="#STIXGeneral-Regular-27f6"/>
     <use transform="translate(1006.89996399 0.59375)" xlink:href="#HelveticaNeue-Light-20"/>
     <use transform="translate(1034.69995178 0.59375)" xlink:href="#HelveticaNeue-Light-2d"/>
     <use transform="translate(1071.69993652 0.59375)" xlink:href="#HelveticaNeue-Light-31"/>
     <use transform="translate(1127.29992737 0.59375)" xlink:href="#HelveticaNeue-Light-39"/>
     <use transform="translate(1182.89991821 0.59375)" xlink:href="#HelveticaNeue-Light-2e"/>
     <use transform="translate(1210.69990601 0.59375)" xlink:href="#HelveticaNeue-Light-35"/>
     <use transform="translate(1266.29989685 0.59375)" xlink:href="#HelveticaNeue-Light-36"/>
     <use transform="translate(1326.36402832 38.8578125)scale(0.7)" xlink:href="#Cmsy10-b1"/>
     <use transform="translate(1367.74137207 0.59375)" xlink:href="#HelveticaNeue-Light-45"/>
     <use transform="translate(1427.04135986 0.59375)" xlink:href="#HelveticaNeue-Light-2c"/>
     <use transform="translate(1454.84134766 0.59375)" xlink:href="#HelveticaNeue-Light-20"/>
     <use transform="translate(1482.64133545 0.59375)" xlink:href="#HelveticaNeue-Light-36"/>
     <use transform="translate(1538.24132629 0.59375)" xlink:href="#HelveticaNeue-Light-33"/>
     <use transform="translate(1593.84131714 0.59375)" xlink:href="#HelveticaNeue-Light-2e"/>
     <use transform="translate(1621.64130493 0.59375)" xlink:href="#HelveticaNeue-Light-34"/>
     <use transform="translate(1681.7054364 38.8578125)scale(0.7)" xlink:href="#Cmsy10-b1"/>
     <use transform="translate(1723.08278015 0.59375)" xlink:href="#HelveticaNeue-Light-4e"/>
    </g>
   </g>
   <g id="legend_1">
    <g id="patch_7">
     <path d="M 583.561875 80.984688 
L 813 80.984688 
Q 815.8 80.984688 815.8 78.184688 
L 815.8 38.44 
Q 815.8 35.64 813 35.64 
L 583.561875 35.64 
Q 580.761875 35.64 580.761875 38.44 
L 580.761875 78.184688 
Q 580.761875 80.984688 583.561875 80.984688 
z
" style="fill:#4c4c4c;opacity:0.5;stroke:#4c4c4c;stroke-linejoin:miter;"/>
    </g>
    <g id="patch_8">
     <path d="M 581.561875 78.984688 
L 811 78.984688 
Q 813.8 78.984688 813.8 76.184688 
L 813.8 36.44 
Q 813.8 33.64 811 33.64 
L 581.561875 33.64 
Q 578.761875 33.64 578.761875 36.44 
L 578.761875 76.184688 
Q 578.761875 78.984688 581.561875 78.984688 
z
" style="fill:#ffffff;stroke:#000000;stroke-linejoin:miter;"/>
    </g>
    <g id="line2d_56">
     <path d="M 588.561875 45.301563 
L 608.161875 45.301563 
" style="fill:none;stroke:#091459;stroke-linecap:square;stroke-width:2.0;"/>
    </g>
    <g id="line2d_57"/>
    <g id="text_21">
     <!-- Sentinel-3 ("adt_unfiltered") -->
     <defs>
      <path d="M -0.40625 -10.59375 
L 49.59375 -10.59375 
L 49.59375 -18.5 
L -0.40625 -18.5 
z
" id="Ubuntu-5f"/>
      <path d="M 16.90625 76 
L 16.90625 71 
Q 16.90625 66.09375 16.296875 60.75 
Q 15.703125 55.40625 14.796875 50.09375 
L 9.296875 50.09375 
Q 8.40625 55.40625 7.796875 60.75 
Q 7.203125 66.09375 7.203125 71.09375 
L 7.203125 76 
z
M 34.65625 76 
L 34.65625 71 
Q 34.65625 66.09375 34.046875 60.75 
Q 33.453125 55.40625 32.546875 50.09375 
L 27.046875 50.09375 
Q 26.15625 55.40625 25.546875 60.75 
Q 24.953125 66.09375 24.953125 71.09375 
L 24.953125 76 
z
" id="Ubuntu-22"/>
      <path d="M 27.203125 53.09375 
Q 28.40625 53.09375 29.953125 52.9375 
Q 31.5 52.796875 33 52.546875 
Q 34.5 52.296875 35.75 52.046875 
Q 37 51.796875 37.59375 51.59375 
L 36 43.5 
Q 34.90625 43.90625 32.34375 44.453125 
Q 29.796875 45 25.796875 45 
Q 23.203125 45 20.640625 44.453125 
Q 18.09375 43.90625 17.296875 43.703125 
L 17.296875 0 
L 8 0 
L 8 49.796875 
Q 11.296875 51 16.1875 52.046875 
Q 21.09375 53.09375 27.203125 53.09375 
" id="Ubuntu-72"/>
      <path d="M 8 50.5 
Q 11.203125 51.296875 16.5 52.1875 
Q 21.796875 53.09375 28.703125 53.09375 
Q 34.90625 53.09375 39 51.34375 
Q 43.09375 49.59375 45.546875 46.4375 
Q 48 43.296875 49 38.890625 
Q 50 34.5 50 29.203125 
L 50 0 
L 40.703125 0 
L 40.703125 27.203125 
Q 40.703125 32 40.046875 35.390625 
Q 39.40625 38.796875 37.90625 40.890625 
Q 36.40625 43 33.90625 43.953125 
Q 31.40625 44.90625 27.703125 44.90625 
Q 26.203125 44.90625 24.59375 44.796875 
Q 23 44.703125 21.546875 44.546875 
Q 20.09375 44.40625 18.9375 44.203125 
Q 17.796875 44 17.296875 43.90625 
L 17.296875 0 
L 8 0 
z
" id="Ubuntu-6e"/>
      <path d="M 17.09375 29.90625 
Q 17.09375 17.09375 20.796875 6.1875 
Q 24.5 -4.703125 31.703125 -14 
L 25.09375 -18.5 
Q 17.296875 -9 12.546875 3.34375 
Q 7.796875 15.703125 7.796875 29.90625 
Q 7.796875 44.09375 12.546875 56.4375 
Q 17.296875 68.796875 25.09375 78.296875 
L 31.703125 73.796875 
Q 24.5 64.5 20.796875 53.59375 
Q 17.09375 42.703125 17.09375 29.90625 
" id="Ubuntu-28"/>
      <path d="M 23.59375 -1 
Q 15 -0.796875 11.390625 2.703125 
Q 7.796875 6.203125 7.796875 13.59375 
L 7.796875 76 
L 17.09375 77.59375 
L 17.09375 15.09375 
Q 17.09375 12.796875 17.5 11.296875 
Q 17.90625 9.796875 18.796875 8.890625 
Q 19.703125 8 21.203125 7.546875 
Q 22.703125 7.09375 24.90625 6.796875 
z
" id="Ubuntu-6c"/>
      <path d="M 15.296875 29.90625 
Q 15.296875 42.703125 11.59375 53.59375 
Q 7.90625 64.5 0.703125 73.796875 
L 7.296875 78.296875 
Q 15.09375 68.796875 19.84375 56.4375 
Q 24.59375 44.09375 24.59375 29.90625 
Q 24.59375 15.703125 19.84375 3.34375 
Q 15.09375 -9 7.296875 -18.5 
L 0.703125 -14 
Q 7.90625 -4.703125 11.59375 6.1875 
Q 15.296875 17.09375 15.296875 29.90625 
" id="Ubuntu-29"/>
      <path d="M 17.296875 0 
L 8 0 
L 8 52 
L 17.296875 52 
z
M 12.59375 61.40625 
Q 10.09375 61.40625 8.34375 63.046875 
Q 6.59375 64.703125 6.59375 67.5 
Q 6.59375 70.296875 8.34375 71.9375 
Q 10.09375 73.59375 12.59375 73.59375 
Q 15.09375 73.59375 16.84375 71.9375 
Q 18.59375 70.296875 18.59375 67.5 
Q 18.59375 64.703125 16.84375 63.046875 
Q 15.09375 61.40625 12.59375 61.40625 
" id="Ubuntu-69"/>
      <path d="M 28.296875 77.59375 
Q 32.40625 77.59375 35.34375 77 
Q 38.296875 76.40625 39.5 75.90625 
L 37.796875 67.90625 
Q 36.59375 68.5 34.390625 69.046875 
Q 32.203125 69.59375 29 69.59375 
Q 22.5 69.59375 19.890625 66.046875 
Q 17.296875 62.5 17.296875 56.5 
L 17.296875 52 
L 37.296875 52 
L 37.296875 44.203125 
L 17.296875 44.203125 
L 17.296875 0 
L 8 0 
L 8 56.703125 
Q 8 66.703125 12.890625 72.140625 
Q 17.796875 77.59375 28.296875 77.59375 
" id="Ubuntu-66"/>
      <path d="M 5.09375 25.90625 
Q 5.09375 32.796875 7.09375 37.9375 
Q 9.09375 43.09375 12.390625 46.5 
Q 15.703125 49.90625 20 51.59375 
Q 24.296875 53.296875 28.796875 53.296875 
Q 39.296875 53.296875 44.890625 46.75 
Q 50.5 40.203125 50.5 26.796875 
Q 50.5 26.203125 50.5 25.25 
Q 50.5 24.296875 50.40625 23.5 
L 14.796875 23.5 
Q 15.40625 15.40625 19.5 11.203125 
Q 23.59375 7 32.296875 7 
Q 37.203125 7 40.546875 7.84375 
Q 43.90625 8.703125 45.59375 9.5 
L 46.90625 1.703125 
Q 45.203125 0.796875 40.953125 -0.203125 
Q 36.703125 -1.203125 31.296875 -1.203125 
Q 24.5 -1.203125 19.546875 0.84375 
Q 14.59375 2.90625 11.390625 6.5 
Q 8.203125 10.09375 6.640625 15.046875 
Q 5.09375 20 5.09375 25.90625 
M 40.796875 31 
Q 40.90625 37.296875 37.65625 41.34375 
Q 34.40625 45.40625 28.703125 45.40625 
Q 25.5 45.40625 23.046875 44.15625 
Q 20.59375 42.90625 18.890625 40.90625 
Q 17.203125 38.90625 16.25 36.296875 
Q 15.296875 33.703125 15 31 
z
" id="Ubuntu-65"/>
      <path d="M 41.59375 41 
Q 39.90625 42.40625 36.703125 43.703125 
Q 33.5 45 29.703125 45 
Q 25.703125 45 22.84375 43.546875 
Q 20 42.09375 18.203125 39.546875 
Q 16.40625 37 15.59375 33.5 
Q 14.796875 30 14.796875 26 
Q 14.796875 16.90625 19.296875 11.953125 
Q 23.796875 7 31.296875 7 
Q 35.09375 7 37.640625 7.34375 
Q 40.203125 7.703125 41.59375 8.09375 
z
M 41.59375 76 
L 50.90625 77.59375 
L 50.90625 1.5 
Q 47.703125 0.59375 42.703125 -0.296875 
Q 37.703125 -1.203125 31.203125 -1.203125 
Q 25.203125 -1.203125 20.390625 0.6875 
Q 15.59375 2.59375 12.1875 6.09375 
Q 8.796875 9.59375 6.9375 14.640625 
Q 5.09375 19.703125 5.09375 26 
Q 5.09375 32 6.640625 37 
Q 8.203125 42 11.203125 45.59375 
Q 14.203125 49.203125 18.546875 51.203125 
Q 22.90625 53.203125 28.5 53.203125 
Q 33 53.203125 36.453125 52 
Q 39.90625 50.796875 41.59375 49.703125 
z
" id="Ubuntu-64"/>
      <path d="M 16.703125 52 
L 36.40625 52 
L 36.40625 44.203125 
L 16.703125 44.203125 
L 16.703125 20.203125 
Q 16.703125 16.296875 17.296875 13.75 
Q 17.90625 11.203125 19.09375 9.75 
Q 20.296875 8.296875 22.09375 7.6875 
Q 23.90625 7.09375 26.296875 7.09375 
Q 30.5 7.09375 33.046875 8.046875 
Q 35.59375 9 36.59375 9.40625 
L 38.40625 1.703125 
Q 37 1 33.5 -0.046875 
Q 30 -1.09375 25.5 -1.09375 
Q 20.203125 -1.09375 16.75 0.25 
Q 13.296875 1.59375 11.1875 4.296875 
Q 9.09375 7 8.25 10.953125 
Q 7.40625 14.90625 7.40625 20.09375 
L 7.40625 66.5 
L 16.703125 68.09375 
z
" id="Ubuntu-74"/>
      <path d="M 49.40625 1.5 
Q 46.203125 0.703125 40.953125 -0.1875 
Q 35.703125 -1.09375 28.796875 -1.09375 
Q 22.796875 -1.09375 18.6875 0.65625 
Q 14.59375 2.40625 12.09375 5.59375 
Q 9.59375 8.796875 8.5 13.140625 
Q 7.40625 17.5 7.40625 22.796875 
L 7.40625 52 
L 16.703125 52 
L 16.703125 24.796875 
Q 16.703125 15.296875 19.703125 11.1875 
Q 22.703125 7.09375 29.796875 7.09375 
Q 31.296875 7.09375 32.890625 7.1875 
Q 34.5 7.296875 35.890625 7.4375 
Q 37.296875 7.59375 38.4375 7.75 
Q 39.59375 7.90625 40.09375 8.09375 
L 40.09375 52 
L 49.40625 52 
z
" id="Ubuntu-75"/>
      <path d="M 25.59375 6.703125 
Q 28.90625 6.703125 31.453125 6.84375 
Q 34 7 35.703125 7.40625 
L 35.703125 22.90625 
Q 34.703125 23.40625 32.453125 23.75 
Q 30.203125 24.09375 27 24.09375 
Q 24.90625 24.09375 22.546875 23.796875 
Q 20.203125 23.5 18.25 22.546875 
Q 16.296875 21.59375 15 19.9375 
Q 13.703125 18.296875 13.703125 15.59375 
Q 13.703125 10.59375 16.890625 8.640625 
Q 20.09375 6.703125 25.59375 6.703125 
M 24.796875 53.296875 
Q 30.40625 53.296875 34.25 51.84375 
Q 38.09375 50.40625 40.4375 47.75 
Q 42.796875 45.09375 43.796875 41.4375 
Q 44.796875 37.796875 44.796875 33.40625 
L 44.796875 0.90625 
Q 43.59375 0.703125 41.4375 0.34375 
Q 39.296875 0 36.59375 -0.296875 
Q 33.90625 -0.59375 30.75 -0.84375 
Q 27.59375 -1.09375 24.5 -1.09375 
Q 20.09375 -1.09375 16.390625 -0.1875 
Q 12.703125 0.703125 10 2.640625 
Q 7.296875 4.59375 5.796875 7.796875 
Q 4.296875 11 4.296875 15.5 
Q 4.296875 19.796875 6.046875 22.890625 
Q 7.796875 26 10.796875 27.890625 
Q 13.796875 29.796875 17.796875 30.6875 
Q 21.796875 31.59375 26.203125 31.59375 
Q 27.59375 31.59375 29.09375 31.4375 
Q 30.59375 31.296875 31.9375 31.046875 
Q 33.296875 30.796875 34.296875 30.59375 
Q 35.296875 30.40625 35.703125 30.296875 
L 35.703125 32.90625 
Q 35.703125 35.203125 35.203125 37.453125 
Q 34.703125 39.703125 33.390625 41.453125 
Q 32.09375 43.203125 29.84375 44.25 
Q 27.59375 45.296875 24 45.296875 
Q 19.40625 45.296875 15.953125 44.640625 
Q 12.5 44 10.796875 43.296875 
L 9.703125 51 
Q 11.5 51.796875 15.703125 52.546875 
Q 19.90625 53.296875 24.796875 53.296875 
" id="Ubuntu-61"/>
     </defs>
     <g transform="translate(623.561875 50.2015625)scale(0.14 -0.14)">
      <use xlink:href="#Ubuntu-53"/>
      <use x="53.1999969482" xlink:href="#Ubuntu-65"/>
      <use x="109.099990845" xlink:href="#Ubuntu-6e"/>
      <use x="166.499984741" xlink:href="#Ubuntu-74"/>
      <use x="206.699981689" xlink:href="#Ubuntu-69"/>
      <use x="231.999969482" xlink:href="#Ubuntu-6e"/>
      <use x="289.399963379" xlink:href="#Ubuntu-65"/>
      <use x="345.299957275" xlink:href="#Ubuntu-6c"/>
      <use x="372.599945068" xlink:href="#Ubuntu-2d"/>
      <use x="402.499938965" xlink:href="#Ubuntu-33"/>
      <use x="458.899932861" xlink:href="#Ubuntu-20"/>
      <use x="481.999923706" xlink:href="#Ubuntu-28"/>
      <use x="514.399917603" xlink:href="#Ubuntu-22"/>
      <use x="556.199905396" xlink:href="#Ubuntu-61"/>
      <use x="608.399902344" xlink:href="#Ubuntu-64"/>
      <use x="667.29989624" xlink:href="#Ubuntu-74"/>
      <use x="707.499893188" xlink:href="#Ubuntu-5f"/>
      <use x="756.699890137" xlink:href="#Ubuntu-75"/>
      <use x="814.099884033" xlink:href="#Ubuntu-6e"/>
      <use x="871.49987793" xlink:href="#Ubuntu-66"/>
      <use x="910.099868774" xlink:href="#Ubuntu-69"/>
      <use x="935.399856567" xlink:href="#Ubuntu-6c"/>
      <use x="962.69984436" xlink:href="#Ubuntu-74"/>
      <use x="1002.88421631" xlink:href="#Ubuntu-65"/>
      <use x="1058.78421021" xlink:href="#Ubuntu-72"/>
      <use x="1097.38420105" xlink:href="#Ubuntu-65"/>
      <use x="1153.28419495" xlink:href="#Ubuntu-64"/>
      <use x="1212.18418884" xlink:href="#Ubuntu-22"/>
      <use x="1253.98417664" xlink:href="#Ubuntu-29"/>
     </g>
    </g>
    <g id="line2d_58">
     <path d="M 588.561875 65.853125 
L 608.161875 65.853125 
" style="fill:none;stroke:#ed7c4c;stroke-linecap:square;stroke-width:2.0;"/>
    </g>
    <g id="line2d_59"/>
    <g id="text_22">
     <!-- NATL60-CJM165 ("sossheig") -->
     <defs>
      <path d="M 50.296875 8.40625 
L 50.296875 0 
L 8.59375 0 
L 8.59375 69.296875 
L 18.296875 69.296875 
L 18.296875 8.40625 
z
" id="Ubuntu-4c"/>
      <path d="M 38.40625 -1.5 
Q 31.09375 -1.5 25.09375 0.890625 
Q 19.09375 3.296875 14.796875 7.890625 
Q 10.5 12.5 8.140625 19.25 
Q 5.796875 26 5.796875 34.703125 
Q 5.796875 43.40625 8.4375 50.15625 
Q 11.09375 56.90625 15.59375 61.5 
Q 20.09375 66.09375 26.09375 68.5 
Q 32.09375 70.90625 38.90625 70.90625 
Q 43.203125 70.90625 46.640625 70.296875 
Q 50.09375 69.703125 52.640625 68.890625 
Q 55.203125 68.09375 56.796875 67.296875 
Q 58.40625 66.5 59 66.09375 
L 56.203125 58.09375 
Q 55.296875 58.703125 53.59375 59.390625 
Q 51.90625 60.09375 49.75 60.796875 
Q 47.59375 61.5 45.046875 61.953125 
Q 42.5 62.40625 39.90625 62.40625 
Q 34.40625 62.40625 30 60.5 
Q 25.59375 58.59375 22.5 55 
Q 19.40625 51.40625 17.75 46.25 
Q 16.09375 41.09375 16.09375 34.703125 
Q 16.09375 28.5 17.546875 23.390625 
Q 19 18.296875 21.890625 14.640625 
Q 24.796875 11 29.140625 9 
Q 33.5 7 39.296875 7 
Q 46 7 50.390625 8.390625 
Q 54.796875 9.796875 57 10.90625 
L 59.5 2.90625 
Q 58.796875 2.40625 57 1.65625 
Q 55.203125 0.90625 52.5 0.203125 
Q 49.796875 -0.5 46.1875 -1 
Q 42.59375 -1.5 38.40625 -1.5 
" id="Ubuntu-43"/>
      <path d="M 41.90625 22.296875 
Q 41.90625 17.296875 40.84375 13 
Q 39.796875 8.703125 37.140625 5.453125 
Q 34.5 2.203125 30.046875 0.34375 
Q 25.59375 -1.5 18.90625 -1.5 
Q 15.5 -1.5 12.640625 -0.953125 
Q 9.796875 -0.40625 7.5 0.4375 
Q 5.203125 1.296875 3.5 2.25 
Q 1.796875 3.203125 0.796875 4.09375 
L 4.59375 11.796875 
Q 6.703125 10.296875 10.046875 8.640625 
Q 13.40625 7 18.40625 7 
Q 25.59375 7 28.890625 10.640625 
Q 32.203125 14.296875 32.203125 23.203125 
L 32.203125 69.296875 
L 41.90625 69.296875 
z
" id="Ubuntu-4a"/>
      <path d="M 56.09375 0 
Q 53.90625 3.703125 51.046875 8.296875 
Q 48.203125 12.90625 44.890625 17.84375 
Q 41.59375 22.796875 38.046875 27.890625 
Q 34.5 33 31 37.75 
Q 27.5 42.5 24.203125 46.703125 
Q 20.90625 50.90625 18.09375 54.09375 
L 18.09375 0 
L 8.59375 0 
L 8.59375 69.296875 
L 16.296875 69.296875 
Q 21 64.296875 26.34375 57.640625 
Q 31.703125 51 36.953125 43.953125 
Q 42.203125 36.90625 46.84375 30.09375 
Q 51.5 23.296875 54.703125 18 
L 54.703125 69.296875 
L 64.203125 69.296875 
L 64.203125 0 
z
" id="Ubuntu-4e"/>
      <path d="M 39.703125 9.59375 
Q 38.703125 12 37.046875 15.703125 
Q 35.40625 19.40625 33.5 23.703125 
Q 31.59375 28 29.4375 32.546875 
Q 27.296875 37.09375 25.390625 41.140625 
Q 23.5 45.203125 21.84375 48.390625 
Q 20.203125 51.59375 19.203125 53.296875 
Q 18.09375 41.5 17.390625 27.75 
Q 16.703125 14 16.203125 0 
L 6.703125 0 
Q 7.09375 9 7.59375 18.140625 
Q 8.09375 27.296875 8.75 36.140625 
Q 9.40625 45 10.15625 53.390625 
Q 10.90625 61.796875 11.796875 69.296875 
L 20.296875 69.296875 
Q 23 64.90625 26.09375 58.90625 
Q 29.203125 52.90625 32.296875 46.34375 
Q 35.40625 39.796875 38.296875 33.25 
Q 41.203125 26.703125 43.59375 21.296875 
Q 46 26.703125 48.890625 33.25 
Q 51.796875 39.796875 54.890625 46.34375 
Q 58 52.90625 61.09375 58.90625 
Q 64.203125 64.90625 66.90625 69.296875 
L 75.40625 69.296875 
Q 78.796875 35.796875 80.5 0 
L 71 0 
Q 70.5 14 69.796875 27.75 
Q 69.09375 41.5 68 53.296875 
Q 67 51.59375 65.34375 48.390625 
Q 63.703125 45.203125 61.796875 41.140625 
Q 59.90625 37.09375 57.75 32.546875 
Q 55.59375 28 53.6875 23.703125 
Q 51.796875 19.40625 50.140625 15.703125 
Q 48.5 12 47.5 9.59375 
z
" id="Ubuntu-4d"/>
      <path d="M 53.90625 26 
Q 53.90625 19.796875 52.09375 14.796875 
Q 50.296875 9.796875 47.046875 6.1875 
Q 43.796875 2.59375 39.296875 0.640625 
Q 34.796875 -1.296875 29.5 -1.296875 
Q 24.203125 -1.296875 19.703125 0.640625 
Q 15.203125 2.59375 11.953125 6.1875 
Q 8.703125 9.796875 6.890625 14.796875 
Q 5.09375 19.796875 5.09375 26 
Q 5.09375 32.09375 6.890625 37.140625 
Q 8.703125 42.203125 11.953125 45.796875 
Q 15.203125 49.40625 19.703125 51.34375 
Q 24.203125 53.296875 29.5 53.296875 
Q 34.796875 53.296875 39.296875 51.34375 
Q 43.796875 49.40625 47.046875 45.796875 
Q 50.296875 42.203125 52.09375 37.140625 
Q 53.90625 32.09375 53.90625 26 
M 44.203125 26 
Q 44.203125 34.796875 40.25 39.9375 
Q 36.296875 45.09375 29.5 45.09375 
Q 22.703125 45.09375 18.75 39.9375 
Q 14.796875 34.796875 14.796875 26 
Q 14.796875 17.203125 18.75 12.046875 
Q 22.703125 6.90625 29.5 6.90625 
Q 36.296875 6.90625 40.25 12.046875 
Q 44.203125 17.203125 44.203125 26 
" id="Ubuntu-6f"/>
      <path d="M 54.90625 69.296875 
L 54.90625 60.90625 
L 33.09375 60.90625 
L 33.09375 0 
L 23.40625 0 
L 23.40625 60.90625 
L 1.59375 60.90625 
L 1.59375 69.296875 
z
" id="Ubuntu-54"/>
      <path d="M 54.90625 0 
Q 53.203125 4.5 51.703125 8.84375 
Q 50.203125 13.203125 48.59375 17.703125 
L 17.203125 17.703125 
L 10.90625 0 
L 0.796875 0 
Q 4.796875 11 8.296875 20.34375 
Q 11.796875 29.703125 15.140625 38.09375 
Q 18.5 46.5 21.796875 54.140625 
Q 25.09375 61.796875 28.703125 69.296875 
L 37.59375 69.296875 
Q 41.203125 61.796875 44.5 54.140625 
Q 47.796875 46.5 51.140625 38.09375 
Q 54.5 29.703125 58 20.34375 
Q 61.5 11 65.5 0 
z
M 45.796875 25.703125 
Q 42.59375 34.40625 39.4375 42.546875 
Q 36.296875 50.703125 32.90625 58.203125 
Q 29.40625 50.703125 26.25 42.546875 
Q 23.09375 34.40625 20 25.703125 
z
" id="Ubuntu-41"/>
      <path d="M 8 0 
L 8 76 
L 17.296875 77.59375 
L 17.296875 51 
Q 19.90625 52 22.84375 52.546875 
Q 25.796875 53.09375 28.703125 53.09375 
Q 34.90625 53.09375 39 51.34375 
Q 43.09375 49.59375 45.546875 46.4375 
Q 48 43.296875 49 38.890625 
Q 50 34.5 50 29.203125 
L 50 0 
L 40.703125 0 
L 40.703125 27.203125 
Q 40.703125 32 40.046875 35.390625 
Q 39.40625 38.796875 37.90625 40.890625 
Q 36.40625 43 33.90625 43.953125 
Q 31.40625 44.90625 27.703125 44.90625 
Q 26.203125 44.90625 24.59375 44.703125 
Q 23 44.5 21.546875 44.25 
Q 20.09375 44 18.9375 43.703125 
Q 17.796875 43.40625 17.296875 43.203125 
L 17.296875 0 
z
" id="Ubuntu-68"/>
      <path d="M 40.59375 5.203125 
Q 39.40625 4.40625 35.953125 3.15625 
Q 32.5 1.90625 27.90625 1.90625 
Q 23.203125 1.90625 19.046875 3.40625 
Q 14.90625 4.90625 11.796875 8.046875 
Q 8.703125 11.203125 6.890625 15.890625 
Q 5.09375 20.59375 5.09375 27.09375 
Q 5.09375 32.796875 6.796875 37.546875 
Q 8.5 42.296875 11.75 45.75 
Q 15 49.203125 19.703125 51.140625 
Q 24.40625 53.09375 30.296875 53.09375 
Q 36.796875 53.09375 41.640625 52.140625 
Q 46.5 51.203125 49.796875 50.40625 
L 49.796875 4 
Q 49.796875 -8 43.59375 -13.390625 
Q 37.40625 -18.796875 24.796875 -18.796875 
Q 19.90625 -18.796875 15.546875 -18 
Q 11.203125 -17.203125 8 -16.09375 
L 9.703125 -8 
Q 12.5 -9.09375 16.546875 -9.9375 
Q 20.59375 -10.796875 25 -10.796875 
Q 33.296875 -10.796875 36.9375 -7.5 
Q 40.59375 -4.203125 40.59375 3 
z
M 40.5 43.796875 
Q 39.09375 44.203125 36.75 44.546875 
Q 34.40625 44.90625 30.40625 44.90625 
Q 22.90625 44.90625 18.84375 40 
Q 14.796875 35.09375 14.796875 27 
Q 14.796875 22.5 15.9375 19.296875 
Q 17.09375 16.09375 19.046875 14 
Q 21 11.90625 23.546875 10.90625 
Q 26.09375 9.90625 28.796875 9.90625 
Q 32.5 9.90625 35.59375 10.953125 
Q 38.703125 12 40.5 13.40625 
z
" id="Ubuntu-67"/>
      <path d="M 20.09375 6.703125 
Q 25.796875 6.703125 28.546875 8.203125 
Q 31.296875 9.703125 31.296875 13 
Q 31.296875 16.40625 28.59375 18.40625 
Q 25.90625 20.40625 19.703125 22.90625 
Q 16.703125 24.09375 13.953125 25.34375 
Q 11.203125 26.59375 9.203125 28.296875 
Q 7.203125 30 6 32.390625 
Q 4.796875 34.796875 4.796875 38.296875 
Q 4.796875 45.203125 9.890625 49.25 
Q 15 53.296875 23.796875 53.296875 
Q 26 53.296875 28.203125 53.046875 
Q 30.40625 52.796875 32.296875 52.4375 
Q 34.203125 52.09375 35.640625 51.6875 
Q 37.09375 51.296875 37.90625 51 
L 36.203125 43 
Q 34.703125 43.796875 31.5 44.640625 
Q 28.296875 45.5 23.796875 45.5 
Q 19.90625 45.5 17 43.953125 
Q 14.09375 42.40625 14.09375 39.09375 
Q 14.09375 37.40625 14.75 36.09375 
Q 15.40625 34.796875 16.75 33.75 
Q 18.09375 32.703125 20.09375 31.796875 
Q 22.09375 30.90625 24.90625 29.90625 
Q 28.59375 28.5 31.5 27.140625 
Q 34.40625 25.796875 36.453125 24 
Q 38.5 22.203125 39.59375 19.640625 
Q 40.703125 17.09375 40.703125 13.40625 
Q 40.703125 6.203125 35.34375 2.5 
Q 30 -1.203125 20.09375 -1.203125 
Q 13.203125 -1.203125 9.296875 -0.046875 
Q 5.40625 1.09375 4 1.703125 
L 5.703125 9.703125 
Q 7.296875 9.09375 10.796875 7.890625 
Q 14.296875 6.703125 20.09375 6.703125 
" id="Ubuntu-73"/>
     </defs>
     <g transform="translate(623.561875 70.753125)scale(0.14 -0.14)">
      <use xlink:href="#Ubuntu-4e"/>
      <use x="72.799987793" xlink:href="#Ubuntu-41"/>
      <use x="139.006225586" xlink:href="#Ubuntu-54"/>
      <use x="195.506210327" xlink:href="#Ubuntu-4c"/>
      <use x="247.406204224" xlink:href="#Ubuntu-36"/>
      <use x="303.80619812" xlink:href="#Ubuntu-30"/>
      <use x="360.206192017" xlink:href="#Ubuntu-2d"/>
      <use x="390.106185913" xlink:href="#Ubuntu-43"/>
      <use x="452.137420654" xlink:href="#Ubuntu-4a"/>
      <use x="502.137405396" xlink:href="#Ubuntu-4d"/>
      <use x="589.23739624" xlink:href="#Ubuntu-31"/>
      <use x="645.637390137" xlink:href="#Ubuntu-36"/>
      <use x="702.037384033" xlink:href="#Ubuntu-35"/>
      <use x="758.43737793" xlink:href="#Ubuntu-20"/>
      <use x="781.537368774" xlink:href="#Ubuntu-28"/>
      <use x="813.937362671" xlink:href="#Ubuntu-22"/>
      <use x="855.737350464" xlink:href="#Ubuntu-73"/>
      <use x="900.337341309" xlink:href="#Ubuntu-6f"/>
      <use x="959.33732605" xlink:href="#Ubuntu-73"/>
      <use x="1003.93731689" xlink:href="#Ubuntu-73"/>
      <use x="1048.53730774" xlink:href="#Ubuntu-68"/>
      <use x="1105.63729858" xlink:href="#Ubuntu-65"/>
      <use x="1161.53729248" xlink:href="#Ubuntu-69"/>
      <use x="1186.83728027" xlink:href="#Ubuntu-67"/>
      <use x="1244.63726807" xlink:href="#Ubuntu-22"/>
      <use x="1286.43725586" xlink:href="#Ubuntu-29"/>
     </g>
    </g>
   </g>
   <g id="line2d_60">
    <path clip-path="url(#p1479e4a638)" d="M 60.480011 88.130194 
L 62.658569 59.978058 
L 64.837158 97.020343 
L 67.015717 92.575268 
L 69.194275 77.017508 
L 71.372833 117.023178 
L 73.551392 120.727406 
L 75.72998 91.093578 
L 77.908539 84.425965 
L 80.087128 81.462583 
L 82.265686 92.575268 
L 84.444244 89.611886 
L 86.622803 85.907657 
L 88.801392 105.169646 
L 90.97995 102.206263 
L 93.158508 89.611886 
L 95.337097 78.4992 
L 97.515656 51.087911 
L 99.694214 63.682286 
L 101.872772 64.42313 
L 104.051361 53.310447 
L 106.229919 52.5696 
L 108.408508 48.865369 
L 110.587067 51.087911 
L 112.765625 34.789305 
L 114.944183 37.011841 
L 117.122742 53.310447 
L 119.301331 48.124528 
L 121.479889 45.901986 
L 123.658478 46.642833 
L 125.837036 44.420297 
L 128.015594 61.45975 
L 130.194153 89.611886 
L 132.372711 88.130194 
L 134.5513 74.054125 
L 136.729858 94.05696 
L 138.908447 94.797806 
L 141.087006 71.090742 
L 143.265564 61.45975 
L 145.444122 62.941439 
L 147.622711 46.642833 
L 149.80127 54.051289 
L 151.979828 72.572433 
L 154.158417 72.572433 
L 156.336975 82.203429 
L 158.515533 77.758355 
L 162.872681 74.794972 
L 165.051239 55.532983 
L 167.229828 65.163978 
L 169.408386 58.496366 
L 171.586945 65.163978 
L 173.765503 83.685119 
L 175.944061 65.904822 
L 178.12265 69.609053 
L 180.301208 85.907657 
L 182.479797 76.276664 
L 184.658356 79.980892 
L 186.836914 97.761189 
L 189.015472 83.685119 
L 191.194031 84.425965 
L 193.37262 94.797806 
L 195.551178 95.538651 
L 197.729767 111.837257 
L 199.908325 117.023178 
L 202.086884 92.575268 
L 204.265442 85.166811 
L 206.444031 89.611886 
L 208.622589 93.316115 
L 210.801147 99.983726 
L 212.979736 80.721736 
L 215.158295 74.794972 
L 217.336853 91.093578 
L 219.515411 75.535817 
L 221.694 80.721736 
L 223.872559 83.685119 
L 226.051147 85.166811 
L 228.229706 88.87104 
L 230.408264 89.611886 
L 232.586823 92.575268 
L 234.765381 82.944275 
L 236.94397 96.279497 
L 239.122528 88.87104 
L 241.301117 76.276664 
L 243.479675 88.130194 
L 245.658234 117.023178 
L 247.836792 125.913325 
L 250.01535 116.282332 
L 252.193939 110.355566 
L 254.372498 96.279497 
L 256.551086 107.392183 
L 258.729645 117.764022 
L 260.908203 93.316115 
L 263.086761 80.721736 
L 265.26535 91.834422 
L 267.443909 104.4288 
L 269.622467 119.98656 
L 271.801056 106.651337 
L 273.979614 105.169646 
L 276.158173 105.169646 
L 278.336731 88.130194 
L 280.51532 96.279497 
L 282.693878 105.169646 
L 284.872467 107.392183 
L 287.051025 105.910491 
L 289.229584 107.392183 
L 291.408142 101.465417 
L 293.5867 98.502034 
L 295.765289 94.05696 
L 297.943848 97.761189 
L 300.122437 91.093578 
L 302.300995 90.352732 
L 304.479553 103.687954 
L 306.658112 99.983726 
L 308.83667 94.05696 
L 311.015259 100.724572 
L 313.193817 110.355566 
L 315.372406 90.352732 
L 317.550964 79.240044 
L 319.729523 85.166811 
L 321.908081 97.020343 
L 324.08667 111.096411 
L 326.265228 115.541485 
L 328.443787 96.279497 
L 330.622375 79.980892 
L 332.800903 93.316115 
L 334.979492 97.020343 
L 337.158051 94.797806 
L 339.336639 100.724572 
L 341.515198 105.169646 
L 343.693787 99.983726 
L 345.872345 102.206263 
L 348.050873 96.279497 
L 350.229462 96.279497 
L 352.40802 92.575268 
L 354.586609 94.05696 
L 356.765167 125.172481 
L 358.943756 122.209097 
L 361.122284 116.282332 
L 363.300873 105.910491 
L 365.479431 92.575268 
L 367.65799 99.24288 
L 369.836578 88.130194 
L 372.015137 82.203429 
L 374.193695 94.797806 
L 376.372253 91.093578 
L 378.550842 105.169646 
L 380.729401 99.24288 
L 382.90799 108.133028 
L 385.086548 108.873874 
L 387.265106 99.24288 
L 389.443665 113.318949 
L 391.622223 108.873874 
L 393.800812 113.318949 
L 395.97937 117.023178 
L 398.157959 122.949943 
L 400.336517 122.209097 
L 402.515076 111.096411 
L 404.693634 106.651337 
L 406.872192 122.949943 
L 409.050781 122.949943 
L 411.22934 117.764022 
L 413.407928 124.431635 
L 415.586487 122.949943 
L 417.765045 108.133028 
L 419.943604 117.023178 
L 422.122192 145.916161 
L 424.300751 151.842928 
L 426.479309 137.766858 
L 428.657898 130.3584 
L 430.836456 132.580936 
L 433.015015 125.913325 
L 435.193573 135.54432 
L 437.372162 118.504868 
L 439.55072 105.169646 
L 441.729309 113.318949 
L 443.907867 114.059794 
L 446.086426 111.096411 
L 448.264984 126.654171 
L 450.443542 132.580936 
L 452.622131 122.949943 
L 454.80069 135.54432 
L 456.979279 129.617556 
L 459.157837 116.282332 
L 461.336395 126.654171 
L 465.693512 113.318949 
L 467.872101 125.913325 
L 470.050659 112.578103 
L 472.229248 103.687954 
L 474.407806 116.282332 
L 476.586365 127.395017 
L 478.764923 120.727406 
L 480.943512 117.023178 
L 483.12207 125.172481 
L 485.300629 128.876708 
L 487.479218 123.690789 
L 489.657776 157.028847 
L 491.836334 150.361234 
L 494.014893 137.766858 
L 496.193481 139.989395 
L 498.37204 102.947109 
L 500.550629 80.721736 
L 502.729187 70.349897 
L 504.907745 81.462583 
L 507.086304 76.276664 
L 509.264862 66.645669 
L 511.443451 102.206263 
L 513.622009 113.318949 
L 515.800598 102.206263 
L 517.979156 155.547153 
L 520.157715 161.47392 
L 522.336273 128.135864 
L 524.514832 185.180981 
L 526.69342 205.183823 
L 528.871979 196.293667 
L 531.050568 169.623223 
L 533.229126 179.25422 
L 535.407684 222.964112 
L 537.586243 198.516209 
L 539.764832 198.516209 
L 541.94339 185.180981 
L 544.121948 154.065464 
L 546.300537 157.769689 
L 548.479095 174.068295 
L 550.657654 178.513373 
L 552.836212 171.104917 
L 555.014801 167.400686 
L 557.193359 174.068295 
L 559.371948 205.183823 
L 561.550507 197.775362 
L 563.729065 235.558492 
L 565.907623 236.299339 
L 568.086182 183.699292 
L 570.264771 177.772525 
L 572.443329 158.510536 
L 574.621918 179.25422 
L 576.800476 170.36407 
L 578.979034 163.696456 
L 581.157593 184.440139 
L 583.336151 181.476756 
L 585.51474 199.257056 
L 587.693298 199.997892 
L 589.871887 162.955614 
L 592.050446 167.400686 
L 594.229004 185.180981 
L 596.407562 173.327453 
L 598.586151 171.104917 
L 600.764709 145.916161 
L 602.943268 156.288 
L 605.121857 192.589442 
L 607.300415 191.107748 
L 609.478973 222.223264 
L 611.657532 222.223264 
L 613.836121 205.183823 
L 616.014679 201.479587 
L 618.193268 185.921828 
L 620.371826 184.440139 
L 622.550385 184.440139 
L 624.728943 188.885211 
L 626.907501 194.071131 
L 629.08609 203.702128 
L 631.264648 198.516209 
L 633.443237 184.440139 
L 635.621796 210.369742 
L 637.800354 250.375403 
L 639.978912 237.040187 
L 642.157471 211.851425 
L 644.33606 211.110578 
L 646.514618 198.516209 
L 648.693207 208.888048 
L 650.871765 196.293667 
L 653.050323 173.327453 
L 655.228882 177.772525 
L 657.407471 191.848595 
L 659.586029 199.997892 
L 661.764587 204.442975 
L 663.943176 225.9275 
L 666.121735 231.854267 
L 668.300293 247.412026 
L 670.478851 249.634556 
L 672.65744 229.631726 
L 674.835999 222.223264 
L 677.014587 251.857098 
L 679.193146 257.783865 
L 681.371704 242.226106 
L 683.550262 254.079639 
L 685.728821 268.896551 
L 687.90741 294.085312 
L 690.085968 281.49092 
L 692.264557 282.231767 
L 694.443115 277.786695 
L 696.621674 295.566984 
L 698.800232 269.637398 
L 700.97879 242.226106 
L 703.157379 244.448637 
L 705.335938 248.893709 
L 707.514526 248.893709 
L 709.693085 224.445806 
L 711.871643 230.372573 
L 714.050201 258.524712 
L 716.22879 264.451478 
L 718.407349 265.192315 
L 720.585907 278.527542 
L 722.764496 297.789537 
L 724.943054 301.493762 
L 727.121613 297.048679 
L 729.300171 305.938845 
L 731.47876 322.23744 
L 733.657318 341.499423 
L 735.835907 339.276893 
L 738.014465 354.093815 
L 740.193024 379.282554 
L 742.371582 390.395251 
L 744.55014 365.20649 
L 746.728729 344.462812 
L 748.907288 385.209332 
L 751.085876 372.61494 
L 753.264435 352.61212 
L 755.442993 366.688184 
L 757.621552 376.319187 
L 759.80011 374.837493 
L 761.978699 361.502265 
L 764.157257 340.758587 
L 766.335846 335.572668 
L 768.514404 340.017729 
L 770.692963 343.721976 
L 772.871521 346.685343 
L 775.05011 334.831809 
L 777.228668 331.868443 
L 779.407227 355.575487 
L 781.585815 337.795198 
L 783.764343 334.090973 
L 785.942932 348.167037 
L 788.12149 333.350115 
L 790.300079 341.499423 
L 792.478638 311.124765 
L 794.657227 311.124765 
L 796.835754 324.45997 
L 799.014313 312.606437 
L 801.192902 325.941665 
L 803.37146 310.383906 
L 805.550049 311.865601 
L 807.728607 311.865601 
L 809.907196 319.274051 
L 812.085724 329.64589 
L 814.264313 314.82899 
L 816.442871 328.164195 
L 818.621429 354.093815 
L 820.800018 321.496604 
L 820.800018 321.496604 
" style="fill:none;stroke:#091459;stroke-linecap:square;stroke-width:2.0;"/>
   </g>
   <g id="line2d_61">
    <path clip-path="url(#p1479e4a638)" d="M 60.480011 55.968424 
L 62.658569 64.278334 
L 64.837158 73.490489 
L 67.015717 76.778802 
L 69.194275 79.071949 
L 71.372833 82.091363 
L 73.551392 88.965931 
L 75.72998 92.322949 
L 77.908539 92.916814 
L 80.087128 92.227439 
L 82.265686 91.152335 
L 84.444244 93.993312 
L 86.622803 94.636969 
L 90.97995 89.430981 
L 93.158508 86.39967 
L 95.337097 81.205703 
L 97.515656 75.035754 
L 101.872772 61.866778 
L 104.051361 56.337318 
L 106.229919 52.257139 
L 108.408508 48.614359 
L 110.587067 46.966466 
L 112.765625 48.150713 
L 114.944183 52.202505 
L 119.301331 59.087866 
L 121.479889 61.580491 
L 123.658478 65.130288 
L 125.837036 71.723339 
L 128.015594 81.689383 
L 130.194153 89.783155 
L 132.372711 95.10828 
L 134.5513 103.554531 
L 136.729858 111.236679 
L 138.908447 116.640104 
L 141.087006 118.087753 
L 143.265564 114.581926 
L 147.622711 98.055225 
L 149.80127 84.997232 
L 151.979828 75.200222 
L 154.158417 75.028548 
L 156.336975 80.739501 
L 158.515533 91.054286 
L 160.694092 99.677639 
L 165.051239 108.783012 
L 167.229828 115.889248 
L 169.408386 122.407537 
L 171.586945 130.092622 
L 173.765503 133.239666 
L 175.944061 131.001959 
L 178.12265 129.137328 
L 180.301208 125.450365 
L 182.479797 118.918023 
L 184.658356 118.292089 
L 186.836914 124.245975 
L 189.015472 130.571401 
L 191.194031 136.329592 
L 193.37262 143.183668 
L 195.551178 148.511274 
L 197.729767 156.453128 
L 199.908325 162.777216 
L 202.086884 167.128012 
L 204.265442 168.781911 
L 206.444031 169.231923 
L 208.622589 171.150521 
L 210.801147 174.50777 
L 215.158295 182.655229 
L 217.336853 186.190203 
L 219.515411 190.845461 
L 221.694 187.824065 
L 223.872559 178.028078 
L 226.051147 167.680951 
L 228.229706 156.657381 
L 230.408264 146.471827 
L 232.586823 138.182789 
L 234.765381 132.274867 
L 236.94397 129.166315 
L 239.122528 129.497206 
L 241.301117 125.108179 
L 243.479675 118.064715 
L 245.658234 112.309751 
L 247.836792 110.427837 
L 250.01535 113.30289 
L 252.193939 106.671476 
L 254.372498 99.5614 
L 256.551086 95.38772 
L 258.729645 94.804317 
L 260.908203 95.541442 
L 263.086761 97.195321 
L 265.26535 102.607628 
L 267.443909 105.247436 
L 269.622467 103.167689 
L 271.801056 107.27422 
L 273.979614 113.403823 
L 276.158173 114.63232 
L 278.336731 112.656635 
L 280.51532 110.978924 
L 282.693878 109.055019 
L 284.872467 108.24158 
L 287.051025 109.764225 
L 289.229584 107.666402 
L 291.408142 108.337719 
L 293.5867 109.708077 
L 295.765289 112.106893 
L 297.943848 114.292445 
L 300.122437 114.851916 
L 302.300995 120.047304 
L 304.479553 121.029027 
L 306.658112 124.361112 
L 308.83667 126.090765 
L 311.015259 121.13478 
L 313.193817 117.15735 
L 315.372406 118.079202 
L 317.550964 126.595705 
L 319.729523 137.733886 
L 321.908081 140.021023 
L 324.08667 143.462205 
L 326.265228 144.887998 
L 328.443787 142.578063 
L 330.622375 137.802985 
L 332.800903 131.438344 
L 334.979492 123.303156 
L 337.158051 117.520265 
L 339.336639 117.981453 
L 341.515198 122.943525 
L 345.872345 137.247317 
L 348.050873 134.461611 
L 350.229462 133.438937 
L 352.40802 129.522009 
L 354.586609 127.125201 
L 356.765167 125.324676 
L 358.943756 124.170144 
L 361.122284 122.419905 
L 363.300873 123.60419 
L 365.479431 127.866755 
L 367.65799 131.858384 
L 369.836578 132.505219 
L 372.015137 128.895641 
L 374.193695 126.850493 
L 376.372253 123.202972 
L 378.550842 117.870731 
L 380.729401 118.895357 
L 382.90799 118.059124 
L 385.086548 117.492728 
L 387.265106 124.96875 
L 389.443665 140.080332 
L 391.622223 148.058642 
L 393.800812 149.096961 
L 395.97937 151.549085 
L 398.157959 149.138177 
L 400.336517 149.390302 
L 402.515076 148.127158 
L 404.693634 149.625108 
L 406.872192 149.661321 
L 409.050781 153.837477 
L 411.22934 149.927764 
L 413.407928 144.571191 
L 417.765045 144.621053 
L 419.943604 146.213258 
L 422.122192 151.10244 
L 424.300751 153.500845 
L 426.479309 151.336824 
L 428.657898 142.24086 
L 430.836456 138.924106 
L 433.015015 134.733838 
L 435.193573 123.708368 
L 437.372162 115.68219 
L 439.55072 115.405441 
L 441.729309 113.693151 
L 443.907867 114.409127 
L 446.086426 118.483983 
L 448.264984 115.965804 
L 450.443542 119.204723 
L 452.622131 121.321049 
L 454.80069 119.768365 
L 456.979279 126.398961 
L 459.157837 132.463601 
L 461.336395 145.887332 
L 463.514954 147.374543 
L 465.693512 147.784339 
L 467.872101 143.065634 
L 470.050659 140.463073 
L 472.229248 141.993507 
L 474.407806 147.968022 
L 478.764923 165.712847 
L 480.943512 162.129172 
L 483.12207 153.260196 
L 485.300629 146.637709 
L 487.479218 138.193426 
L 489.657776 131.275095 
L 491.836334 125.181752 
L 494.014893 120.85305 
L 496.193481 117.444255 
L 498.37204 115.096287 
L 500.550629 115.162281 
L 502.729187 119.856449 
L 507.086304 136.676935 
L 509.264862 142.969158 
L 511.443451 148.855283 
L 513.622009 158.556532 
L 515.800598 170.536225 
L 517.979156 193.479664 
L 520.157715 215.158528 
L 522.336273 224.957397 
L 524.514832 221.752608 
L 526.69342 221.427408 
L 528.871979 219.842858 
L 533.229126 201.372195 
L 535.407684 197.543577 
L 537.586243 194.904009 
L 539.764832 183.817017 
L 541.94339 176.149449 
L 544.121948 173.531308 
L 546.300537 173.350978 
L 548.479095 178.189386 
L 550.657654 187.479827 
L 552.836212 188.765615 
L 555.014801 185.585925 
L 557.193359 184.117384 
L 559.371948 179.390182 
L 563.729065 166.522806 
L 565.907623 157.426489 
L 568.086182 150.367468 
L 570.264771 149.149327 
L 572.443329 153.398857 
L 574.621918 161.872218 
L 576.800476 172.689775 
L 578.979034 178.878795 
L 581.157593 168.245178 
L 583.336151 148.86099 
L 585.51474 140.131564 
L 587.693298 143.33189 
L 589.871887 150.384171 
L 592.050446 154.9955 
L 594.229004 159.26685 
L 596.407562 162.858903 
L 598.586151 164.949219 
L 600.764709 163.038399 
L 602.943268 161.350642 
L 605.121857 161.58676 
L 607.300415 161.082212 
L 611.657532 164.991053 
L 613.836121 160.773118 
L 616.014679 155.090445 
L 618.193268 157.485953 
L 620.371826 164.371381 
L 622.550385 174.777851 
L 624.728943 181.690601 
L 626.907501 192.20714 
L 629.08609 198.672218 
L 631.264648 210.320826 
L 633.443237 203.793016 
L 635.621796 192.288197 
L 637.800354 181.784227 
L 639.978912 170.422308 
L 642.157471 160.984717 
L 644.33606 153.82009 
L 646.514618 152.27499 
L 648.693207 153.958845 
L 650.871765 150.017429 
L 653.050323 151.984768 
L 655.228882 153.246281 
L 657.407471 151.736684 
L 659.586029 151.159232 
L 661.764587 161.238906 
L 663.943176 169.909421 
L 666.121735 185.832602 
L 668.300293 187.547626 
L 670.478851 169.046113 
L 672.65744 162.841096 
L 674.835999 178.772993 
L 677.014587 209.31087 
L 679.193146 226.467595 
L 681.371704 245.753203 
L 683.550262 261.438257 
L 685.728821 270.069317 
L 687.90741 276.368886 
L 690.085968 285.138149 
L 692.264557 289.408234 
L 694.443115 270.465203 
L 696.621674 244.325061 
L 698.800232 228.288643 
L 700.97879 215.476188 
L 703.157379 204.353313 
L 705.335938 195.211215 
L 707.514526 190.616823 
L 709.693085 192.107956 
L 711.871643 200.032004 
L 714.050201 209.093139 
L 716.22879 219.257822 
L 718.407349 224.226055 
L 720.585907 238.331969 
L 722.764496 262.143536 
L 724.943054 282.670277 
L 727.121613 297.172299 
L 729.300171 323.604633 
L 731.47876 345.283662 
L 733.657318 365.14787 
L 735.835907 378.974531 
L 738.014465 386.77762 
L 740.193024 393.043949 
L 742.371582 391.139708 
L 744.55014 377.194175 
L 746.728729 365.288248 
L 748.907288 355.593504 
L 751.085876 351.403012 
L 753.264435 353.764486 
L 755.442993 359.308106 
L 757.621552 360.798543 
L 759.80011 360.291346 
L 761.978699 356.963722 
L 764.157257 351.034935 
L 768.514404 335.653454 
L 772.871521 307.90409 
L 775.05011 300.96347 
L 777.228668 296.793314 
L 779.407227 298.709941 
L 781.585815 306.413145 
L 783.764343 313.189475 
L 785.942932 312.799186 
L 788.12149 301.667126 
L 790.300079 294.130817 
L 792.478638 289.640957 
L 794.657227 290.361282 
L 796.835754 276.258492 
L 799.014313 250.774016 
L 801.192902 229.351511 
L 803.37146 224.498497 
L 805.550049 224.962309 
L 807.728607 232.813354 
L 809.907196 247.427437 
L 812.085724 259.674615 
L 814.264313 281.55082 
L 816.442871 273.361626 
L 818.621429 269.349135 
L 820.800018 267.536864 
L 820.800018 267.536864 
" style="fill:none;stroke:#ed7c4c;stroke-linecap:square;stroke-width:2.0;"/>
   </g>
  </g>
 </g>
 <defs>
  <clipPath id="p1479e4a638">
   <rect height="388.944" width="760.32" x="60.48" y="26.64"/>
  </clipPath>
 </defs>
</svg>
